<?xml version="1.0" encoding="UTF-8" standalone="no"?>
<!DOCTYPE svg PUBLIC "-//W3C//DTD SVG 1.1//EN" "http://www.w3.org/Graphics/SVG/1.1/DTD/svg11.dtd">
<svg width="100%" height="100%" viewBox="0 0 71 71" version="1.1" xmlns="http://www.w3.org/2000/svg" xmlns:xlink="http://www.w3.org/1999/xlink" xml:space="preserve" xmlns:serif="http://www.serif.com/" style="fill-rule:evenodd;clip-rule:evenodd;stroke-linejoin:round;stroke-miterlimit:2;">
    <g transform="matrix(1,0,0,1,-790.674,-975.846)">
        <g transform="matrix(0.13841,0,0,0.13841,790.674,975.847)">
            <path d="M453.708,186.943L288.512,186.943C289.081,183.921 289.381,180.838 289.381,177.698L289.381,76.216C289.381,48.784 267.064,26.468 239.633,26.468L49.737,26.468C22.311,26.468 0,48.784 0,76.216L0,177.698C0,205.123 22.311,227.434 49.737,227.434L78.958,227.434L77.381,264.172C77.239,267.487 78.958,270.604 81.838,272.251C83.205,273.033 84.724,273.422 86.243,273.422C87.922,273.422 89.599,272.945 91.062,271.998L159.918,227.433L168.642,227.433C166.84,233.044 165.856,239.018 165.856,245.219L165.856,367.895C165.856,400.029 191.999,426.173 224.134,426.173L249.312,426.173L304.826,482.868C306.523,484.602 308.819,485.532 311.163,485.532C312.148,485.532 313.141,485.368 314.103,485.029C317.353,483.887 319.647,480.966 319.987,477.538L325.084,426.173L453.709,426.173C485.852,426.173 512.001,400.029 512.001,367.895L512.001,245.22C512,213.085 485.85,186.943 453.708,186.943ZM177.98,209.696L157.297,209.696C155.587,209.696 153.914,210.19 152.478,211.12L95.839,247.778L97.077,218.946C97.181,216.53 96.293,214.177 94.621,212.43C92.948,210.683 90.635,209.696 88.217,209.696L49.738,209.696C32.093,209.696 17.737,195.342 17.737,177.698L17.737,76.216C17.737,58.565 32.093,44.206 49.737,44.206L239.635,44.206C257.286,44.206 271.645,58.566 271.645,76.216L271.645,177.698C271.645,180.875 271.186,183.968 270.285,186.943L224.133,186.943C205.362,186.943 188.647,195.872 177.98,209.696ZM494.264,367.895C494.264,390.249 476.071,408.436 453.709,408.436L317.05,408.436C312.491,408.436 308.674,411.892 308.224,416.43L304.211,456.889L259.377,411.101C257.71,409.397 255.425,408.437 253.041,408.437L224.135,408.437C201.781,408.437 183.594,390.25 183.594,367.896L183.594,245.22C183.594,222.866 201.781,204.68 224.135,204.68L453.71,204.68L453.71,204.679C476.072,204.679 494.265,222.865 494.265,245.219L494.265,367.895L494.264,367.895Z" style="fill:rgb(64,64,64);fill-rule:nonzero;"/>
        </g>
        <g transform="matrix(0.13841,0,0,0.13841,790.674,975.847)">
            <path d="M183.31,93.756C182.104,74.343 166.555,58.794 147.142,57.589C136.335,56.921 126.056,60.617 118.193,68.007C110.439,75.294 105.994,85.573 105.994,96.208C105.993,101.108 109.962,105.078 114.862,105.078C119.762,105.078 123.731,101.107 123.731,96.209C123.731,90.363 126.078,84.939 130.34,80.932C134.598,76.93 140.176,74.927 146.042,75.291C156.371,75.932 164.964,84.525 165.606,94.853C166.09,102.655 162.26,110.03 155.609,114.102C143.218,121.687 135.82,134.795 135.82,149.167C135.82,154.065 139.79,158.036 144.689,158.036C149.588,158.036 153.558,154.065 153.558,149.167C153.558,141.018 157.787,133.566 164.87,129.23C177.135,121.723 184.202,108.129 183.31,93.756Z" style="fill:rgb(129,0,54);fill-rule:nonzero;"/>
        </g>
        <g transform="matrix(0.13841,0,0,0.13841,790.674,975.847)">
            <path d="M338.925,240.4C334.026,240.4 330.056,244.371 330.056,249.269L330.056,324.332C330.056,329.23 334.027,333.201 338.925,333.201C343.824,333.201 347.794,329.23 347.794,324.332L347.794,249.269C347.793,244.371 343.824,240.4 338.925,240.4Z" style="fill:rgb(129,0,54);fill-rule:nonzero;"/>
        </g>
        <g transform="matrix(0.13841,0,0,0.13841,790.674,975.847)">
            <circle cx="338.916" cy="364.068" r="8.869" style="fill:rgb(129,0,54);"/>
        </g>
        <g transform="matrix(0.13841,0,0,0.13841,790.674,975.847)">
            <circle cx="144.679" cy="182.046" r="8.869" style="fill:rgb(129,0,54);"/>
        </g>
    </g>
</svg>
