<?xml version="1.0" encoding="UTF-8" standalone="no"?>
<!DOCTYPE svg PUBLIC "-//W3C//DTD SVG 1.1//EN" "http://www.w3.org/Graphics/SVG/1.1/DTD/svg11.dtd">
<svg width="100%" height="100%" viewBox="0 0 800 800" version="1.1" xmlns="http://www.w3.org/2000/svg" xmlns:xlink="http://www.w3.org/1999/xlink" xml:space="preserve" xmlns:serif="http://www.serif.com/" style="fill-rule:evenodd;clip-rule:evenodd;stroke-linecap:round;stroke-linejoin:round;stroke-miterlimit:1.5;">
    <g transform="matrix(1,0,0,1,9,0)">
        <path d="M66.58,80.415C37.399,80.415 27.003,77.813 12.239,91.615C3.184,100.081 0,110.262 0,120.364C0,128.411 1.679,138.548 10.271,147.076C26.128,162.815 35.204,160.312 66.58,160.312L66.58,133.68L39.948,133.68C32.82,133.68 26.638,127.29 26.638,120.758C26.638,114.226 32.353,107.048 39.948,107.048L66.58,107.048L66.58,80.415Z" style="fill:rgb(129,0,54);"/>
        <g transform="matrix(1,0,0,1,0,145.925)">
            <path d="M66.58,80.415C37.399,80.415 27.003,77.813 12.239,91.615C3.184,100.081 0,110.262 0,120.364C0,128.411 1.679,138.548 10.271,147.076C26.128,162.815 35.204,160.312 66.58,160.312L66.58,133.68L39.948,133.68C32.82,133.68 26.638,127.29 26.638,120.758C26.638,114.226 32.353,107.048 39.948,107.048L66.58,107.048L66.58,80.415Z" style="fill:rgb(129,0,54);"/>
        </g>
        <g transform="matrix(1,0,0,1,0,279.21)">
            <path d="M66.58,80.415C37.399,80.415 27.003,77.813 12.239,91.615C3.184,100.081 0,110.262 0,120.364C0,128.411 1.679,138.548 10.271,147.076C26.128,162.815 35.204,160.312 66.58,160.312L66.58,133.68L39.948,133.68C32.82,133.68 26.638,127.29 26.638,120.758C26.638,114.226 32.353,107.048 39.948,107.048L66.58,107.048L66.58,80.415Z" style="fill:rgb(129,0,54);"/>
        </g>
        <g transform="matrix(1,0,0,1,0,425.709)">
            <path d="M66.58,80.415C37.399,80.415 27.003,77.813 12.239,91.615C3.184,100.081 0,110.262 0,120.364C0,128.411 1.679,138.548 10.271,147.076C26.128,162.815 35.204,160.312 66.58,160.312L66.58,133.68L39.948,133.68C32.82,133.68 26.638,127.29 26.638,120.758C26.638,114.226 32.353,107.048 39.948,107.048L66.58,107.048L66.58,80.415Z" style="fill:rgb(129,0,54);"/>
        </g>
        <g transform="matrix(1,0,0,1,0,558.994)">
            <path d="M66.58,80.415C37.399,80.415 27.003,77.813 12.239,91.615C3.184,100.081 0,110.262 0,120.364C0,128.411 1.679,138.548 10.271,147.076C26.128,162.815 35.204,160.312 66.58,160.312L66.58,133.68L39.948,133.68C32.82,133.68 26.638,127.29 26.638,120.758C26.638,114.226 32.353,107.048 39.948,107.048L66.58,107.048L66.58,80.415Z" style="fill:rgb(129,0,54);"/>
        </g>
    </g>
    <g transform="matrix(1,0,0,1.0056,0,-4.40862)">
        <path d="M679.382,384.931L679.382,17.822L80.172,17.822L80.172,787.086L679.382,787.086L679.382,695.165" style="fill:none;stroke:rgb(70,70,70);stroke-width:17.54px;"/>
    </g>
    <path d="M636.652,407.284C641.846,412.49 641.846,420.919 636.639,426.113C634.042,428.709 630.634,430.014 627.225,430.014C623.816,430.014 620.393,428.709 617.797,426.113L611.671,419.974C606.478,414.767 606.478,406.338 611.685,401.145C616.878,395.939 625.32,395.939 630.527,401.145L636.652,407.284ZM780.505,551.15C793.076,563.72 800,580.432 800,598.222C800,616.013 793.089,632.724 780.505,645.294C767.922,657.865 751.21,664.802 733.42,664.802C715.643,664.802 698.918,657.865 686.348,645.294L658.104,617.051L432.132,391.052C432.012,390.932 431.972,390.772 431.865,390.652C430.88,389.6 430.014,388.455 429.402,387.11L405.979,335.218L367.203,249.609C364.926,244.562 366.004,238.623 369.919,234.708C373.834,230.807 379.786,229.715 384.833,231.992L470.468,270.768C470.482,270.781 470.495,270.795 470.508,270.795L522.361,294.204C523.706,294.817 524.851,295.682 525.903,296.668C526.023,296.774 526.169,296.801 526.289,296.921L605.999,376.617C611.205,381.824 611.205,390.239 605.999,395.446C603.402,398.043 599.993,399.348 596.584,399.348C593.176,399.348 589.767,398.043 587.17,395.446L516.875,325.164L498.046,343.993L518.406,364.353L531.07,377.03L705.177,551.137L724.005,532.308L642.338,450.628C637.132,445.421 637.132,437.005 642.338,431.799C647.545,426.592 655.961,426.592 661.167,431.799L752.262,522.894L780.505,551.15ZM434.036,332.661L445.754,358.614L493.825,310.543L467.872,298.825L434.036,332.661ZM761.676,626.466C769.213,618.915 773.368,608.902 773.368,598.222C773.368,587.543 769.213,577.516 761.676,569.979L742.848,551.15L686.348,607.637L705.177,626.466C720.277,641.553 746.576,641.553 761.676,626.466ZM667.519,588.808L686.361,569.979L594.281,477.899L591.551,475.182L591.551,475.169L567.036,450.654C567.036,450.641 567.023,450.641 567.023,450.641L479.204,362.822L463.504,378.508L460.362,381.651L667.519,588.808ZM432.118,296.921L441.932,287.093L406.045,270.835L422.304,306.735L432.118,296.921Z" style="fill:rgb(70,70,70);"/>
    <g>
        <g>
            <g transform="matrix(0.707107,0.707107,-0.707107,0.707107,316.526,-194.317)">
                <path d="M391.667,92.116L391.667,204.14" style="fill:none;stroke:rgb(129,0,54);stroke-width:12.82px;"/>
            </g>
            <g transform="matrix(0,1,-1,0,677.337,-107.733)">
                <path d="M391.667,92.116L391.667,144.392" style="fill:none;stroke:rgb(129,0,54);stroke-width:12.82px;"/>
            </g>
            <g transform="matrix(-1,0,0,-1,784.082,570.013)">
                <path d="M391.667,92.116L391.667,204.14" style="fill:none;stroke:rgb(129,0,54);stroke-width:12.82px;"/>
            </g>
            <g transform="matrix(-0.707107,-0.707107,0.707107,-0.707107,467.486,762.523)">
                <path d="M391.667,92.116L391.667,204.14" style="fill:none;stroke:rgb(129,0,54);stroke-width:12.82px;"/>
            </g>
            <g transform="matrix(-1.11022e-16,-1,1,-1.11022e-16,107.493,675.6)">
                <path d="M391.667,92.116L391.667,204.14" style="fill:none;stroke:rgb(129,0,54);stroke-width:12.82px;"/>
            </g>
            <g transform="matrix(0.707107,-0.707107,0.707107,0.707107,-85.5957,360.402)">
                <path d="M391.667,92.116L391.667,204.14" style="fill:none;stroke:rgb(129,0,54);stroke-width:12.82px;"/>
            </g>
            <g transform="matrix(1,2.05391e-15,-2.05391e-15,1,0.748492,0.169564)">
                <path d="M391.667,92.116L391.667,204.14" style="fill:none;stroke:rgb(129,0,54);stroke-width:12.82px;"/>
            </g>
        </g>
        <g transform="matrix(1,0,0,1,-2.43811,-2.06822)">
            <path d="M480.006,460.193C454.423,472.745 425.658,479.795 395.261,479.795C288.848,479.795 202.454,393.401 202.454,286.988C202.454,180.575 288.848,94.181 395.261,94.181C501.674,94.181 588.068,180.575 588.068,286.988C588.068,303.169 586.07,318.887 582.308,333.909" style="fill:none;stroke:rgb(129,0,54);stroke-width:12.82px;"/>
        </g>
        <g transform="matrix(0.812223,0.812223,-0.812223,0.812223,291.619,-277.242)">
            <path d="M527.056,195.961L527.056,165.074L289.676,165.074L289.676,402.454L527.056,402.454L527.056,344.216" style="fill:none;stroke:rgb(70,70,70);stroke-width:11.16px;"/>
        </g>
        <g transform="matrix(1,0,0,1,0.19655,-1.77792)">
            <path d="M592.556,330.931L592.556,86.941L192.7,86.941L192.7,486.797L458.155,486.797" style="fill:none;stroke:rgb(70,70,70);stroke-width:12.82px;"/>
        </g>
    </g>
    <g transform="matrix(0.707107,-0.707107,0.707107,0.707107,-509.546,658.358)">
        <path d="M592.327,466.569C592.327,431.431 620.855,402.903 655.993,402.903C691.132,402.903 719.659,431.431 719.659,466.569M592.327,466.569L592.327,667.882L719.659,667.882L719.659,626.916M719.659,586.259L719.659,558.682M719.659,519.429L719.659,466.569M592.327,505.181L686.315,505.181" style="fill:none;stroke:rgb(70,70,70);stroke-width:23.42px;"/>
    </g>
    <g>
        <path d="M599.221,706.269L506.009,706.269C498.658,706.269 492.693,712.221 492.693,719.585C492.693,726.948 498.658,732.901 506.009,732.901L599.221,732.901C606.571,732.901 612.537,726.948 612.537,719.585C612.537,712.221 606.571,706.269 599.221,706.269Z" style="fill:rgb(70,70,70);fill-rule:nonzero;"/>
    </g>
</svg>
