<?xml version="1.0" encoding="utf-8"?>
<!-- Generator: Adobe Illustrator 25.4.1, SVG Export Plug-In . SVG Version: 6.00 Build 0)  -->
<svg version="1.1" id="Layer_1" xmlns="http://www.w3.org/2000/svg" xmlns:xlink="http://www.w3.org/1999/xlink" x="0px" y="0px"
	 viewBox="0 0 32 32" style="enable-background:new 0 0 32 32;" xml:space="preserve">
<style type="text/css">
	.st0{fill:#0090B7;}
</style>
<path class="st0" d="M28.9,11.2c-2.8,1.9-5.6,3.9-8.4,5.8c-1.2,0.8-3.1,2.4-4.6,2.4h0h0c-1.4,0-3.4-1.6-4.6-2.4
	c-2.8-1.9-5.6-3.9-8.3-5.8C1.8,10.3,0,8.3,0,6.7c0-1.8,0.9-3.2,2.9-3.2h26.3c1.6,0,2.9,1.3,2.9,2.9C32,8.3,30.5,10.1,28.9,11.2z
	 M32,25.7c0,1.6-1.3,2.9-2.9,2.9H2.9c-1.6,0-2.9-1.3-2.9-2.9V11.5c0.5,0.6,1.1,1.1,1.8,1.6c3,2,6,4,8.9,6.2c1.5,1.1,3.4,2.5,5.3,2.5
	h0h0c1.9,0,3.8-1.4,5.3-2.5c2.9-2.1,5.9-4.1,8.9-6.2c0.6-0.4,1.2-1,1.8-1.6V25.7z"/>
</svg>
