<?xml version="1.0" encoding="utf-8"?>
<!-- Generator: Adobe Illustrator 25.4.1, SVG Export Plug-In . SVG Version: 6.00 Build 0)  -->
<svg version="1.1" id="Layer_1" xmlns="http://www.w3.org/2000/svg" xmlns:xlink="http://www.w3.org/1999/xlink" x="0px" y="0px"
	 viewBox="0 0 32 32" style="enable-background:new 0 0 32 32;" xml:space="preserve">
<style type="text/css">
	.st0{fill:#0090B7;}
</style>
<path class="st0" d="M32,26c0,3.3-2.7,6-6,6H6c-3.3,0-6-2.7-6-6V6c0-3.3,2.7-6,6-6h20c3.3,0,6,2.7,6,6V26z M7.4,5.4
	c-1.6,0-2.7,1.1-2.7,2.5c0,1.4,1,2.5,2.7,2.5h0l0,0c1.7,0,2.7-1.1,2.7-2.5C10,6.5,9,5.4,7.4,5.4z M9.8,26.8V12.3H4.9v14.5H9.8z
	 M27.1,26.8v-8.3c0-4.4-2.4-6.5-5.5-6.5c-2.6,0-3.7,1.4-4.4,2.4h0v-2.1h-4.8c0,0,0.1,1.4,0,14.5h4.8v-8.1c0-0.4,0-0.9,0.1-1.2
	c0.4-0.9,1.1-1.7,2.5-1.7c1.7,0,2.4,1.3,2.4,3.3v7.7H27.1z"/>
</svg>
