<?xml version="1.0" encoding="utf-8"?>
<!-- Generator: Adobe Illustrator 25.4.1, SVG Export Plug-In . SVG Version: 6.00 Build 0)  -->
<svg version="1.1" id="Layer_1" xmlns="http://www.w3.org/2000/svg" xmlns:xlink="http://www.w3.org/1999/xlink" x="0px" y="0px"
	 viewBox="0 0 32 32" style="enable-background:new 0 0 32 32;" xml:space="preserve">
<style type="text/css">
	.st0{fill:#0090B7;}
</style>
<path class="st0" d="M26,14.4l-7.6,16.1C18,31.4,17,32,16,32s-2-0.6-2.4-1.5L6,14.4c-0.5-1.1-0.7-2.5-0.7-3.7C5.3,4.8,10.1,0,16,0
	s10.7,4.8,10.7,10.7C26.7,11.9,26.5,13.3,26,14.4z M16,5.3c-2.9,0-5.3,2.4-5.3,5.3S13.1,16,16,16s5.3-2.4,5.3-5.3S18.9,5.3,16,5.3z"
	/>
</svg>
