<?xml version="1.0" encoding="utf-8"?>
<!-- Generator: Adobe Illustrator 25.4.1, SVG Export Plug-In . SVG Version: 6.00 Build 0)  -->
<svg version="1.1" id="Layer_1" xmlns="http://www.w3.org/2000/svg" xmlns:xlink="http://www.w3.org/1999/xlink" x="0px" y="0px"
	 viewBox="0 0 32 32" style="enable-background:new 0 0 32 32;" xml:space="preserve">
<style type="text/css">
	.st0{fill:#0090B7;}
</style>
<g>
	<g>
		<path class="st0" d="M24.8,18.5c-3.7-1.2-5.2-2.7-5.2-2.7l-0.1,0.1c-1.1,1-2.3,1.6-3.4,1.6h-0.1c-1.1,0-2.3-0.6-3.4-1.6l-0.1-0.1
			c0,0-1.5,1.5-5.2,2.7c-5.4,2-3.8,10.3-3.8,10.4c0.2,0.9,0.3,1.2,0.4,1.3c5.5,2.4,19,2.4,24.5,0c0.1,0,0.2-0.4,0.4-1.3
			C28.6,28.8,30.3,20.6,24.8,18.5z"/>
		<path class="st0" d="M21.7,8L21.7,8c-0.4-0.3-0.3-0.3-0.3-0.3s0.5-2.7,0.1-4c-0.7-2-4.7-3.4-5.5-3.6c0,0-0.5-0.1-0.5-0.1
			c0,0-0.6-0.1-1.4,0.2c-0.5,0.2-3,1.3-3.7,3.5c-0.4,1.3,0.1,4,0.1,4s0,0-0.3,0.3l0,0c-0.2,0.2-0.2,1,0.1,1.7c0.2,0.8,0.5,1,0.5,1.2
			c0.6,3.1,2.9,5.7,5.2,5.7c2.3,0,4.4-2.6,5.1-5.7c0.1-0.2,0.3-0.4,0.5-1.2C21.9,8.9,21.9,8.2,21.7,8z"/>
	</g>
</g>
</svg>
