<?xml version="1.0" encoding="utf-8"?>
<!-- Generator: Adobe Illustrator 25.4.1, SVG Export Plug-In . SVG Version: 6.00 Build 0)  -->
<svg version="1.1" id="Layer_1" xmlns="http://www.w3.org/2000/svg" xmlns:xlink="http://www.w3.org/1999/xlink" x="0px" y="0px"
	 viewBox="0 0 32 32" style="enable-background:new 0 0 32 32;" xml:space="preserve">
<style type="text/css">
	.st0{fill:#0090B7;}
</style>
<path class="st0" d="M25.6,28.8c0,1.8-1.5,3.2-3.2,3.2H9.6c-1.8,0-3.2-1.5-3.2-3.2V3.2C6.4,1.5,7.8,0,9.6,0h12.8
	c1.8,0,3.2,1.5,3.2,3.2V28.8z M23.2,7.2c0-0.4-0.4-0.8-0.8-0.8H9.6c-0.4,0-0.8,0.4-0.8,0.8v17.6c0,0.4,0.4,0.8,0.8,0.8h12.8
	c0.4,0,0.8-0.4,0.8-0.8V7.2z M18,3.2h-4c-0.2,0-0.4,0.2-0.4,0.4S13.8,4,14,4h4c0.2,0,0.4-0.2,0.4-0.4S18.2,3.2,18,3.2z M16,26.8
	c-1.1,0-2,0.9-2,2c0,1.1,0.9,2,2,2s2-0.9,2-2C18,27.7,17.1,26.8,16,26.8z"/>
</svg>
