<?xml version="1.0" encoding="UTF-8" standalone="no"?>
<!DOCTYPE svg PUBLIC "-//W3C//DTD SVG 1.1//EN" "http://www.w3.org/Graphics/SVG/1.1/DTD/svg11.dtd">
<svg width="100%" height="100%" viewBox="0 0 673 255" version="1.1" xmlns="http://www.w3.org/2000/svg" xmlns:xlink="http://www.w3.org/1999/xlink" xml:space="preserve" xmlns:serif="http://www.serif.com/" style="fill-rule:evenodd;clip-rule:evenodd;stroke-linejoin:round;stroke-miterlimit:2;">
    <g id="Artboard1" transform="matrix(0.778679,0,0,0.60998,0,0)">
        <rect x="0" y="0" width="863" height="417" style="fill:none;"/>
        <g id="Layer1" transform="matrix(1.28181,0.10053,-0.0787504,1.63631,-106.493,-160.907)">
            <path d="M109.12,314.093C109.12,314.093 124.703,285.617 151.46,251.057C165.505,232.916 182.607,213.077 202.221,194.853C209.4,188.106 216.953,181.689 224.644,175.601C243.765,160.468 263.901,147.559 282.354,138.021C295.657,131.145 308.067,126.023 318.533,123.019C329.317,119.925 337.951,119.005 343.258,121.167C345.019,121.881 345.146,123.667 344.578,126.076C343.091,132.379 336.657,142.119 328.127,153.063C304.385,183.523 264.294,222.814 264.294,222.814C264.294,222.814 316.538,174.416 338.515,143.938C344.591,135.512 348.297,128.323 348.349,123.815C348.383,120.948 347.171,118.928 344.652,117.839C338.865,115.349 329.316,115.792 317.42,119.047C306.689,121.984 293.979,127.178 280.371,134.174C261.671,143.789 241.238,156.816 221.982,172.259C214.237,178.471 206.707,185.102 199.524,192.018C180.213,210.819 163.418,231.151 149.754,249.77C123.844,285.076 109.12,314.093 109.12,314.093Z" style="fill:white;"/>
            <path d="M267.395,179.882C262.227,185.76 256.946,192.273 251.722,199.199C248.434,203.558 245.168,208.05 241.985,212.646C239.886,215.677 237.815,218.737 235.823,221.837C232.802,226.536 229.945,231.304 227.164,235.986C224.637,240.241 222.188,244.437 219.894,248.541C218.866,250.379 217.873,252.2 216.918,254C214.528,258.505 212.339,262.845 210.311,266.917C201.385,284.846 195.835,297.497 195.835,297.497C195.835,297.497 203.744,283.539 215.436,264.234C217.351,261.071 219.369,257.774 221.427,254.339C222.265,252.94 223.097,251.513 223.94,250.07C226.635,245.463 229.434,240.69 232.319,235.848C235.099,231.182 238.006,226.481 240.85,221.724C244.636,215.391 248.362,209.008 252.183,202.854C257.258,194.678 262.325,186.865 267.395,179.882Z" style="fill:white;"/>
            <path d="M290.131,216.113C290.131,216.113 285.14,219.837 280.842,224.278C278.687,226.506 276.765,228.912 275.634,231.098C274.54,233.211 274.307,235.213 274.839,236.774C275.412,238.459 276.95,239.828 279.919,240.384C281.547,240.658 283.426,240.493 285.403,239.904C287.576,239.256 289.925,238.149 292.113,236.603C293.419,235.68 294.661,234.606 295.81,233.442C297.564,231.666 299.096,229.714 300.253,227.708C303.433,222.192 303.997,216.486 298.215,213.693C302.823,217.002 301.646,221.855 298.079,226.205C296.763,227.81 295.118,229.296 293.349,230.664C292.204,231.551 290.992,232.34 289.787,233.083C287.891,234.252 285.987,235.232 284.178,235.764C282.889,236.142 281.677,236.326 280.617,236.154C279.969,236.054 279.459,235.909 279.081,235.671C278.917,235.567 278.763,235.479 278.685,235.33C278.477,234.93 278.439,234.441 278.532,233.882C278.723,232.73 279.221,231.417 279.931,230.035C283.213,223.641 290.131,216.113 290.131,216.113Z" style="fill:white;"/>
            <path d="M320.209,216.726C319.743,216.658 319.479,216.605 319.479,216.605C318.914,216.496 318.328,216.619 317.855,216.947C317.382,217.275 317.061,217.779 316.965,218.347C316.965,218.347 315.188,228.866 314.779,232.63C314.643,233.885 314.771,234.714 314.845,234.907C315.124,235.629 318.009,237.749 319.085,234.351C319.294,233.692 319.643,232.322 320.167,230.009C320.68,227.688 321.631,224.691 322.872,221.219C326.49,221.358 331.766,221.024 335.919,218.564C336.252,218.367 336.579,218.157 336.897,217.934C336.81,218.159 336.731,218.38 336.66,218.597C335.874,220.976 336.122,222.889 337.159,223.875C338.002,224.675 339.605,225.194 342.299,224.411C348.64,222.566 354.689,219.019 359.102,215.241C359.045,216.735 359.178,218.057 359.573,218.997C359.734,219.401 360.193,219.597 360.596,219.436C361,219.275 361.196,218.816 361.035,218.412C360.592,217.248 360.654,215.463 360.977,213.528C362.981,211.57 364.507,209.612 365.393,207.859C366.243,206.179 366.529,204.651 366.23,203.425C365.957,202.307 365.413,201.825 364.958,201.671C364.532,201.527 364.049,201.546 363.551,201.868C362.867,202.31 361.946,203.723 361.18,205.685C360.544,207.315 359.966,209.322 359.58,211.326C358.998,211.874 358.37,212.423 357.704,212.967C353.438,216.453 347.563,219.718 341.444,221.291C340.658,221.493 339.846,221.473 339.562,221.458C339.558,221.391 339.555,221.302 339.558,221.237C339.572,220.959 339.644,220.653 339.739,220.319C340.582,217.38 343.57,213.062 345.723,210.217C346.194,209.778 346.668,209.226 347.144,208.56C347.675,207.867 347.979,207.454 348.1,207.276C348.281,207.009 348.354,206.832 348.377,206.769L348.406,206.687C350.419,203.379 349.549,200.384 345.631,204.329C345.558,204.371 345.484,204.419 345.409,204.475C345.352,204.517 345.232,204.602 345.085,204.764C344.935,204.929 344.417,205.586 343.701,206.557C343.514,206.795 343.332,207.007 343.153,207.19C343.074,207.271 342.959,207.363 342.869,207.429L342.746,207.331C342.549,207.171 342.347,206.955 342.125,206.693C341.603,206.091 340.78,205.846 340.014,206.065C339.248,206.285 338.679,206.928 338.556,207.715C337.963,211.328 336.099,213.557 333.774,214.909C330.851,216.609 327.27,217.032 324.423,217.03C327.145,209.887 330.779,201.405 334.825,193.022C341.495,179.205 349.179,165.643 355.472,158.764C358.36,155.601 360.806,153.805 362.791,152.818C366.761,150.845 368.862,152.107 368.862,152.107C368.872,152.113 368.885,152.11 368.891,152.1C368.897,152.09 368.894,152.077 368.885,152.071C368.885,152.071 366.802,150.67 362.632,152.476C360.552,153.377 357.956,155.078 354.838,158.154C348.132,164.781 339.61,178.048 332.234,191.697C327.505,200.45 323.224,209.339 320.209,216.726ZM364.121,204.442C363.905,204.753 363.668,205.127 363.488,205.489C363.091,206.292 362.693,207.258 362.327,208.307C362.719,207.783 363.055,207.269 363.329,206.77C363.798,205.917 364.099,205.133 364.121,204.442Z" style="fill:white;"/>
            <path d="M375.988,189.76C374.942,189.805 374.737,189.818 373.852,189.958C373.47,190.018 373.335,190.069 372.997,190.183C372.87,190.225 372.789,190.264 372.684,190.338C372.468,190.491 372.325,190.705 372.178,190.895C372.013,191.108 371.854,191.313 371.766,191.534C371.719,191.653 371.685,191.751 371.681,191.871C371.66,192.669 371.714,192.883 371.867,193.424C372.274,194.867 372.431,194.937 372.431,194.937C372.431,194.937 372.811,195.133 375.094,194.016C375.176,193.975 375.248,193.942 375.318,193.873C375.444,193.747 375.549,193.586 375.662,193.418C375.767,193.264 375.883,193.105 375.959,192.913C375.999,192.813 375.99,192.735 376.002,192.623C376.059,192.084 375.985,191.883 375.999,191.267C376.012,190.612 375.968,190.488 375.988,189.76Z" style="fill:white;"/>
            <path d="M379.501,199.099C376.498,198.792 372.388,201.382 369.466,204.724C368.202,206.17 367.213,207.759 366.655,209.323C365.676,212.068 366.13,214.679 367.748,216.415C368.962,217.718 371.03,218.656 374.272,218.609C377.785,218.459 380.449,217.267 382.404,215.694C386.018,212.788 387.217,208.773 387.217,208.773C387.475,208.028 387.078,207.214 386.333,206.957C385.588,206.7 384.774,207.096 384.517,207.842C384.517,207.842 383.273,210.818 380.291,212.823C378.783,213.837 376.798,214.545 374.255,214.457C372.595,214.447 371.482,214.173 370.862,213.505C370.504,213.12 370.403,212.605 370.404,212.04C370.405,211.547 370.487,211.023 370.61,210.474C370.77,209.763 370.955,209.018 371.244,208.263C372.868,204.031 376.338,199.64 379.501,199.099Z" style="fill:white;"/>
            <path d="M388.146,209.407C390.408,204.74 394.352,197.607 399.079,189.773C400.704,187.081 402.412,184.303 404.15,181.496C405.849,178.753 407.561,175.981 409.312,173.268C413.741,166.404 418.287,159.909 422.595,154.929C424.222,153.037 425.807,151.617 427.235,150.555C430.502,148.123 432.902,147.562 432.902,147.562C432.902,147.562 430.425,147.901 426.891,150.043C425.321,150.994 423.555,152.299 421.699,154.082C415.443,160.152 408.417,168.717 402.097,177.541C400.901,179.211 399.736,180.891 398.622,182.576C395.857,186.76 393.354,190.919 391.145,194.733C388.403,199.467 386.136,203.691 384.634,206.939C383.38,209.65 382.645,211.73 382.439,212.883C382.009,215.289 383.418,216.142 384.411,216.18C384.863,216.198 385.728,216.073 386.717,215.166C391.95,210.258 397.662,206.448 402.903,203.496C412.975,197.823 421.282,195.359 421.261,194.937C421.24,195.362 412.635,196.944 401.994,201.69C397.556,203.669 392.798,206.208 388.146,209.407Z" style="fill:white;"/>
            <path d="M397.866,206.245C397.866,206.245 400.711,209.631 406.135,212.508C407.975,213.485 410.109,214.437 412.543,215.058C412.876,215.143 413.213,215.224 413.56,215.269C414.358,215.373 415.151,215.402 415.994,215.384C418.521,215.331 421.028,214.955 423.848,214.178C422.464,213.928 421.259,213.6 420.002,213.247C418.021,212.691 416.353,211.931 414.644,211.283C414.256,211.136 413.867,211.02 413.482,210.901C411.816,210.389 410.27,209.866 408.882,209.272C403.419,206.933 400.276,203.986 400.276,203.986C399.653,203.321 398.607,203.288 397.942,203.911C397.277,204.534 397.243,205.58 397.866,206.245Z" style="fill:white;"/>
            <path d="M309.048,211.914C309.048,211.914 306.872,213.388 304.263,215.774C302.817,217.097 301.323,218.644 299.988,220.36C299.704,220.724 299.443,221.096 299.199,221.482C298.821,222.081 298.507,222.708 298.22,223.328C297.36,225.189 296.878,227.069 296.837,228.771C296.842,229.884 296.899,230.859 297.138,231.671C297.767,233.811 298.907,235.112 300.413,235.612C301.461,235.961 302.637,236.075 303.967,235.66C305.703,235.118 307.623,233.955 309.695,232.125C306.814,233.233 304.451,233.616 302.704,233.198C301.817,232.986 301.492,232.27 301.277,231.233C301.143,230.587 301.095,229.811 301.158,228.872C301.185,227.378 301.869,225.764 302.607,224.074C303.107,222.929 303.6,221.759 304.156,220.614C306.429,215.927 309.048,211.914 309.048,211.914Z" style="fill:white;"/>
        </g>
        <g id="Layer2" transform="matrix(1.28181,0.10053,-0.0787504,1.63631,-106.493,-160.907)">
            <path d="M526.366,192.974C526.445,193.256 526.558,193.526 526.703,193.779C527.276,194.778 528.381,195.622 530.195,196.036C532.972,196.67 536.973,195.175 540.879,192.838C542.583,191.82 544.274,190.656 545.837,189.491C544.922,192.106 545.317,194.552 548.781,195.72C549.214,195.87 549.686,195.64 549.835,195.207C549.985,194.774 549.755,194.302 549.322,194.153C547.664,193.567 547.076,192.573 547.175,191.387C547.265,190.305 547.8,189.125 548.519,187.997C550.238,189.633 551.166,190.445 551.496,190.693C551.807,190.929 552.033,190.995 552.116,191.016C552.976,191.233 553.417,190.779 553.644,190.415C553.728,190.28 554.172,189.539 553.502,188.725C553.386,188.584 553.1,188.284 552.672,187.882C552.167,187.409 551.446,186.77 550.588,186.069L550.404,185.891L550.358,185.846C551.156,185.15 551.83,184.529 552.339,184.032C553.168,183.225 553.592,182.616 553.642,182.446C553.753,182.066 553.644,181.802 553.538,181.636C553.372,181.375 553.022,181.016 552.379,181.24C552.225,181.293 551.842,181.521 551.353,181.95C550.735,182.493 549.838,183.391 548.931,184.473C544.825,180.751 540.9,180.068 537.222,181.012C532.854,182.132 528.767,185.766 525.05,189.705C521.432,193.539 518.184,197.659 515.256,199.446C510.468,202.37 506.054,203.994 501.701,204.793C498.479,205.385 495.291,205.523 492.012,205.406C498.349,200.401 509.369,190.681 521.818,178.829C537.192,164.194 554.767,146.302 568.518,130.274C579.228,117.791 587.599,106.382 590.934,98.439C593.052,93.392 593.066,89.473 591.301,87.132C589.417,84.635 586.137,83.423 581.618,83.74C574.056,84.269 562.504,89.125 549.175,97.07C525.114,111.412 495.004,135.741 471.759,160.998C458.48,175.462 447.5,190.407 438.775,203.886C421.519,230.546 413.085,251.452 413.085,251.452C412.911,251.876 413.113,252.36 413.536,252.535C413.959,252.709 414.444,252.506 414.618,252.083C414.618,252.083 423.274,231.437 440.756,205.186C449.58,191.935 460.654,177.256 474.004,163.087C493.509,142.344 517.806,122.346 539.236,108.146C555.331,97.481 569.762,90.078 579.314,88.338C581.653,87.912 583.66,87.827 585.276,88.195C586.387,88.449 587.281,88.92 587.877,89.712C588.298,90.272 588.385,91.031 588.324,91.931C588.231,93.307 587.749,94.93 586.973,96.774C583.747,104.444 575.576,115.4 565.243,127.465C551.59,143.406 534.127,161.183 518.936,175.82C503.27,190.915 490.047,202.666 485.812,205.331C485.133,205.755 484.799,206.565 484.984,207.344C485.17,208.123 485.832,208.697 486.63,208.769C492.101,209.23 497.198,209.295 502.363,208.282C507.083,207.356 511.861,205.542 517.023,202.3C519.29,200.875 521.762,198.176 524.399,195.193C525.043,194.465 525.699,193.719 526.366,192.974ZM542.974,184.12C540.034,183.1 537.268,183.797 534.666,185.396C532.801,186.542 531.019,188.104 529.311,189.823C528.6,190.878 528.276,191.86 528.712,192.646C529.025,193.21 529.7,193.591 530.713,193.837C533.076,194.411 536.446,192.966 539.808,191.019C542.208,189.628 544.589,187.945 546.604,186.381C545.443,185.53 544.188,184.715 542.974,184.12Z" style="fill:white;"/>
            <path d="M549.117,131.204C549.117,131.204 552.742,125.797 553.418,122.403C553.808,120.444 553.275,119.122 550.988,119.41C550.509,119.47 549.634,120.115 548.442,121.347C545.278,124.617 539.484,132.085 531.716,142.314C526.31,149.432 519.93,157.863 512.841,167.166C510.228,170.595 507.511,174.134 504.743,177.794C496.344,188.899 487.216,200.899 477.554,213.026C475.714,215.334 473.864,217.654 472.009,219.984C467.721,225.371 463.383,230.785 458.961,236.133C445.056,252.95 430.483,269.16 415.756,282.765C430.202,270.725 444.698,256.461 458.539,241.398C464.311,235.116 469.99,228.725 475.446,222.253C478.346,218.813 481.165,215.338 483.938,211.879C490.659,203.492 497.056,195.157 503.059,187.14C505.4,184.013 507.687,180.938 509.88,177.905C511.402,175.802 512.872,173.716 514.313,171.666C522.793,159.606 530.124,148.776 536.017,140.182C542.239,131.108 546.811,124.532 549.393,121.654C550.194,120.761 550.746,120.222 551.103,120.157C552.753,119.858 553.103,120.875 552.896,122.314C552.412,125.692 549.117,131.204 549.117,131.204Z" style="fill:white;"/>
            <path d="M568.21,177.723C568.21,177.723 564.703,179.323 561.717,181.724C560.151,182.983 558.863,184.479 558.113,185.995C557.6,187.03 557.456,188.105 557.556,189.145C557.604,189.653 557.774,190.145 557.995,190.63C558.381,191.475 559.043,192.274 560.019,193.007C562.706,194.922 565.518,195.022 568.067,193.738C568.681,193.429 569.265,193.041 569.821,192.575C570.945,191.634 571.978,190.512 572.88,189.258C575.371,185.79 576.891,181.881 577.156,181.269C576.623,181.898 572.515,186.966 568.031,189.293C567.399,189.621 566.754,189.831 566.125,190.026C564.933,190.397 563.73,190.411 562.557,189.537C562.09,189.209 561.785,188.882 561.677,188.48C561.59,188.153 561.502,187.821 561.562,187.461C561.647,186.946 561.769,186.409 562.005,185.867C563.742,181.874 568.21,177.723 568.21,177.723Z" style="fill:white;"/>
            <path d="M607.057,127.645C607.057,127.645 594.075,145.204 584.588,161.706C581.332,167.369 578.49,172.905 576.722,177.57C574.896,182.388 574.311,186.396 574.99,188.789C575.372,190.136 576.111,191.125 577.153,191.771C578.001,192.296 579.09,192.601 580.469,192.549C584.191,192.397 587.734,190.85 590.813,188.71C593.078,187.136 595.104,185.269 596.741,183.474C597.283,182.88 597.784,182.296 598.241,181.739C598.409,182.783 598.673,183.814 599.079,184.68C599.858,186.345 601.066,187.51 602.826,187.649C604.509,187.782 606.312,187.02 607.903,185.559C608.888,184.655 609.81,183.508 610.588,182.26C610.65,182.394 610.717,182.525 610.79,182.649C611.34,183.586 612.159,184.241 613.364,184.088C613.968,184.01 615.177,183.338 616.664,182.232C619.639,180.018 624.029,176.189 627.331,173.838C628.898,172.722 630.213,171.943 631.011,171.835C630.199,171.878 628.811,172.554 627.142,173.548C623.665,175.619 618.986,179.072 615.846,181.034C614.621,181.798 613.689,182.346 613.215,182.367C612.664,182.394 612.474,181.872 612.315,181.389C611.982,180.378 612.051,179.17 612.051,179.17C612.054,178.669 611.706,178.233 611.216,178.125C610.727,178.017 610.228,178.266 610.02,178.722C609.254,180.248 608.163,181.746 606.953,182.9C605.735,184.061 604.412,184.89 603.171,184.697C602.807,184.641 602.576,184.386 602.377,184.097C602.09,183.679 601.931,183.135 601.801,182.557C601.203,179.896 601.765,176.437 601.765,176.437C601.868,175.568 601.357,174.742 600.533,174.446C599.709,174.15 598.789,174.462 598.316,175.199C598.316,175.199 596.525,177.728 593.707,180.608C592.2,182.148 590.405,183.802 588.384,185.18C585.957,186.834 583.215,188.124 580.3,188.233C579.901,188.249 579.578,188.252 579.366,188.064C578.938,187.686 578.966,186.985 578.998,186.12C579.075,184.014 579.892,181.213 581.087,177.952C581.724,176.212 582.461,174.348 583.287,172.399C586.296,165.294 590.44,157.125 594.446,149.724C600.981,137.653 607.057,127.645 607.057,127.645Z" style="fill:white;"/>
            <path d="M638.278,162.136C634.826,166.014 632.313,168.745 632.313,168.745C632.173,168.892 632.178,169.126 632.326,169.267C632.473,169.408 632.707,169.402 632.848,169.255C632.848,169.255 634.401,167.686 636.76,165.247C633.704,171.59 631.2,177.42 630.839,181.222C630.657,183.137 630.998,184.636 631.789,185.624C632.453,186.454 633.423,187.021 634.814,187.137C635.632,187.205 636.595,186.964 637.616,186.353C638.825,185.628 640.2,184.391 641.576,182.861C643.93,180.244 646.351,176.793 648.165,174.028C647.994,175.213 647.985,176.368 648.316,177.236C648.898,178.76 650.434,179.667 653.872,178.309C654.063,178.239 654.162,178.027 654.092,177.835C654.022,177.644 653.81,177.545 653.619,177.615C650.905,178.523 649.68,178.096 649.298,176.893C648.479,174.315 651.156,169.231 651.156,169.231C651.333,168.859 651.188,168.414 650.826,168.216C650.464,168.019 650.012,168.138 649.794,168.488C649.794,168.488 645.638,174.751 641.358,179.518C639.783,181.271 638.199,182.818 636.802,183.724C636.152,184.146 635.591,184.444 635.107,184.381C634.172,184.263 633.815,183.632 633.756,182.718C633.69,181.691 633.927,180.406 634.348,178.917C635.72,174.06 639.086,167.304 642.495,160.499C642.945,159.573 643.418,158.65 643.91,157.738C647.99,153.376 652.374,148.539 655.487,144.699C657.87,141.759 659.495,139.34 659.838,138.101C660.109,137.119 659.769,136.486 659.302,136.143C658.934,135.871 658.213,135.729 657.271,136.258C656.071,136.932 653.874,138.999 651.328,141.982C647.624,146.324 643.124,152.634 639.767,159.135C639.268,160.137 638.77,161.139 638.278,162.136ZM656.519,139.862C654.722,141.69 652.319,144.645 649.831,148.191C649.191,149.102 648.546,150.053 647.905,151.034C648.2,150.683 648.494,150.331 648.785,149.981C652.014,146.093 654.903,142.409 656.519,139.862Z" style="fill:white;"/>
            <g transform="matrix(1,0,0,1,-2.68453,-3.39252)">
                <path d="M656.3,165.896C656.3,165.896 656.852,166.085 659.225,165.938C659.331,165.931 659.415,165.941 659.519,165.902C659.7,165.834 659.869,165.717 660.049,165.603C660.215,165.497 660.397,165.396 660.547,165.244C660.627,165.163 660.647,165.082 660.703,164.978C661.249,163.956 661.226,163.498 661.924,162.294C660.8,161.88 660.49,161.806 659.468,161.604C659.214,161.554 659.097,161.563 658.85,161.55C658.706,161.543 658.61,161.545 658.474,161.578C658.202,161.644 657.977,161.808 657.756,161.943C657.515,162.092 657.274,162.23 657.105,162.423C657.012,162.529 656.956,162.615 656.904,162.738C656.605,163.447 656.527,163.703 656.437,164.263C656.216,165.651 656.3,165.896 656.3,165.896Z" style="fill:white;"/>
            </g>
            <path d="M661.139,172.876C661.139,172.876 655.715,176.361 655.115,178.694C654.819,179.848 655.417,180.883 657.97,181.207C661.492,181.639 672.299,179.561 682.96,176.901C686.304,176.067 689.626,175.178 692.692,174.273C698.782,172.474 703.873,170.702 706.26,169.782C707.734,170.65 708.228,172.18 708.866,173.585C709.676,175.367 710.568,177.084 712.168,178.265C713.536,179.275 715.406,179.985 718.247,179.88C724.194,179.599 735.529,177.78 744.726,176.873C749.398,176.412 753.492,176.184 756.034,176.558C753.525,175.922 749.398,175.712 744.669,175.713C735.504,175.714 724.144,176.496 718.247,176.218C716.549,176.155 715.441,175.738 714.662,175.085C714.099,174.613 713.753,173.999 713.43,173.365C713.002,172.523 712.657,171.62 712.259,170.745C711.244,168.513 709.896,166.498 707.082,165.427C706.565,165.232 705.993,165.244 705.484,165.46C703.594,166.269 696.853,168.403 689.048,170.993C683.627,172.792 677.731,174.861 672.432,176.502C665.926,178.517 660.42,180.031 658.062,179.975C656.844,179.949 656.2,179.782 656.012,179.323C655.853,178.935 656.023,178.443 656.325,177.902C657.578,175.661 661.139,172.876 661.139,172.876Z" style="fill:white;"/>
        </g>
    </g>
</svg>
