<?xml version="1.0" encoding="UTF-8" standalone="no"?><!DOCTYPE svg PUBLIC "-//W3C//DTD SVG 1.1//EN" "http://www.w3.org/Graphics/SVG/1.1/DTD/svg11.dtd"><svg width="100%" height="100%" viewBox="0 0 68 68" version="1.1" xmlns="http://www.w3.org/2000/svg" xmlns:xlink="http://www.w3.org/1999/xlink" xml:space="preserve" xmlns:serif="http://www.serif.com/" style="fill-rule:evenodd;clip-rule:evenodd;stroke-linejoin:round;stroke-miterlimit:2;"><g id="Icon--Work-" serif:id="Icon (Work)"><path d="M33.708,-0c-18.587,-0 -33.708,15.121 -33.708,33.708c-0,18.563 15.121,33.667 33.708,33.667c18.588,-0 33.709,-15.104 33.709,-33.667c-0,-18.587 -15.121,-33.708 -33.709,-33.708m0,4.167c16.292,-0 29.542,13.208 29.542,29.541c-0,16.292 -13.25,29.5 -29.542,29.5c-16.291,0 -29.541,-13.208 -29.541,-29.5c-0,-16.333 13.25,-29.541 29.541,-29.541" style="fill:#58595b;fill-rule:nonzero;"/><path d="M38.041,20.044l-8.667,0l0,-3.917l8.667,0l-0,3.917Zm12.958,0l-8.666,0l-0,-3.916c-0,-2.125 -1.917,-3.876 -4.292,-3.876l-8.667,0c-2.375,0 -4.291,1.751 -4.291,3.876l-0,3.916l-8.667,0c-2.375,0 -4.292,1.708 -4.292,3.875l-0.041,21.375c-0,2.167 1.958,3.917 4.333,3.917l34.583,-0c2.375,-0 4.334,-1.75 4.334,-3.917l-0,-21.375c-0,-2.167 -1.959,-3.875 -4.334,-3.875" style="fill:#bfbfbf;fill-rule:nonzero;"/></g></svg>