<?xml version="1.0" encoding="utf-8"?>
<!-- Generator: Adobe Illustrator 25.4.1, SVG Export Plug-In . SVG Version: 6.00 Build 0)  -->
<svg version="1.1" id="Layer_1" xmlns="http://www.w3.org/2000/svg" xmlns:xlink="http://www.w3.org/1999/xlink" x="0px" y="0px"
	 viewBox="0 0 32 32" style="enable-background:new 0 0 32 32;" xml:space="preserve">
<style type="text/css">
	.st0{fill:#0090B7;}
</style>
<path class="st0" d="M32,26c0,3.3-2.7,6-6,6H6c-3.3,0-6-2.7-6-6V6c0-3.3,2.7-6,6-6h20c3.3,0,6,2.7,6,6V26z M11.6,8.6
	c-0.2-0.3-0.5-0.7-1.1-0.7H6.7C6.5,7.9,6.3,8,6.2,8.2c-0.1,0.2-0.1,0.4,0,0.6l2.6,4.5c0,0,0,0,0,0l-4.1,7.2c-0.1,0.2-0.1,0.4,0,0.6
	c0.1,0.2,0.3,0.3,0.5,0.3h3.9c0.6,0,0.9-0.4,1-0.8c4-7.1,4.1-7.3,4.1-7.3S14.3,13.2,11.6,8.6z M26.8,2.7h-3.9c-0.6,0-0.8,0.4-1,0.7
	c-8.3,14.7-8.6,15.2-8.6,15.2s0,0,5.5,10c0.2,0.3,0.5,0.7,1.1,0.7h3.8c0.2,0,0.4-0.1,0.5-0.2c0.1-0.2,0.1-0.4,0-0.6l-5.4-9.9v0
	l8.5-15.1c0.1-0.2,0.1-0.4,0-0.6C27.2,2.8,27,2.7,26.8,2.7z"/>
</svg>
