<?xml version="1.0" encoding="UTF-8" standalone="no"?>
<!DOCTYPE svg PUBLIC "-//W3C//DTD SVG 1.1//EN" "http://www.w3.org/Graphics/SVG/1.1/DTD/svg11.dtd">
<svg width="100%" height="100%" viewBox="0 0 71 71" version="1.1" xmlns="http://www.w3.org/2000/svg" xmlns:xlink="http://www.w3.org/1999/xlink" xml:space="preserve" xmlns:serif="http://www.serif.com/" style="fill-rule:evenodd;clip-rule:evenodd;stroke-linejoin:round;stroke-miterlimit:2;">
    <g transform="matrix(1,0,0,1,-601.434,-975.846)">
        <g id="DesignThinking.svg" transform="matrix(0.0708661,0,0,0.0708661,636.867,1011.28)">
            <g transform="matrix(1,0,0,1,-500,-500)">
                <g>
                    <g transform="matrix(0.1,0,0,-0.1,0,511)">
                        <path d="M4869.6,4994.6C3798,4891.8 2793.6,4286.8 2182.7,3377.4C1720.1,2689.4 1506.5,1892.6 1569.8,1099.8L1593.5,811.1L1067.6,-132C777,-650 543.7,-1081 549.6,-1086.9C557.5,-1092.8 818.5,-1171.9 1130.9,-1260.9L1700.3,-1423L1706.2,-2395.7L1710.2,-3366.4L3291.8,-3366.4L3291.8,-4790L3608.2,-4790L3608.2,-3050.2L2026.6,-3050.2L2026.6,-1193.8L1953.4,-1172C1494.7,-1045.5 1008.4,-895.2 1012.3,-879.4C1014.3,-869.5 1219.9,-495.8 1469,-51L1923.7,759.6L1894,975.2C1856.4,1259.9 1870.3,1688.9 1927.6,1981.5C2317.1,3960.6 4302.1,5144.8 6217.9,4537.9C6558,4431.1 7024.6,4178.1 7265.8,3970.5L7335,3911.2L7066.1,3642.3L6799.2,3373.4L6700.3,3432.7C6524.3,3539.5 6370.1,3581 6138.8,3581C5976.7,3581 5903.5,3571.1 5808.6,3537.5L5688,3494L5567.4,3575.1C5177.9,3834.1 4715.3,3794.6 4377.2,3470.3L4276.4,3373.4L4153.8,3403.1C3833.5,3484.2 3521.1,3391.2 3270,3140.2C3092.1,2962.3 2975.4,2703.3 2975.4,2487.8C2975.4,2438.4 2959.6,2422.6 2862.7,2375.1C2621.5,2252.5 2406,1956 2358.5,1681.1C2328.8,1499.2 2360.5,1315.3 2459.3,1107.7C2526.5,963.4 2530.5,947.6 2512.7,848.7C2489,708.3 2526.5,504.7 2605.6,344.5C2680.7,194.2 2888.3,-19.3 3028.7,-92.4C3248.1,-203.1 3437.9,-226.8 3669.3,-169.5C3793.9,-139.9 3807.7,-139.9 3841.3,-169.5C3900.6,-224.9 4128,-319.8 4250.6,-343.5C4408.8,-373.2 4588.7,-353.4 4744.9,-292.1L4875.4,-238.7L4918.9,-296C5124.5,-562.9 5500.2,-719.1 5806.6,-661.8C5998.4,-626.2 6204,-515.5 6348.3,-369.2L6471,-242.7L6605.4,-294.1C6955.4,-424.6 7315.2,-343.5 7588,-70.7C7831.2,172.5 7928.1,500.7 7849,809.1L7817.4,927.7L7878.7,1022.6C8108,1380.5 8080.4,1805.5 7805.5,2143.6L7716.5,2252.3L7959.7,2497.5C8094.2,2631.9 8208.8,2742.7 8214.8,2742.7C8234.6,2742.7 8367,2369 8412.5,2189.1C8487.6,1894.5 8511.4,1639.5 8511.4,1081.9C8511.4,793.2 8501.5,478.9 8491.6,380C8426.4,-177.5 8232.6,-754.8 7957.8,-1201.7C7718.6,-1593.2 7337,-2010.3 6973.2,-2279.2L6771.5,-2427.5L6771.5,-4790L7087.9,-4790L7087.9,-2585.6L7230.3,-2476.9C7416.1,-2334.5 7740.4,-2014.3 7898.5,-1814.6C8365.1,-1225.4 8663.6,-543.3 8782.3,200C8833.7,526.2 8833.7,1631.4 8782.3,1941.8C8734.8,2220.6 8634,2566.6 8533.2,2801.8L8452.2,2987.6L8887.2,3424.5C9268.8,3810 9328.1,3877.3 9385.4,3999.8C9440.8,4118.4 9450.6,4158 9450.6,4294.4C9450.6,4434.8 9442.7,4468.4 9387.3,4583.1C9310.2,4741.3 9167.8,4879.7 9009.7,4952.8C8916.8,4996.3 8869.3,5006.2 8738.8,5006.2C8602.4,5006.2 8562.8,4996.3 8444.2,4941C8325.6,4885.6 8256.4,4826.3 7938.1,4512C7736.4,4310.3 7560.5,4146.2 7548.6,4146.2C7538.7,4146.2 7513,4166 7491.3,4187.7C7422.1,4264.8 6987.1,4541.6 6783.5,4640.5C6174.4,4933.3 5508.2,5055.9 4869.6,4994.6ZM8972,4640.7C9078.8,4567.5 9128.2,4480.5 9138.1,4338.2C9151.9,4184 9120.3,4110.8 8995.7,3988.3L8906.7,3899.3L8626,4182L8343.3,4462.7L8432.3,4553.7C8552.9,4678.3 8612.2,4702 8772.4,4694.1C8871.2,4688.2 8924.6,4674.3 8972,4640.7ZM8402.6,3948.7L8679.4,3671.9L8594.4,3588.9L8511.4,3503.9L8230.6,3784.7L7949.9,4067.4L8027,4146.5C8068.5,4190 8110,4225.6 8116,4225.6C8122,4225.6 8250.4,4101 8402.6,3948.7ZM7809.5,3751L7888.6,3671.9L6815,2598.4L5743.4,1526.8L5660.4,1611.8L5575.4,1694.8L6643,2762.5C7230.2,3349.7 7714.6,3830.1 7720.5,3830.1C7726.5,3830.1 7768,3794.5 7809.5,3751ZM5308.5,3377.4C5357.9,3351.7 5446.9,3278.5 5508.2,3213.3L5618.9,3094.7L5715.8,3154C5941.2,3292.4 6237.8,3314.2 6465.1,3209.4L6581.8,3156L5964.9,2539.2L5348,1922.2L5249.2,2021.1L5150.3,2120L4922.9,1892.6L5630.7,1186.8L6336.5,479L6563.9,706.4L6465,805.3L6366.2,904.2L6929.7,1467.7L7491.2,2031.2L7548.5,1975.8C7580.1,1946.1 7629.6,1878.9 7657.2,1823.6C7704.7,1736.6 7710.6,1703 7710.6,1536.9C7710.6,1319.4 7679,1240.3 7528.7,1080.2L7439.7,985.3L7497.1,870.6C7544.5,769.8 7552.5,734.2 7552.5,578C7552.5,421.8 7544.6,386.2 7495.2,285.4C7388.5,64 7157.1,-58.6 6888.2,-40.8C6724.1,-28.9 6621.3,20.5 6463.1,162.8L6340.5,269.6L6277.2,97.6C6162.5,-204.9 5954.9,-361.1 5666.3,-361.1C5605,-361.1 5522,-351.2 5482.4,-341.3C5377.6,-311.7 5229.3,-204.9 5164.1,-110L5106.8,-29L5156.2,38.2C5241.2,152.9 5308.4,305.1 5332.2,449.4C5411.3,906.1 5083.1,1382.6 4606.6,1507.1C4399,1560.5 4399,1560.5 4399,1380.6L4399,1226.4L4501.8,1214.5C4802.3,1178.9 5006,953.5 5027.7,635.2C5041.6,419.7 4996.1,287.2 4859.7,156.8C4727.2,24.2 4614.5,-25.2 4432.6,-39.1C4236.9,-52.9 4102.4,-1.5 3960.1,140.8L3855.3,247.6L3736.7,184.3C3629.9,128.9 3600.3,123 3440.1,123C3293.8,123 3246.3,132.9 3169.2,168.5C2898.4,303 2764,609.4 2845,911.9L2880.6,1038.4L2791.6,1157C2684.8,1303.3 2649.2,1431.8 2667,1601.8C2696.7,1864.8 2852.8,2058.5 3100,2131.7C3341.2,2206.8 3560.7,2159.4 3730.7,1995.3L3803.8,1926.1L3878.9,1977.5C3920.4,2007.2 3975.8,2048.7 4003.5,2070.4L4052.9,2109.9L3940.2,2218.6C3801.8,2349.1 3621.9,2436.1 3432.1,2469.7L3287.8,2493.4L3299.7,2582.4C3327.4,2786 3459.8,2971.9 3643.7,3062.8C3720.8,3100.4 3768.3,3108.3 3914.6,3108.3C4070.8,3106.3 4106.4,3100.4 4201.3,3051C4260.6,3021.3 4337.7,2975.9 4373.3,2948.2C4452.4,2888.9 4535.4,2720.8 4551.2,2588.4L4563.1,2485.6L4717.3,2485.6C4895.2,2485.6 4891.3,2479.7 4851.7,2667.5C4822,2807.9 4713.3,3011.5 4612.5,3116.3L4527.5,3203.3L4612.5,3278.4C4743,3393.1 4871.5,3436.6 5061.3,3428.7C5176,3422.8 5243.2,3409 5308.5,3377.4ZM8204.9,3355.6L8284,3276.5L7210.4,2203L6138.9,1131.4L6055.9,1216.4L5970.9,1299.4L7038.5,2367C7625.7,2954.2 8110.1,3434.6 8116,3434.6C8121.9,3434.6 8163.4,3399.1 8204.9,3355.6Z" style="fill:rgb(64,64,64);fill-rule:nonzero;"/>
                    </g>
                    <g transform="matrix(0.1,0,0,-0.1,0,511)">
                        <path d="M6799.2,3373.4L6700.3,3432.7C6524.3,3539.5 6370.1,3581 6138.8,3581C5976.7,3581 5903.5,3571.1 5808.6,3537.5L5688,3494L5567.4,3575.1C5177.9,3834.1 4715.3,3794.6 4377.2,3470.3L4276.4,3373.4L4153.8,3403.1C3833.5,3484.2 3521.1,3391.2 3270,3140.2C3092.1,2962.3 2975.4,2703.3 2975.4,2487.8C2975.4,2438.4 2959.6,2422.6 2862.7,2375.1C2621.5,2252.5 2406,1956 2358.5,1681.1C2328.8,1499.2 2360.5,1315.3 2459.3,1107.7C2526.5,963.4 2530.5,947.6 2512.7,848.7C2489,708.3 2526.5,504.7 2605.6,344.5C2680.7,194.2 2888.3,-19.3 3028.7,-92.4C3248.1,-203.1 3437.9,-226.8 3669.3,-169.5C3793.9,-139.9 3807.7,-139.9 3841.3,-169.5C3900.6,-224.9 4128,-319.8 4250.6,-343.5C4408.8,-373.2 4588.7,-353.4 4744.9,-292.1L4875.4,-238.7L4918.9,-296C5124.5,-562.9 5500.2,-719.1 5806.6,-661.8C5998.4,-626.2 6204,-515.5 6348.3,-369.2L6471,-242.7L6605.4,-294.1C6955.4,-424.6 7315.2,-343.5 7588,-70.7C7831.2,172.5 7928.1,500.7 7849,809.1L7817.4,927.7L7878.7,1022.6C8108,1380.5 8080.4,1805.5 7805.5,2143.6L7716.5,2252.3M7716.5,2252.3L7491.2,2031.2L7548.5,1975.8C7580.1,1946.1 7629.6,1878.9 7657.2,1823.6C7704.7,1736.6 7710.6,1703 7710.6,1536.9C7710.6,1319.4 7679,1240.3 7528.7,1080.2L7439.7,985.3L7497.1,870.6C7544.5,769.8 7552.5,734.2 7552.5,578C7552.5,421.8 7544.6,386.2 7495.2,285.4C7388.5,64 7157.1,-58.6 6888.2,-40.8C6724.1,-28.9 6621.3,20.5 6463.1,162.8L6340.5,269.6L6277.2,97.6C6162.5,-204.9 5954.9,-361.1 5666.3,-361.1C5605,-361.1 5522,-351.2 5482.4,-341.3C5377.6,-311.7 5229.3,-204.9 5164.1,-110L5106.8,-29L5156.2,38.2C5241.2,152.9 5308.4,305.1 5332.2,449.4C5411.3,906.1 5083.1,1382.6 4606.6,1507.1C4399,1560.5 4399,1560.5 4399,1380.6L4399,1226.4L4501.8,1214.5C4802.3,1178.9 5006,953.5 5027.7,635.2C5041.6,419.7 4996.1,287.2 4859.7,156.8C4727.2,24.2 4614.5,-25.2 4432.6,-39.1C4236.9,-52.9 4102.4,-1.5 3960.1,140.8L3855.3,247.6L3736.7,184.3C3629.9,128.9 3600.3,123 3440.1,123C3293.8,123 3246.3,132.9 3169.2,168.5C2898.4,303 2764,609.4 2845,911.9L2880.6,1038.4L2791.6,1157C2684.8,1303.3 2649.2,1431.8 2667,1601.8C2696.7,1864.8 2852.8,2058.5 3100,2131.7C3341.2,2206.8 3560.7,2159.4 3730.7,1995.3L3803.8,1926.1L3878.9,1977.5C3920.4,2007.2 3975.8,2048.7 4003.5,2070.4L4052.9,2109.9L3940.2,2218.6C3801.8,2349.1 3621.9,2436.1 3432.1,2469.7L3287.8,2493.4L3299.7,2582.4C3327.4,2786 3459.8,2971.9 3643.7,3062.8C3720.8,3100.4 3768.3,3108.3 3914.6,3108.3C4070.8,3106.3 4106.4,3100.4 4201.3,3051C4260.6,3021.3 4337.7,2975.9 4373.3,2948.2C4452.4,2888.9 4535.4,2720.8 4551.2,2588.4L4563.1,2485.6L4717.3,2485.6C4895.2,2485.6 4891.3,2479.7 4851.7,2667.5C4822,2807.9 4713.3,3011.5 4612.5,3116.3L4527.5,3203.3L4612.5,3278.4C4743,3393.1 4871.5,3436.6 5061.3,3428.7C5176,3422.8 5243.2,3409 5308.5,3377.4C5357.9,3351.7 5446.9,3278.5 5508.2,3213.3L5618.9,3094.7L5715.8,3154C5941.2,3292.4 6237.8,3314.2 6465.1,3209.4L6581.8,3156L6799.2,3373.4" style="fill:rgb(191,191,191);fill-rule:nonzero;"/>
                    </g>
                </g>
            </g>
        </g>
    </g>
</svg>
