<?xml version="1.0" encoding="UTF-8" standalone="no"?>
<!DOCTYPE svg PUBLIC "-//W3C//DTD SVG 1.1//EN" "http://www.w3.org/Graphics/SVG/1.1/DTD/svg11.dtd">
<svg width="100%" height="100%" viewBox="0 0 60 59" version="1.1" xmlns="http://www.w3.org/2000/svg" xmlns:xlink="http://www.w3.org/1999/xlink" xml:space="preserve" xmlns:serif="http://www.serif.com/" style="fill-rule:evenodd;clip-rule:evenodd;stroke-linejoin:round;stroke-miterlimit:2;">
    <g transform="matrix(1,0,0,1,-885.782,-1144.59)">
        <g id="Facilitating.svg" transform="matrix(0.922736,0,0,0.920437,915.309,1174.05)">
            <g transform="matrix(1,0,0,1,-32,-32)">
                <rect id="Artboard1" x="0" y="0" width="64" height="64" style="fill:none;"/>
                <g id="Artboard11" serif:id="Artboard1">
                    <g id="Microphone_1_">
                        <path d="M32,40C38.065,40 43,34.935 43,28.708L43,11.292C43,5.065 38.065,0 32,0C25.935,0 21,5.065 21,11.292L21,28.708C21,34.935 25.935,40 32,40ZM23,11.292C23,6.168 27.038,2 32,2C36.962,2 41,6.168 41,11.292L41,28.708C41,33.832 36.962,38 32,38C27.038,38 23,33.832 23,28.708L23,11.292Z" style="fill:rgb(191,191,191);fill-rule:nonzero;"/>
                        <path d="M50,25C49.448,25 49,25.448 49,26L49,29.633C49,39.209 41.374,47 32,47C22.626,47 15,39.209 15,29.633L15,26C15,25.448 14.552,25 14,25C13.448,25 13,25.448 13,26L13,29.633C13,39.968 20.989,48.413 31,48.948L31,62L21,62C20.448,62 20,62.448 20,63C20,63.552 20.448,64 21,64L43,64C43.552,64 44,63.552 44,63C44,62.448 43.552,62 43,62L33,62L33,48.948C43.011,48.413 51,39.968 51,29.633L51,26C51,25.448 50.552,25 50,25Z" style="fill:rgb(64,64,64);fill-rule:nonzero;"/>
                    </g>
                </g>
            </g>
        </g>
    </g>
</svg>
