<?xml version="1.0" encoding="UTF-8" standalone="no"?>
<!DOCTYPE svg PUBLIC "-//W3C//DTD SVG 1.1//EN" "http://www.w3.org/Graphics/SVG/1.1/DTD/svg11.dtd">
<svg width="100%" height="100%" viewBox="0 0 83 83" version="1.1" xmlns="http://www.w3.org/2000/svg" xmlns:xlink="http://www.w3.org/1999/xlink" xml:space="preserve" xmlns:serif="http://www.serif.com/" style="fill-rule:evenodd;clip-rule:evenodd;stroke-linejoin:round;stroke-miterlimit:2;">
    <g transform="matrix(1,0,0,1,-692.613,-779.89)">
        <g transform="matrix(1.37795,0,0,1.37795,692.614,779.891)">
            <path d="M60,8L60,0L0,0L0,8L2,8L2,48L1,48C0.447,48 0,48.447 0,49C0,49.553 0.447,50 1,50L29,50L29,52C29,52.047 29.021,52.088 29.027,52.134C27.292,52.571 26,54.131 26,56C26,58.206 27.794,60 30,60C32.206,60 34,58.206 34,56C34,54.131 32.708,52.571 30.973,52.134C30.979,52.088 31,52.047 31,52L31,50L59,50C59.553,50 60,49.553 60,49C60,48.447 59.553,48 59,48L58,48L58,8L60,8ZM32,56C32,57.103 31.103,58 30,58C28.897,58 28,57.103 28,56C28,54.897 28.897,54 30,54C31.103,54 32,54.897 32,56ZM56,48L4,48L4,8L56,8L56,48Z" style="fill:rgb(64,64,64);fill-rule:nonzero;"/>
        </g>
        <g transform="matrix(1.37795,0,0,1.37795,692.614,779.891)">
            <path d="M30,44C38.822,44 46,36.822 46,28C46,19.178 38.822,12 30,12C21.178,12 14,19.178 14,28C14,36.822 21.178,44 30,44ZM25,21C25,20.635 25.199,20.299 25.519,20.123C25.839,19.948 26.228,19.962 26.538,20.156L37.538,27.156C37.825,27.34 38,27.658 38,28C38,28.342 37.825,28.66 37.537,28.844L26.537,35.844C26.373,35.947 26.187,36 26,36C25.835,36 25.669,35.959 25.519,35.877C25.199,35.701 25,35.365 25,35L25,21Z" style="fill:rgb(129,0,54);fill-rule:nonzero;"/>
        </g>
    </g>
</svg>
