<?xml version="1.0" encoding="UTF-8" standalone="no"?>
<!DOCTYPE svg PUBLIC "-//W3C//DTD SVG 1.1//EN" "http://www.w3.org/Graphics/SVG/1.1/DTD/svg11.dtd">
<svg width="100%" height="100%" viewBox="0 0 83 83" version="1.1" xmlns="http://www.w3.org/2000/svg" xmlns:xlink="http://www.w3.org/1999/xlink" xml:space="preserve" xmlns:serif="http://www.serif.com/" style="fill-rule:evenodd;clip-rule:evenodd;stroke-linejoin:round;stroke-miterlimit:2;">
    <g transform="matrix(1,0,0,1,-871.018,-779.89)">
        <g id="Prototyping.svg" transform="matrix(0.161479,0,0,0.161479,912.356,821.229)">
            <g transform="matrix(1,0,0,1,-256,-256)">
                <g>
                    <g>
                        <path d="M503.83,0L8.17,0C3.657,0 0,3.657 0,8.17L0,503.83C0,508.343 3.657,512 8.17,512L503.83,512C508.343,512 512,508.343 512,503.83L512,8.17C512,3.657 508.343,0 503.83,0ZM495.66,495.66L16.34,495.66L16.34,16.34L495.66,16.34L495.66,495.66Z" style="fill:rgb(64,64,64);fill-rule:nonzero;"/>
                    </g>
                </g>
                <g>
                    <g>
                        <path d="M471.149,32.681L40.851,32.681C36.338,32.681 32.681,36.338 32.681,40.851L32.681,73.532C32.681,78.045 36.338,81.702 40.851,81.702L471.149,81.702C475.662,81.702 479.319,78.045 479.319,73.532L479.319,40.851C479.319,36.338 475.662,32.681 471.149,32.681ZM462.979,65.362L49.021,65.362L49.021,49.022L462.978,49.022L462.978,65.362L462.979,65.362Z" style="fill:rgb(191,191,191);fill-rule:nonzero;"/>
                    </g>
                </g>
                <g>
                    <g>
                        <path d="M471.149,350.412L40.851,350.412C36.338,350.412 32.681,354.069 32.681,358.582L32.681,471.149C32.681,475.662 36.338,479.319 40.851,479.319L471.149,479.319C475.662,479.319 479.319,475.662 479.319,471.149L479.319,358.582C479.319,354.069 475.662,350.412 471.149,350.412ZM462.979,462.979L49.021,462.979L49.021,366.752L462.978,366.752L462.978,462.979L462.979,462.979Z" style="fill:rgb(191,191,191);fill-rule:nonzero;"/>
                    </g>
                </g>
                <g>
                    <g>
                        <path d="M316.822,98.043L195.178,98.043C190.665,98.043 187.008,101.7 187.008,106.213L187.008,227.859C187.008,232.372 190.665,236.029 195.178,236.029L316.823,236.029C321.336,236.029 324.993,232.372 324.993,227.859L324.993,106.213C324.993,101.7 321.336,98.043 316.822,98.043ZM297.096,114.383L256,155.48L214.903,114.383L297.096,114.383ZM203.348,125.938L244.445,167.035L203.348,208.132L203.348,125.938ZM214.904,219.688L256,178.591L297.097,219.688L214.904,219.688ZM308.652,208.132L267.555,167.035L308.652,125.938L308.652,208.132Z" style="fill:rgb(191,191,191);fill-rule:nonzero;"/>
                    </g>
                </g>
                <g>
                    <g>
                        <path d="M471.149,98.043L349.503,98.043C344.99,98.043 341.333,101.7 341.333,106.213L341.333,227.859C341.333,232.372 344.99,236.029 349.503,236.029L471.149,236.029C475.662,236.029 479.319,232.372 479.319,227.859L479.319,106.213C479.319,101.7 475.662,98.043 471.149,98.043ZM451.423,114.383L410.326,155.48L369.229,114.383L451.423,114.383ZM357.673,125.938L398.77,167.035L357.673,208.132L357.673,125.938ZM369.228,219.688L410.326,178.591L451.423,219.688L369.228,219.688ZM462.979,208.132L421.882,167.035L462.979,125.938L462.979,208.132Z" style="fill:rgb(191,191,191);fill-rule:nonzero;"/>
                    </g>
                </g>
                <g>
                    <g>
                        <path d="M316.822,252.369L195.178,252.369C190.665,252.369 187.008,256.026 187.008,260.539C187.008,265.052 190.665,268.709 195.178,268.709L316.823,268.709C321.336,268.709 324.993,265.052 324.993,260.539C324.993,256.026 321.336,252.369 316.822,252.369Z" style="fill:rgb(191,191,191);fill-rule:nonzero;"/>
                    </g>
                </g>
                <g>
                    <g>
                        <path d="M471.149,252.369L349.503,252.369C344.99,252.369 341.333,256.026 341.333,260.539C341.333,265.052 344.99,268.709 349.503,268.709L471.149,268.709C475.662,268.709 479.319,265.052 479.319,260.539C479.319,256.026 475.662,252.369 471.149,252.369Z" style="fill:rgb(191,191,191);fill-rule:nonzero;"/>
                    </g>
                </g>
                <g>
                    <g>
                        <path d="M162.497,252.369L40.851,252.369C36.338,252.369 32.681,256.026 32.681,260.539C32.681,265.052 36.338,268.709 40.851,268.709L162.497,268.709C167.01,268.709 170.667,265.052 170.667,260.539C170.667,256.026 167.01,252.369 162.497,252.369Z" style="fill:rgb(191,191,191);fill-rule:nonzero;"/>
                    </g>
                </g>
                <g>
                    <g>
                        <path d="M316.822,285.05L195.178,285.05C190.665,285.05 187.008,288.707 187.008,293.22C187.008,297.733 190.665,301.39 195.178,301.39L316.823,301.39C321.336,301.39 324.993,297.733 324.993,293.22C324.993,288.707 321.336,285.05 316.822,285.05Z" style="fill:rgb(191,191,191);fill-rule:nonzero;"/>
                    </g>
                </g>
                <g>
                    <g>
                        <path d="M471.149,285.05L349.503,285.05C344.99,285.05 341.333,288.707 341.333,293.22C341.333,297.733 344.99,301.39 349.503,301.39L471.149,301.39C475.662,301.39 479.319,297.733 479.319,293.22C479.319,288.707 475.662,285.05 471.149,285.05Z" style="fill:rgb(191,191,191);fill-rule:nonzero;"/>
                    </g>
                </g>
                <g>
                    <g>
                        <path d="M162.497,285.05L40.851,285.05C36.338,285.05 32.681,288.707 32.681,293.22C32.681,297.733 36.338,301.39 40.851,301.39L162.497,301.39C167.01,301.39 170.667,297.733 170.667,293.22C170.667,288.707 167.01,285.05 162.497,285.05Z" style="fill:rgb(191,191,191);fill-rule:nonzero;"/>
                    </g>
                </g>
                <g>
                    <g>
                        <path d="M256.182,317.731L195.178,317.731C190.665,317.731 187.008,321.388 187.008,325.901C187.008,330.414 190.665,334.071 195.178,334.071L256.182,334.071C260.695,334.071 264.352,330.414 264.352,325.901C264.352,321.388 260.695,317.731 256.182,317.731Z" style="fill:rgb(191,191,191);fill-rule:nonzero;"/>
                    </g>
                </g>
                <g>
                    <g>
                        <path d="M410.507,317.731L349.503,317.731C344.99,317.731 341.333,321.388 341.333,325.901C341.333,330.414 344.99,334.071 349.503,334.071L410.507,334.071C415.02,334.071 418.677,330.414 418.677,325.901C418.677,321.388 415.021,317.731 410.507,317.731Z" style="fill:rgb(191,191,191);fill-rule:nonzero;"/>
                    </g>
                </g>
                <g>
                    <g>
                        <path d="M101.855,317.731L40.851,317.731C36.338,317.731 32.681,321.388 32.681,325.901C32.681,330.414 36.338,334.071 40.851,334.071L101.855,334.071C106.368,334.071 110.025,330.414 110.025,325.901C110.025,321.388 106.369,317.731 101.855,317.731Z" style="fill:rgb(191,191,191);fill-rule:nonzero;"/>
                    </g>
                </g>
                <g>
                    <g>
                        <path d="M162.497,98.043L40.851,98.043C36.338,98.043 32.681,101.7 32.681,106.213L32.681,227.859C32.681,232.372 36.338,236.029 40.851,236.029L162.497,236.029C167.01,236.029 170.667,232.372 170.667,227.859L170.667,106.213C170.667,101.7 167.01,98.043 162.497,98.043ZM142.771,114.383L101.674,155.48L60.577,114.383L142.771,114.383ZM49.021,125.939L90.118,167.035L49.021,208.133L49.021,125.939ZM60.576,219.688L101.673,178.591L142.771,219.688L60.576,219.688ZM154.327,208.132L113.23,167.035L154.327,125.938L154.327,208.132Z" style="fill:rgb(191,191,191);fill-rule:nonzero;"/>
                    </g>
                </g>
            </g>
        </g>
    </g>
</svg>
