<?xml version="1.0" encoding="UTF-8" standalone="no"?>
<!DOCTYPE svg PUBLIC "-//W3C//DTD SVG 1.1//EN" "http://www.w3.org/Graphics/SVG/1.1/DTD/svg11.dtd">
<svg width="100%" height="100%" viewBox="0 0 60 60" version="1.1" xmlns="http://www.w3.org/2000/svg" xmlns:xlink="http://www.w3.org/1999/xlink" xml:space="preserve" xmlns:serif="http://www.serif.com/" style="fill-rule:evenodd;clip-rule:evenodd;stroke-linejoin:round;stroke-miterlimit:2;">
    <g transform="matrix(1,0,0,1,-707.377,-1144.52)">
        <g id="UserResearch.svg" transform="matrix(1.00063,0,0,1.00063,736.905,1174.05)">
            <g transform="matrix(1,0,0,1,-29.509,-29.509)">
                <clipPath id="_clip1">
                    <rect x="0" y="0" width="59.018" height="59.018"/>
                </clipPath>
                <g clip-path="url(#_clip1)">
                    <g>
                        <path d="M58.741,56.809L52.772,50.565C54.518,48.646 55.592,46.107 55.592,43.315C55.592,37.362 50.749,32.519 44.796,32.519C38.843,32.519 34,37.361 34,43.314C34,49.267 38.843,54.11 44.796,54.11C47.237,54.11 49.484,53.286 51.295,51.914L57.296,58.191C57.492,58.396 57.755,58.5 58.019,58.5C58.268,58.5 58.516,58.408 58.71,58.223C59.108,57.841 59.123,57.208 58.741,56.809ZM36,43.314C36,38.464 39.946,34.518 44.796,34.518C49.646,34.518 53.592,38.464 53.592,43.314C53.592,48.164 49.646,52.11 44.796,52.11C39.946,52.11 36,48.164 36,43.314Z" style="fill:rgb(64,64,64);fill-rule:nonzero;"/>
                        <path d="M10.475,46.982C10.85,47.677 12.133,48.35 12.088,48.316C12.12,48.298 12.152,48.28 12.184,48.262L20.091,43.949C21.451,43.207 22.296,41.784 22.296,40.235L22.295,36.633L22.065,36.355C22.043,36.33 19.881,33.7 19.064,30.139L18.973,29.743L18.632,29.522C18.151,29.211 17.863,28.691 17.863,28.13L17.863,24.585C17.863,24.12 18.06,23.687 18.42,23.362L18.75,23.064L18.75,17.494L18.741,17.363C18.738,17.339 18.443,14.934 20.137,13.003C21.583,11.354 24.061,10.517 27.5,10.517C30.926,10.517 33.396,11.347 34.846,12.983C36.538,14.894 36.261,17.344 36.259,17.364L36.25,23.065L36.58,23.363C36.939,23.687 37.137,24.121 37.137,24.586L37.137,28.131C37.137,28.844 36.652,29.491 35.956,29.706C35.429,29.868 35.133,30.429 35.296,30.956C35.458,31.483 36.017,31.777 36.546,31.616C38.096,31.138 39.137,29.737 39.137,28.131L39.137,24.586C39.137,23.719 38.819,22.878 38.25,22.217L38.25,17.55C38.302,17.03 38.486,14.102 36.367,11.686C34.524,9.583 31.541,8.518 27.5,8.518C23.459,8.518 20.476,9.583 18.633,11.686C16.514,14.102 16.698,17.032 16.75,17.55L16.75,22.217C16.182,22.878 15.863,23.719 15.863,24.586L15.863,28.131C15.863,29.232 16.357,30.259 17.203,30.952C18.013,34.125 19.68,36.527 20.296,37.341L20.296,40.235C20.296,41.051 19.851,41.801 19.134,42.193L11.227,46.506C10.975,46.643 10.725,46.803 10.475,46.982Z" style="fill:rgb(191,191,191);fill-rule:nonzero;"/>
                        <path d="M27.5,53.518C26.866,53.518 26.234,53.487 25.605,53.44C25.496,53.432 25.387,53.425 25.279,53.415C24.645,53.359 24.014,53.284 23.389,53.182C23.361,53.177 23.333,53.172 23.305,53.167C21.983,52.946 20.682,52.621 19.415,52.196C19.376,52.183 19.336,52.17 19.297,52.156C18.668,51.942 18.046,51.706 17.435,51.443C17.431,51.441 17.426,51.439 17.422,51.437C16.844,51.188 16.277,50.912 15.717,50.621C15.644,50.583 15.57,50.547 15.498,50.508C14.987,50.235 14.487,49.94 13.994,49.632C13.848,49.54 13.703,49.447 13.559,49.353C13.105,49.056 12.657,48.747 12.221,48.42C12.176,48.386 12.133,48.35 12.088,48.316C12.12,48.298 10.795,47.27 10.475,46.982C5.276,42.31 2,35.541 2,28.018C2,13.957 13.439,2.518 27.5,2.518C41.561,2.518 53,13.958 53,28.018C53,28.571 53.447,29.018 54,29.018C54.553,29.018 55,28.571 55,28.018C55,12.855 42.663,0.518 27.5,0.518C12.337,0.518 0,12.855 0,28.018C0,36.027 3.444,43.246 8.926,48.276L8.899,48.3L9.791,49.052C9.849,49.101 9.912,49.141 9.969,49.189C10.443,49.582 10.934,49.955 11.434,50.316C11.596,50.433 11.758,50.551 11.923,50.664C12.457,51.032 13.005,51.381 13.565,51.712C13.687,51.784 13.81,51.854 13.933,51.924C14.546,52.273 15.172,52.602 15.813,52.904C15.86,52.926 15.907,52.946 15.955,52.968C18.044,53.939 20.274,54.652 22.606,55.073C22.667,55.084 22.728,55.095 22.79,55.106C23.514,55.231 24.246,55.331 24.987,55.398C25.077,55.406 25.168,55.411 25.258,55.419C25.999,55.479 26.745,55.518 27.501,55.518C28.054,55.518 28.501,55.071 28.501,54.518C28.501,53.965 28.053,53.518 27.5,53.518Z" style="fill:rgb(64,64,64);fill-rule:nonzero;"/>
                    </g>
                </g>
            </g>
        </g>
    </g>
</svg>
