<?xml version="1.0" encoding="UTF-8" standalone="no"?>
<!DOCTYPE svg PUBLIC "-//W3C//DTD SVG 1.1//EN" "http://www.w3.org/Graphics/SVG/1.1/DTD/svg11.dtd">
<svg width="100%" height="100%" viewBox="0 0 400 400" version="1.1" xmlns="http://www.w3.org/2000/svg" xmlns:xlink="http://www.w3.org/1999/xlink" xml:space="preserve" xmlns:serif="http://www.serif.com/" style="fill-rule:evenodd;clip-rule:evenodd;stroke-linejoin:round;stroke-miterlimit:2;">
    <g id="Artboard1" transform="matrix(0.666667,0,0,0.666667,0,0)">
        <rect x="0" y="0" width="600" height="600" style="fill:none;"/>
        <g transform="matrix(1,0,0,1,-45.6938,-150)">
            <g transform="matrix(1.5,0,0,1.5,-104.306,0)">
                <path d="M179.168,250.1C179.168,250.1 179.331,312.649 179.331,326.566C179.331,340.482 185.539,350.091 204,350.091C222.46,350.091 228.668,337.452 228.668,327.382L228.668,250.1L218.376,250.1C218.376,250.1 218.213,314.64 218.213,323.625C218.213,332.61 215.465,340.452 204,340.452C192.534,340.452 190.603,332.387 190.603,324.442L190.603,250.1L179.168,250.1Z"/>
            </g>
            <g transform="matrix(1.5,0,0,1.5,-104.306,0)">
                <path d="M239.288,250.109L258.402,296.3L236.674,348.6L247.946,348.6L263.897,308.357L279.476,348.6L291.892,348.6L270.164,296.342L289.115,250.1L277.843,250.1L263.907,284.669L251.377,250.109L239.288,250.109Z"/>
            </g>
            <g transform="matrix(1.5,0,0,1.5,-104.306,0)">
                <path d="M301.368,250.1L301.205,348.62L312.64,348.62L312.64,308.4C312.64,308.4 319.561,308.432 327.67,308.432C335.779,308.432 349.235,301.11 349.235,279.025C349.235,256.94 335.779,250.1 325.383,250.1L301.368,250.1ZM312.64,259.584L312.477,299.365L325.22,299.365C327.537,299.365 337.963,296.996 337.963,280.495C337.963,263.995 329.735,259.584 325.22,259.584L312.64,259.584Z"/>
            </g>
            <g transform="matrix(1.5,0,0,1.5,-104.306,0)">
                <path d="M358.2,275.8L358.2,348.62L368.2,348.62L368.2,275.8L358.2,275.8ZM358.22,250.109L358.2,262.361L368.2,262.4L368.186,250.109L358.22,250.109Z"/>
            </g>
            <g transform="matrix(1.5,0,0,1.5,-104.306,0)">
                <path d="M379.785,275.758L379.785,348.62L389.914,348.62L390.078,300.1C390.078,300.1 391.815,283.109 402.003,283.109C410.558,283.109 410.662,294.708 410.662,294.708L410.662,348.62L420.954,348.62L420.954,293.892C420.954,293.892 422.603,273.961 405.108,273.961C392.959,273.961 389.261,285.396 389.261,285.396L389.261,275.8L379.785,275.758Z"/>
            </g>
            <g transform="matrix(1.5,0,0,1.5,-104.306,0)">
                <path d="M500,100L100,100L100,500L500,500L500,100ZM495,105L495,495C495,495 105,495 105,495C105,452.185 105,147.815 105,105C105,105 495,105 495,105Z"/>
            </g>
        </g>
    </g>
</svg>
