<?xml version="1.0" encoding="UTF-8" standalone="no"?>
<!DOCTYPE svg PUBLIC "-//W3C//DTD SVG 1.1//EN" "http://www.w3.org/Graphics/SVG/1.1/DTD/svg11.dtd">
<svg width="64" height="64" viewBox="0 0 68 68" version="1.1" xmlns="http://www.w3.org/2000/svg" xmlns:xlink="http://www.w3.org/1999/xlink" xml:space="preserve" xmlns:serif="http://www.serif.com/" style="fill-rule:evenodd;clip-rule:evenodd;stroke-linejoin:round;stroke-miterlimit:2;">
<g id="Icon--About-" serif:id="Icon (About)">
<path d="M33.708,-0c-18.587,-0 -33.708,15.121 -33.708,33.708c-0,18.563 15.121,33.667 33.708,33.667c18.588,-0 33.709,-15.104 33.709,-33.667c-0,-18.587 -15.121,-33.708 -33.709,-33.708m0,4.167c16.292,-0 29.542,13.208 29.542,29.541c-0,16.292 -13.25,29.5 -29.542,29.5c-16.291,0 -29.541,-13.208 -29.541,-29.5c-0,-16.333 13.25,-29.541 29.541,-29.541" style="fill:#58595b;fill-rule:nonzero;"/>
<path d="M24,45.375c-3.75,-0 -6.792,-3.042 -6.792,-6.792c0,-3.75 3.042,-6.75 6.792,-6.75c3.708,0 6.75,3 6.75,6.75c0,3.75 -3.042,6.792 -6.75,6.792" style="fill:#bfbfbf;fill-rule:nonzero;"/>
<path d="M39.125,50.709c-2.083,-0 -3.75,-1.667 -3.75,-3.75c0,-2.084 1.667,-3.75 3.75,-3.75c2.042,-0 3.708,1.666 3.708,3.75c0,2.083 -1.666,3.75 -3.708,3.75" style="fill:#bfbfbf;fill-rule:nonzero;"/>
<path d="M40.458,36.125c-5.333,0 -9.708,-4.333 -9.708,-9.708c0,-5.375 4.375,-9.708 9.708,-9.708c5.375,-0 9.75,4.333 9.75,9.708c0,5.375 -4.375,9.708 -9.75,9.708" style="fill:#bfbfbf;fill-rule:nonzero;"/>
</g>
</svg>