<?xml version="1.0" encoding="UTF-8" standalone="no"?><!DOCTYPE svg PUBLIC "-//W3C//DTD SVG 1.1//EN" "http://www.w3.org/Graphics/SVG/1.1/DTD/svg11.dtd"><svg width="100%" height="100%" viewBox="0 0 69 69" version="1.1" xmlns="http://www.w3.org/2000/svg" xmlns:xlink="http://www.w3.org/1999/xlink" xml:space="preserve" xmlns:serif="http://www.serif.com/" style="fill-rule:evenodd;clip-rule:evenodd;stroke-linejoin:round;stroke-miterlimit:2;"><g id="Icon--Education-" serif:id="Icon (Education)"><path d="M34.042,0.375c-18.563,0 -33.667,15.121 -33.667,33.708c-0,18.588 15.104,33.709 33.667,33.709c18.587,-0 33.708,-15.121 33.708,-33.709c-0,-18.587 -15.121,-33.708 -33.708,-33.708m-0,4.167c16.333,-0 29.541,13.25 29.541,29.541c0,16.292 -13.208,29.542 -29.541,29.542c-16.292,0 -29.5,-13.25 -29.5,-29.542c-0,-16.291 13.208,-29.541 29.5,-29.541" style="fill:#58595b;fill-rule:nonzero;stroke:#595959;stroke-width:0.75px;"/><path d="M49.667,45.625l-15.625,8.542l-15.584,-8.542l0,-8.917l15.584,8.542l15.625,-8.542l-0,8.917Z" style="fill:#bfbfbf;fill-rule:nonzero;"/><path d="M54.125,45.25l-0,-15.417l-20.083,10.959l-24.5,-13.375l24.5,-13.417l24.541,13.417l0,17.833l-4.458,0Z" style="fill:#bfbfbf;fill-rule:nonzero;"/></g></svg>