<?xml version="1.0" encoding="UTF-8" standalone="no"?><!DOCTYPE svg PUBLIC "-//W3C//DTD SVG 1.1//EN" "http://www.w3.org/Graphics/SVG/1.1/DTD/svg11.dtd"><svg width="100%" height="100%" viewBox="0 0 68 68" version="1.1" xmlns="http://www.w3.org/2000/svg" xmlns:xlink="http://www.w3.org/1999/xlink" xml:space="preserve" xmlns:serif="http://www.serif.com/" style="fill-rule:evenodd;clip-rule:evenodd;stroke-linejoin:round;stroke-miterlimit:2;"><g id="Icon--Skills-" serif:id="Icon (Skills)"><path d="M33.667,-0c-18.563,-0 -33.667,15.121 -33.667,33.708c0,18.588 15.104,33.709 33.667,33.709c18.587,-0 33.708,-15.121 33.708,-33.709c0,-18.587 -15.121,-33.708 -33.708,-33.708m-0,4.167c16.333,-0 29.541,13.25 29.541,29.541c0,16.292 -13.208,29.542 -29.541,29.542c-16.292,-0 -29.5,-13.25 -29.5,-29.542c-0,-16.291 13.208,-29.541 29.5,-29.541" style="fill:#595959;fill-rule:nonzero;"/><path d="M27.542,31.229l-6.334,17.459l0.542,4.916l3.583,-3.416l6.125,-16.792c-1.5,-0.375 -2.833,-1.125 -3.916,-2.167m6.125,-4.166c-1.209,-0 -2.209,-0.959 -2.209,-2.209c0,-1.208 1,-2.208 2.209,-2.208c1.208,-0 2.208,1 2.208,2.208c-0,1.25 -1,2.209 -2.208,2.209m2.208,-8.417l-0,-4.833l-4.417,-0l0,4.833c-2.583,0.917 -4.416,3.333 -4.416,6.208c-0,3.667 2.958,6.625 6.625,6.625c3.666,0 6.625,-2.958 6.625,-6.625c-0,-2.875 -1.875,-5.291 -4.417,-6.208m3.917,12.583c-1.084,1.042 -2.459,1.792 -3.917,2.167l6.125,16.792l3.583,3.416l0.584,-4.916l-6.375,-17.459Z" style="fill:#bfbfbf;fill-rule:nonzero;"/></g></svg>