<?xml version="1.0" encoding="UTF-8" standalone="no"?><!DOCTYPE svg PUBLIC "-//W3C//DTD SVG 1.1//EN" "http://www.w3.org/Graphics/SVG/1.1/DTD/svg11.dtd"><svg width="100%" height="100%" viewBox="0 0 267 267" version="1.1" xmlns="http://www.w3.org/2000/svg" xmlns:xlink="http://www.w3.org/1999/xlink" xml:space="preserve" xmlns:serif="http://www.serif.com/" style="fill-rule:evenodd;clip-rule:evenodd;stroke-linejoin:round;stroke-miterlimit:2;"><clipPath id="_clip1"><rect x="0" y="34.996" width="266.667" height="196.675"/></clipPath><g clip-path="url(#_clip1)"><path d="M266.667,128.944l-0,8.779c-0.084,0.476 -0.189,0.944 -0.244,1.418c-0.454,3.819 -0.748,7.662 -1.376,11.452c-2.05,12.319 -6.481,23.77 -13.066,34.357c-9.999,16.075 -23.517,28.333 -40.504,36.704c-9.805,4.854 -20.376,7.974 -31.245,9.22c-2.415,0.279 -4.827,0.529 -7.241,0.795l-93.682,-0c-0.472,-0.088 -0.942,-0.229 -1.418,-0.257c-9.447,-0.595 -18.535,-2.748 -27.198,-6.538c-18.86,-8.253 -32.922,-21.628 -42.127,-40.038c-4.067,-8.12 -6.7,-16.883 -7.78,-25.9c-0.266,-2.193 -0.525,-4.383 -0.786,-6.574l-0,-8.518c0.09,-0.472 0.228,-0.944 0.257,-1.418c0.489,-8.184 2.168,-16.131 5.125,-23.769c7.956,-20.552 21.825,-35.795 41.534,-45.661c10.225,-5.12 21.125,-7.811 32.524,-8.408c5.582,-0.29 11.159,0.022 16.707,0.766c0.503,0.068 1.227,-0.156 1.576,-0.513c7.978,-8.15 17.062,-14.769 27.305,-19.786c9.936,-4.866 20.392,-8.003 31.399,-9.258c2.59,-0.296 5.186,-0.54 7.78,-0.808l7.987,0c0.523,0.082 1.047,0.174 1.57,0.235c3.957,0.461 7.936,0.751 11.856,1.407c12.229,2.052 23.613,6.442 34.148,12.962c16.154,10 28.465,23.535 36.875,40.575c4.864,9.809 7.987,20.389 9.229,31.267c0.285,2.505 0.529,5.009 0.795,7.509m-149.103,-56.808c0.16,0.211 0.2,0.31 0.268,0.342c5.484,2.704 10.726,5.874 15.668,9.475c0.312,0.226 1.084,0.132 1.462,-0.105c13.581,-8.606 28.304,-11.575 44.119,-8.77c15.498,2.748 28.109,10.491 37.744,22.858c10.911,13.997 15.07,29.823 12.058,47.432c-2.019,11.801 -6.746,22.389 -14.781,31.258c-14.662,16.169 -33.021,22.857 -54.633,20.025c-13.305,-1.742 -24.79,-7.482 -34.296,-17.088c-12.201,-12.324 -24.481,-24.567 -36.716,-36.857c-1.631,-1.638 -3.446,-2.955 -5.795,-3.242c-4.102,-0.503 -7.824,1.545 -9.595,5.23c-1.581,3.29 -1.376,6.999 2.052,10.37c13.64,13.391 27.16,26.904 40.786,40.308c2.332,2.305 4.832,4.434 7.482,6.367c9.953,7.227 21.175,11.224 33.327,12.833c9.539,1.26 19.003,0.99 28.394,-1.122c17.914,-4.023 32.753,-13.166 44.44,-27.274c9.651,-11.659 15.487,-25.056 17.521,-40.097c1.179,-8.577 0.933,-17.29 -0.728,-25.787c-2.711,-13.893 -8.588,-26.324 -18.006,-36.905c-17.969,-20.177 -40.575,-29.184 -67.477,-27.174c-10.348,0.773 -20.137,3.813 -29.349,8.635c-4.97,2.582 -9.646,5.697 -13.945,9.288m-6.582,140.853c-0.371,-0.343 -0.739,-0.688 -1.107,-1.034c-5.577,-5.265 -11.184,-10.498 -16.695,-15.831c-1.067,-1.032 -2.048,-1.534 -3.558,-1.499c-5.581,0.136 -11.167,0.16 -16.667,-1.082c-27.347,-6.185 -43.227,-35.918 -33.148,-62.08c7.949,-20.628 29.957,-33.191 51.659,-29.318c9.727,1.736 18.265,5.854 25.273,13.081c8.546,8.823 17.347,17.394 25.986,26.127c1.966,1.989 4.225,2.895 6.949,2.507c3.52,-0.503 6.323,-2.18 7.596,-5.632c1.246,-3.398 0.643,-6.615 -1.93,-9.221c-9.066,-9.185 -17.918,-18.6 -27.351,-27.395c-18.296,-17.064 -39.87,-22.139 -63.732,-14.883c-32.095,9.752 -50.878,42.893 -43.545,75.595c6.683,29.797 32.742,50.709 63.234,50.735c8.514,0.009 17.03,0.004 25.543,-0c0.422,-0 0.843,-0.037 1.493,-0.07" style="fill:#da1f26;fill-rule:nonzero;"/></g></svg>