<?xml version="1.0" encoding="UTF-8" standalone="no"?><!DOCTYPE svg PUBLIC "-//W3C//DTD SVG 1.1//EN" "http://www.w3.org/Graphics/SVG/1.1/DTD/svg11.dtd"><svg width="100%" height="100%" viewBox="0 0 200 200" version="1.1" xmlns="http://www.w3.org/2000/svg" xmlns:xlink="http://www.w3.org/1999/xlink" xml:space="preserve" xmlns:serif="http://www.serif.com/" style="fill-rule:evenodd;clip-rule:evenodd;stroke-linejoin:round;stroke-miterlimit:2;"><path d="M13.398,150c17.841,30.902 50.92,50 86.602,50c54.858,0 100,-45.142 100,-100c0,-54.858 -45.142,-100 -100,-100c-17.552,0 -34.799,4.621 -50,13.398c-47.509,27.429 -64.032,89.093 -36.602,136.602Zm129.903,-75c4.388,7.6 6.699,16.224 6.699,25c-0,27.429 -22.571,50 -50,50c-27.429,0 -50,-22.571 -50,-50c-0,-17.841 9.549,-34.381 25,-43.301c23.754,-13.715 54.587,-5.453 68.301,18.301Z" style="fill:none;fill-rule:nonzero;"/><path d="M15.789,46.091c18.299,-28.594 50.062,-46.091 84.211,-46.091c35.679,-0 68.754,19.099 86.588,50l-86.588,0l-0.062,-0c-27.395,-0 -49.938,22.543 -49.938,49.938c0,1.93 0.112,3.853 0.333,5.758l-34.544,-59.605Zm40.92,78.907l-0.009,0.002l-1.381,-2.39l1.313,2.264c0.024,0.042 0.05,0.084 0.077,0.124Z" style="fill:url(#_Linear1);"/><circle cx="100" cy="100" r="39.583" style="fill:#1a73e8;"/><path d="M103.556,50.173c-1.148,-0.08 -2.307,-0.121 -3.475,-0.121l-0.096,-0l0.01,-0.039l86.588,-0c0.005,0.008 0.009,0.015 0.014,0.023l-83.041,0.137Zm85.314,4.026c7.297,14.149 11.122,29.861 11.122,45.826c-0,54.845 -45.131,99.975 -99.975,99.975l-0.014,0l43.294,-74.988c4.403,-7.604 6.722,-16.236 6.722,-25.023c-0,-20.272 -12.344,-37.887 -29.864,-45.677l68.715,-0.113Z" style="fill:url(#_Linear2);"/><path d="M95.432,199.896c-52.769,-2.413 -95.425,-46.551 -95.425,-99.871c0,-17.553 4.623,-34.8 13.401,-50l43.295,74.988c8.901,15.462 25.437,25.023 43.278,25.023c10.908,-0 21.328,-3.574 29.814,-9.885l-34.363,59.745Z" style="fill:url(#_Linear3);"/><defs><linearGradient id="_Linear1" x1="0" y1="0" x2="1" y2="0" gradientUnits="userSpaceOnUse" gradientTransform="matrix(173.183,0,0,173.183,13.4054,62.5)"><stop offset="0" style="stop-color:#d93025;stop-opacity:1"/><stop offset="1" style="stop-color:#ea4335;stop-opacity:1"/></linearGradient><linearGradient id="_Linear2" x1="0" y1="0" x2="1" y2="0" gradientUnits="userSpaceOnUse" gradientTransform="matrix(86.5917,-149.981,149.981,86.5917,86.3413,198.663)"><stop offset="0" style="stop-color:#fcc934;stop-opacity:1"/><stop offset="1" style="stop-color:#fbbc04;stop-opacity:1"/></linearGradient><linearGradient id="_Linear3" x1="0" y1="0" x2="1" y2="0" gradientUnits="userSpaceOnUse" gradientTransform="matrix(-86.5917,-149.981,149.981,-86.5917,110.825,193.756)"><stop offset="0" style="stop-color:#1e8e3e;stop-opacity:1"/><stop offset="1" style="stop-color:#34a853;stop-opacity:1"/></linearGradient></defs></svg>