<?xml version="1.0" encoding="UTF-8" standalone="no"?><!DOCTYPE svg PUBLIC "-//W3C//DTD SVG 1.1//EN" "http://www.w3.org/Graphics/SVG/1.1/DTD/svg11.dtd"><svg width="100%" height="100%" viewBox="0 0 1000 1001" version="1.1" xmlns="http://www.w3.org/2000/svg" xmlns:xlink="http://www.w3.org/1999/xlink" xml:space="preserve" xmlns:serif="http://www.serif.com/" style="fill-rule:evenodd;clip-rule:evenodd;stroke-linejoin:round;stroke-miterlimit:2;"><rect id="Artboard1" x="0" y="0" width="1000" height="1000.72" style="fill:none;"/><clipPath id="_clip1"><rect x="0" y="0" width="1000" height="1000.72"/></clipPath><g clip-path="url(#_clip1)"><path d="M66.987,750.026c89.208,154.516 254.608,250.009 433.025,250.009c274.299,0 500.017,-225.718 500.017,-500.017c0,-274.3 -225.718,-500.018 -500.017,-500.018c-87.763,-0 -174.001,23.106 -250.009,66.992c-237.553,137.15 -320.171,445.481 -183.016,683.034Zm649.537,-375.013c21.941,38.001 33.496,81.123 33.496,125.005c0,137.149 -112.859,250.008 -250.008,250.008c-137.15,0 -250.009,-112.859 -250.009,-250.008c-0,-89.209 47.747,-171.912 125.004,-216.513c118.774,-68.577 272.945,-27.266 341.517,91.508Z" style="fill:none;fill-rule:nonzero;"/><path d="M78.942,230.463c91.498,-142.975 250.319,-230.463 421.07,-230.463c178.401,0 343.782,95.498 432.955,250.009l-433.265,-0c-136.98,-0 -249.699,112.719 -249.699,249.698c-0,9.651 0.56,19.266 1.665,28.791l-172.726,-298.035Zm204.607,394.549l-0.045,0.01l-6.905,-11.951l6.565,11.321c0.12,0.21 0.25,0.42 0.385,0.62Z" style="fill:url(#_Linear2);"/><circle cx="500.012" cy="500.018" r="197.922" style="fill:#1a73e8;"/><path d="M517.792,250.874c-5.74,-0.4 -11.535,-0.605 -17.375,-0.605l-0.48,-0l0.05,-0.195l432.955,-0c0.025,0.04 0.045,0.075 0.07,0.115l-415.22,0.685Zm426.585,20.13c36.486,70.748 55.612,149.311 55.612,229.139c0,274.234 -225.663,499.892 -499.892,499.892l-0.07,0l216.477,-374.953c22.016,-38.021 33.611,-81.183 33.611,-125.12c0,-101.363 -61.722,-189.441 -149.325,-228.392l343.587,-0.566Z" style="fill:url(#_Linear3);"/><path d="M477.171,999.515c-263.854,-12.065 -477.142,-232.763 -477.142,-499.372c0,-87.769 23.116,-174.007 67.008,-250.009l216.482,374.953c44.507,77.313 127.19,125.119 216.398,125.119c54.542,0 106.643,-17.87 149.075,-49.426l-171.821,298.735Z" style="fill:url(#_Linear4);"/></g><defs><linearGradient id="_Linear2" x1="0" y1="0" x2="1" y2="0" gradientUnits="userSpaceOnUse" gradientTransform="matrix(865.945,0,0,865.945,67.0235,312.511)"><stop offset="0" style="stop-color:#d93025;stop-opacity:1"/><stop offset="1" style="stop-color:#ea4335;stop-opacity:1"/></linearGradient><linearGradient id="_Linear3" x1="0" y1="0" x2="1" y2="0" gradientUnits="userSpaceOnUse" gradientTransform="matrix(432.974,-749.931,749.931,432.974,431.716,993.35)"><stop offset="0" style="stop-color:#fcc934;stop-opacity:1"/><stop offset="1" style="stop-color:#fbbc04;stop-opacity:1"/></linearGradient><linearGradient id="_Linear4" x1="0" y1="0" x2="1" y2="0" gradientUnits="userSpaceOnUse" gradientTransform="matrix(-432.974,-749.931,749.931,-432.974,554.139,968.814)"><stop offset="0" style="stop-color:#1e8e3e;stop-opacity:1"/><stop offset="1" style="stop-color:#34a853;stop-opacity:1"/></linearGradient></defs></svg>