<?xml version="1.0" encoding="UTF-8" standalone="no"?><!DOCTYPE svg PUBLIC "-//W3C//DTD SVG 1.1//EN" "http://www.w3.org/Graphics/SVG/1.1/DTD/svg11.dtd"><svg id="mask" width="100%" height="100%" viewBox="0 0 267 267" version="1.1" xmlns="http://www.w3.org/2000/svg" xmlns:xlink="http://www.w3.org/1999/xlink" xml:space="preserve" xmlns:serif="http://www.serif.com/" style="fill-rule:evenodd;clip-rule:evenodd;stroke-linejoin:round;stroke-miterlimit:2;"><path id="polygon2989" d="M250.9,0l-21.421,239.972l-96.29,26.695l-96.024,-26.657l-21.398,-240.01l235.133,-0Zm-43.93,49.061l-147.449,-0l2.676,29.436l112.513,0l-2.678,30.144l-107.21,-0l2.639,29.435l102.018,0l-3.417,38.177l-32.729,8.835l-0.101,0.027l-0.028,0.009l-32.783,-8.852l-2.096,-23.477l-29.549,-0l4.124,46.219l60.298,16.739l0.135,-0.037l0,-0.005l60.244,-16.697l0.443,-4.973l6.917,-77.496l0.719,-7.904l5.314,-59.58Z" style="fill:#264de4;"/><path id="polygon2991" d="M133.333,49.061l0,-29.437l96.113,0l-18.306,205.068l-77.807,21.57l0,-30.551l60.244,-16.697l0.443,-4.973l6.917,-77.496l0.719,-7.904l5.314,-59.58l-73.637,-0Zm0,136.026l0,-47.011l36.146,0l-3.417,38.177l-32.729,8.834Zm0,-76.446l0,-30.144l41.377,0l-2.678,30.144l-38.699,-0Z" style="fill:#2965f1;"/></svg>