<?xml version="1.0" encoding="UTF-8" standalone="no"?><!DOCTYPE svg PUBLIC "-//W3C//DTD SVG 1.1//EN" "http://www.w3.org/Graphics/SVG/1.1/DTD/svg11.dtd"><svg width="100%" height="100%" viewBox="0 0 267 267" version="1.1" xmlns="http://www.w3.org/2000/svg" xmlns:xlink="http://www.w3.org/1999/xlink" xml:space="preserve" xmlns:serif="http://www.serif.com/" style="fill-rule:evenodd;clip-rule:evenodd;stroke-linejoin:round;stroke-miterlimit:2;"><g><g><path d="M129.784,0.419c-29.159,2.797 -56.49,19.26 -73.113,44.005c-12.588,18.721 -18.4,40.403 -16.678,61.976l0.645,7.856l-14.31,25.662c-7.908,14.095 -14.256,25.823 -14.095,25.984c0.215,0.16 7.317,2.313 15.817,4.735l15.494,4.411l0.161,26.468l0.109,26.413l43.036,0l0,38.738l8.61,-0l-0,-47.342l-43.037,0l0,-50.514l-1.992,-0.593c-12.481,-3.443 -25.714,-7.532 -25.608,-7.962c0.055,-0.27 5.649,-10.438 12.427,-22.542l12.373,-22.057l-0.808,-5.867c-1.023,-7.747 -0.645,-19.42 0.914,-27.382c10.599,-53.853 64.613,-86.076 116.743,-69.562c9.255,2.906 21.951,9.79 28.515,15.439l1.883,1.614l-7.317,7.317l-7.263,7.317l-2.691,-1.614c-4.789,-2.906 -8.985,-4.035 -15.279,-4.035c-4.411,0 -6.403,0.269 -8.985,1.184l-3.282,1.183l-3.281,-2.206c-10.599,-7.048 -23.187,-5.973 -32.387,2.851l-2.743,2.637l-3.336,-0.808c-8.715,-2.207 -17.216,0.324 -24.049,7.154c-4.841,4.84 -8.016,11.888 -8.016,17.752c-0,1.344 -0.43,1.774 -3.067,3.067c-6.563,3.336 -12.427,11.404 -13.72,18.884c-0.808,4.95 0.055,9.954 2.743,15.603c1.829,3.926 1.938,4.356 1.453,7.047c-0.645,3.821 0.376,9.361 2.528,13.72c2.044,4.09 7.693,9.9 11.513,11.889c5.97,3.012 11.135,3.657 17.432,2.098c3.39,-0.806 3.766,-0.806 4.68,-0c1.613,1.507 7.801,4.089 11.137,4.734c4.305,0.808 9.2,0.27 13.451,-1.398l3.551,-1.453l1.183,1.559c5.595,7.262 15.818,11.513 24.155,9.954c5.219,-0.969 10.814,-3.981 14.741,-7.962l3.338,-3.443l3.658,1.399c9.523,3.551 19.314,1.344 26.737,-6.079c6.618,-6.617 9.254,-15.548 7.102,-23.94l-0.86,-3.227l1.668,-2.582c6.24,-9.739 5.489,-21.304 -1.992,-30.504l-2.421,-2.958l6.617,-6.672c3.66,-3.657 6.778,-6.672 6.942,-6.672c0.539,0 4.141,10.169 5.379,15.064c2.044,8.016 2.692,14.955 2.692,30.128c-0,7.856 -0.27,16.408 -0.539,19.099c-1.774,15.17 -7.048,30.879 -14.525,43.04c-6.509,10.653 -16.893,22.002 -26.792,29.32l-5.489,4.035l0,64.286l8.61,-0l-0,-59.984l3.875,-2.958c5.055,-3.875 13.88,-12.588 18.182,-18.022c12.697,-16.032 20.819,-34.593 24.049,-54.819c1.399,-8.876 1.399,-38.95 -0,-47.396c-1.293,-7.586 -4.035,-17.001 -6.778,-23.401l-2.204,-5.056l11.836,-11.888c10.384,-10.49 11.998,-12.321 13.557,-15.655c1.507,-3.227 1.774,-4.305 1.774,-8.016c-0,-3.821 -0.215,-4.735 -1.722,-7.856c-2.098,-4.305 -5.973,-8.071 -10.275,-10.06c-2.528,-1.184 -3.821,-1.453 -7.372,-1.453c-3.711,0 -4.789,0.269 -8.016,1.774c-3.227,1.508 -5.11,3.121 -13.772,11.674c-5.488,5.488 -10.274,9.953 -10.598,9.953c-0.27,0 -0.969,-0.538 -1.559,-1.129c-1.883,-2.098 -13.72,-9.63 -19.26,-12.321c-16.574,-7.967 -34.702,-11.303 -52.079,-9.635Zm111.63,9.63c2.906,1.992 4.25,4.359 4.52,8.231c0.375,4.196 -0.485,6.188 -3.875,9.521l-2.422,2.422l-7.638,-7.693l-7.693,-7.638l2.422,-2.476c3.282,-3.39 4.895,-4.035 9.255,-3.82c2.688,0.16 4.141,0.538 5.431,1.453Zm-15.494,18.83l7.532,7.532l-2.313,2.258l-2.258,2.313l-7.641,-7.641l-7.638,-7.692l2.098,-2.153c1.129,-1.183 2.258,-2.152 2.421,-2.152c0.164,-0 3.657,3.39 7.799,7.535Zm-16.139,5.379l2.153,2.153l-29.214,29.211l-29.159,29.159l-2.259,-2.313l-2.313,-2.259l29.051,-29.053c15.978,-15.978 29.159,-29.05 29.319,-29.05c0.164,-0 1.293,0.969 2.422,2.152Zm-68.054,10.166c1.344,0.7 3.766,2.691 5.434,4.466l3.012,3.227l2.637,-1.614c6.133,-3.766 14.204,-4.359 20.389,-1.507l3.175,1.453l-16.786,16.783l-16.786,16.79l-2.689,-2.692l-2.691,-2.691l-6.188,6.188l19.26,19.205l19.205,19.26l6.188,-6.187l-2.691,-2.692l-2.688,-2.691l15.333,-15.333l15.279,-15.333l1.559,1.507c0.86,0.808 2.207,2.637 2.958,4.142c1.292,2.367 1.453,3.281 1.453,7.801c0,5.918 -0.86,8.071 -4.95,12.427l-2.421,2.582l1.561,3.122c1.29,2.742 1.508,3.711 1.508,7.961c-0,4.251 -0.215,5.22 -1.559,7.962c-2.904,6.025 -9.2,9.361 -16.517,8.877c-4.466,-0.324 -7.263,-1.668 -11.568,-5.541l-3.336,-2.906l-1.722,4.681c-3.121,8.231 -8.77,12.481 -16.623,12.481c-1.668,0 -3.927,-0.269 -5.004,-0.539c-2.852,-0.805 -6.887,-3.711 -8.662,-6.293l-1.559,-2.204l1.344,-1.829c2.313,-3.121 4.142,-7.263 4.79,-11.189c2.152,-12.427 -6.779,-25.393 -19.745,-28.781c-5.649,-1.453 -5.649,-1.453 -5.649,3.442l0,4.196l2.798,0.324c8.177,0.968 13.719,7.102 14.31,15.763c0.378,5.864 -0.86,9.469 -4.572,13.018c-3.605,3.608 -6.672,4.952 -11.621,5.33c-5.326,0.376 -8.985,-1.023 -12.858,-4.895l-2.851,-2.906l-3.227,1.722c-2.907,1.508 -3.712,1.668 -8.071,1.668c-3.981,0 -5.274,-0.269 -7.372,-1.238c-7.368,-3.66 -11.026,-11.997 -8.821,-20.228l0.968,-3.442l-2.421,-3.228c-2.907,-3.981 -3.875,-7.477 -3.391,-12.103c0.808,-7.157 5.056,-12.427 11.782,-14.419c6.564,-2.044 12.536,-0.754 17.162,3.711l1.989,1.883l2.044,-1.398c1.129,-0.808 2.637,-1.938 3.39,-2.528l1.345,-1.075l-3.067,-2.958c-3.766,-3.551 -8.661,-5.918 -13.826,-6.832l-3.926,-0.645l0.323,-2.422c0.754,-5.54 4.357,-10.599 9.361,-13.072c2.098,-1.023 3.39,-1.238 7.371,-1.238c4.251,0.054 5.219,0.215 7.802,1.559c1.613,0.808 3.711,2.043 4.68,2.797c2.152,1.614 4.411,6.188 4.841,9.791l0.324,2.797l4.196,-0c4.84,-0 4.734,0.16 3.657,-4.95c-0.808,-3.82 -3.766,-9.36 -6.509,-12.212l-2.313,-2.367l2.313,-2.044c3.551,-3.121 7.047,-4.305 12.212,-4.09c3.121,0.161 4.95,0.536 6.727,1.396Zm78.813,0.593l2.153,2.153l-29.214,29.211l-29.156,29.159l-2.259,-2.313l-2.313,-2.258l29.051,-29.051c15.978,-15.978 29.159,-29.05 29.319,-29.05c0.161,-0 1.29,0.966 2.419,2.149Z" style="fill:#404040;fill-rule:nonzero;"/></g><g><path d="M182.29,44.533l-2.691,-1.614c-4.789,-2.906 -8.985,-4.035 -15.279,-4.035c-4.411,0 -6.403,0.269 -8.985,1.184l-3.282,1.183l-3.281,-2.206c-10.599,-7.048 -23.187,-5.973 -32.387,2.851l-2.743,2.637l-3.336,-0.808c-8.715,-2.207 -17.216,0.324 -24.049,7.154c-4.841,4.84 -8.016,11.888 -8.016,17.752c-0,1.344 -0.43,1.774 -3.067,3.067c-6.563,3.336 -12.427,11.404 -13.72,18.884c-0.808,4.95 0.055,9.954 2.743,15.603c1.829,3.926 1.938,4.356 1.453,7.047c-0.645,3.821 0.376,9.361 2.528,13.72c2.044,4.09 7.693,9.9 11.513,11.889c5.97,3.012 11.135,3.657 17.432,2.098c3.39,-0.806 3.766,-0.806 4.68,-0c1.613,1.507 7.801,4.089 11.137,4.734c4.305,0.808 9.2,0.27 13.451,-1.398l3.551,-1.453l1.183,1.559c5.595,7.262 15.818,11.513 24.155,9.954c5.219,-0.969 10.814,-3.981 14.741,-7.962l3.338,-3.443l3.658,1.399c9.523,3.551 19.314,1.344 26.737,-6.079c6.618,-6.617 9.254,-15.548 7.102,-23.94l-0.86,-3.227l1.668,-2.582c6.24,-9.739 5.489,-21.304 -1.992,-30.504l-2.421,-2.958m-0,0l-6.131,6.017l1.559,1.507c0.86,0.808 2.207,2.637 2.958,4.142c1.292,2.367 1.453,3.281 1.453,7.801c0,5.918 -0.86,8.071 -4.95,12.427l-2.421,2.582l1.561,3.122c1.29,2.742 1.508,3.711 1.508,7.961c-0,4.251 -0.215,5.22 -1.559,7.962c-2.904,6.025 -9.2,9.361 -16.517,8.877c-4.466,-0.324 -7.263,-1.668 -11.568,-5.541l-3.336,-2.906l-1.722,4.681c-3.121,8.231 -8.77,12.481 -16.623,12.481c-1.668,0 -3.927,-0.269 -5.004,-0.539c-2.852,-0.805 -6.887,-3.711 -8.662,-6.293l-1.559,-2.204l1.344,-1.829c2.313,-3.121 4.142,-7.263 4.79,-11.189c2.152,-12.427 -6.779,-25.393 -19.745,-28.781c-5.649,-1.453 -5.649,-1.453 -5.649,3.442l0,4.196l2.798,0.324c8.177,0.968 13.719,7.102 14.31,15.763c0.378,5.864 -0.86,9.469 -4.572,13.018c-3.605,3.608 -6.672,4.952 -11.621,5.33c-5.326,0.376 -8.985,-1.023 -12.858,-4.895l-2.851,-2.906l-3.227,1.722c-2.907,1.508 -3.712,1.668 -8.071,1.668c-3.981,0 -5.274,-0.269 -7.372,-1.238c-7.368,-3.66 -11.026,-11.997 -8.821,-20.228l0.968,-3.442l-2.421,-3.228c-2.907,-3.981 -3.875,-7.477 -3.391,-12.103c0.808,-7.157 5.056,-12.427 11.782,-14.419c6.564,-2.044 12.536,-0.754 17.162,3.711l1.989,1.883l2.044,-1.398c1.129,-0.808 2.637,-1.938 3.39,-2.528l1.345,-1.075l-3.067,-2.958c-3.766,-3.551 -8.661,-5.918 -13.826,-6.832l-3.926,-0.645l0.323,-2.422c0.754,-5.54 4.357,-10.599 9.361,-13.072c2.098,-1.023 3.39,-1.238 7.371,-1.238c4.251,0.054 5.219,0.215 7.802,1.559c1.613,0.808 3.711,2.043 4.68,2.797c2.152,1.614 4.411,6.188 4.841,9.791l0.324,2.797l4.196,-0c4.84,-0 4.734,0.16 3.657,-4.95c-0.808,-3.82 -3.766,-9.36 -6.509,-12.212l-2.313,-2.367l2.313,-2.044c3.551,-3.121 7.047,-4.305 12.212,-4.09c3.121,0.161 4.95,0.536 6.727,1.396c1.344,0.7 3.766,2.691 5.434,4.466l3.012,3.227l2.637,-1.614c6.133,-3.766 14.204,-4.359 20.389,-1.507l3.175,1.453l5.916,-5.916" style="fill:#810036;fill-rule:nonzero;"/></g></g></svg>