<?xml version="1.0" encoding="UTF-8" standalone="no"?><!DOCTYPE svg PUBLIC "-//W3C//DTD SVG 1.1//EN" "http://www.w3.org/Graphics/SVG/1.1/DTD/svg11.dtd"><svg width="100%" height="100%" viewBox="0 0 1067 1067" version="1.1" xmlns="http://www.w3.org/2000/svg" xmlns:xlink="http://www.w3.org/1999/xlink" xml:space="preserve" xmlns:serif="http://www.serif.com/" style="fill-rule:evenodd;clip-rule:evenodd;stroke-linejoin:round;stroke-miterlimit:2;"><path d="M405.526,495.602c-3.221,11.181 -4.978,22.876 -5.109,34.815c-0,174.166 171.666,309.583 368.75,309.583c51.058,0.178 101.732,-8.856 149.583,-26.667c15.112,-5.609 29.863,-12.15 44.167,-19.583c2.406,-1.277 5.089,-1.945 7.814,-1.945c9.143,-0 16.666,7.523 16.666,16.666c0,3.035 -0.829,6.014 -2.397,8.612c-50.295,79.712 -120.529,144.314 -203.116,187.79c-88.705,23.376 -204.847,34.899 -288.088,-1.966c-39.531,-17.507 -80.95,-50.692 -106.296,-86.24c-42.063,-57.574 -70.599,-127.061 -70.599,-198.363c0,-83.383 33.506,-162.249 88.625,-222.702Z" style="fill:url(#_Linear1);"/><path d="M594.578,415.021c-18.584,-9.584 -39.383,-14.855 -60.828,-15.021c-29.583,-0.417 -51.667,10.417 -65,16.667c-114.713,56.509 -187.659,173.761 -187.659,301.637c-0,71.302 22.679,140.789 64.742,198.363c25.346,35.548 57.496,65.715 94.584,88.75l0.416,-0c78.083,48.881 173.823,61.077 261.667,33.333c-255.344,85.262 -537.234,-35.497 -651.667,-279.167c-14.132,-30.441 -25.366,-62.036 -33.611,-94.365c-14.055,-265.656 144.434,-377.805 314.771,-377.805c14.583,-0 79.616,-6.593 156.699,33.823c48.999,24.349 82.527,61.497 105.886,93.785Z" style="fill:url(#_Linear2);"/><path d="M635,620c-3.75,4.167 -14.167,10.417 -14.167,23.333c0,10.834 7.084,21.667 20,30.417c59.584,41.667 172.5,35.833 172.917,35.833c44.415,-0.029 88.02,-11.973 126.25,-34.583c78.228,-45.756 126.52,-129.79 126.667,-220.417c1.25,-93.333 -33.334,-155.416 -47.084,-182.916c-88.75,-172.5 -279.166,-271.667 -486.25,-271.667c-289.765,-0.029 -529.258,236.097 -533.333,525.833c2.083,-152.083 153.333,-275 333.333,-275c14.584,0 97.917,1.25 175,41.667c54.148,26.907 99.005,69.441 128.75,122.083c25.417,44.167 30,100.417 30,122.917c0,22.5 -11.25,55.417 -32.5,82.917l0.417,-0.417Z" style="fill:url(#_Radial3);fill-rule:nonzero;"/><path d="M635,620c-3.75,4.167 -14.167,10.417 -14.167,23.333c0,10.834 7.084,21.667 20,30.417c59.584,41.667 172.5,35.833 172.917,35.833c44.415,-0.029 88.02,-11.973 126.25,-34.583c78.228,-45.756 126.52,-129.79 126.667,-220.417c1.25,-93.333 -33.334,-155.416 -47.084,-182.916c-88.75,-172.5 -279.166,-271.667 -486.25,-271.667c-289.765,-0.029 -529.258,236.097 -533.333,525.833c2.083,-152.083 153.333,-275 333.333,-275c14.584,0 97.917,1.25 175,41.667c54.148,26.907 99.005,69.441 128.75,122.083c25.417,44.167 30,100.417 30,122.917c0,22.5 -11.25,55.417 -32.5,82.917l0.417,-0.417Z" style="fill:url(#_Radial4);fill-rule:nonzero;"/><defs><linearGradient id="_Linear1" x1="0" y1="0" x2="1" y2="0" gradientUnits="userSpaceOnUse" gradientTransform="matrix(743.333,0,0,743.333,244.583,737.5)"><stop offset="0" style="stop-color:#0c59a4;stop-opacity:1"/><stop offset="1" style="stop-color:#114a8b;stop-opacity:1"/></linearGradient><linearGradient id="_Linear2" x1="0" y1="0" x2="1" y2="0" gradientUnits="userSpaceOnUse" gradientTransform="matrix(-463.75,505.417,-505.417,-463.75,636.25,415)"><stop offset="0" style="stop-color:#1b9de2;stop-opacity:1"/><stop offset="0.2" style="stop-color:#1595df;stop-opacity:1"/><stop offset="0.7" style="stop-color:#0680d7;stop-opacity:1"/><stop offset="1" style="stop-color:#0078d4;stop-opacity:1"/></linearGradient><radialGradient id="_Radial3" cx="0" cy="0" r="1" gradientUnits="userSpaceOnUse" gradientTransform="matrix(-33.7333,843.333,1796.3,67.4667,107.875,197.15)"><stop offset="0" style="stop-color:#35c1f1;stop-opacity:1"/><stop offset="0.1" style="stop-color:#34c1ed;stop-opacity:1"/><stop offset="0.2" style="stop-color:#2fc2df;stop-opacity:1"/><stop offset="0.3" style="stop-color:#2bc3d2;stop-opacity:1"/><stop offset="0.7" style="stop-color:#36c752;stop-opacity:1"/><stop offset="1" style="stop-color:#36c752;stop-opacity:1"/></radialGradient><radialGradient id="_Radial4" cx="0" cy="0" r="1" gradientUnits="userSpaceOnUse" gradientTransform="matrix(113.517,389.2,316.225,-93.2458,1000.25,322.083)"><stop offset="0" style="stop-color:#66eb6e;stop-opacity:1"/><stop offset="1" style="stop-color:#66eb6e;stop-opacity:0"/></radialGradient></defs></svg>