<?xml version="1.0" encoding="UTF-8" standalone="no"?><!DOCTYPE svg PUBLIC "-//W3C//DTD SVG 1.1//EN" "http://www.w3.org/Graphics/SVG/1.1/DTD/svg11.dtd"><svg width="100%" height="100%" viewBox="0 0 1000 1000" version="1.1" xmlns="http://www.w3.org/2000/svg" xmlns:xlink="http://www.w3.org/1999/xlink" xml:space="preserve" xmlns:serif="http://www.serif.com/" style="fill-rule:evenodd;clip-rule:evenodd;stroke-linejoin:round;stroke-miterlimit:2;"><rect id="Artboard1" x="0" y="0" width="1000" height="999.345" style="fill:none;"/><clipPath id="_clip1"><rect x="0" y="0" width="1000" height="999.345"/></clipPath><g clip-path="url(#_clip1)"><path d="M382.751,466.843c-3.007,10.438 -4.647,21.356 -4.769,32.502c-0,162.595 160.261,289.016 344.252,289.016c47.666,0.166 94.973,-8.268 139.645,-24.895c14.108,-5.237 27.879,-11.343 41.233,-18.282c2.246,-1.193 4.751,-1.816 7.295,-1.816c8.535,-0 15.559,7.023 15.559,15.559c-0,2.833 -0.774,5.614 -2.238,8.039c-46.954,74.417 -112.522,134.727 -189.622,175.314c-82.812,21.823 -191.238,32.581 -268.949,-1.835c-36.905,-16.344 -75.572,-47.324 -99.234,-80.511c-39.269,-53.749 -65.909,-118.619 -65.909,-185.184c0,-77.844 31.28,-151.47 82.737,-207.907Z" style="fill:url(#_Linear2);"/><path d="M559.244,391.616c-17.35,-8.948 -36.767,-13.869 -56.787,-14.024c-27.618,-0.389 -48.235,9.725 -60.682,15.56c-107.092,52.755 -175.192,162.217 -175.192,281.598c0,66.565 21.173,131.435 60.441,185.184c23.662,33.187 53.676,61.35 88.3,82.854l0.389,0c72.895,45.634 162.275,57.02 244.283,31.119c-238.38,79.597 -501.543,-33.139 -608.373,-260.621c-13.194,-28.418 -23.681,-57.914 -31.378,-88.095c-13.122,-248.007 134.838,-352.706 293.859,-352.706c13.614,0 74.326,-6.155 146.288,31.576c45.744,22.732 77.044,57.412 98.852,87.555Z" style="fill:url(#_Linear3);"/><path d="M596.98,582.977c-3.501,3.89 -13.226,9.725 -13.226,21.783c0,10.114 6.614,20.227 18.672,28.396c55.625,38.899 161.04,33.452 161.429,33.452c41.464,-0.027 82.172,-11.177 117.862,-32.285c73.031,-42.716 118.115,-121.168 118.252,-205.774c1.167,-87.132 -31.119,-145.091 -43.956,-170.764c-82.854,-161.04 -260.619,-253.618 -453.946,-253.618c-270.514,-0.027 -494.096,220.411 -497.9,490.899c1.944,-141.98 143.146,-256.731 311.188,-256.731c13.615,0 91.411,1.167 163.373,38.899c50.551,25.12 92.428,64.828 120.197,113.973c23.728,41.232 28.007,93.745 28.007,114.751c-0,21.005 -10.503,51.735 -30.341,77.408l0.389,-0.389Z" style="fill:url(#_Radial4);fill-rule:nonzero;"/><path d="M596.98,582.977c-3.501,3.89 -13.226,9.725 -13.226,21.783c0,10.114 6.614,20.227 18.672,28.396c55.625,38.899 161.04,33.452 161.429,33.452c41.464,-0.027 82.172,-11.177 117.862,-32.285c73.031,-42.716 118.115,-121.168 118.252,-205.774c1.167,-87.132 -31.119,-145.091 -43.956,-170.764c-82.854,-161.04 -260.619,-253.618 -453.946,-253.618c-270.514,-0.027 -494.096,220.411 -497.9,490.899c1.944,-141.98 143.146,-256.731 311.188,-256.731c13.615,0 91.411,1.167 163.373,38.899c50.551,25.12 92.428,64.828 120.197,113.973c23.728,41.232 28.007,93.745 28.007,114.751c-0,21.005 -10.503,51.735 -30.341,77.408l0.389,-0.389Z" style="fill:url(#_Radial5);fill-rule:nonzero;"/></g><defs><linearGradient id="_Linear2" x1="0" y1="0" x2="1" y2="0" gradientUnits="userSpaceOnUse" gradientTransform="matrix(693.949,0,0,693.949,232.501,692.671)"><stop offset="0" style="stop-color:#0c59a4;stop-opacity:1"/><stop offset="1" style="stop-color:#114a8b;stop-opacity:1"/></linearGradient><linearGradient id="_Linear3" x1="0" y1="0" x2="1" y2="0" gradientUnits="userSpaceOnUse" gradientTransform="matrix(-432.941,471.839,-471.839,-432.941,598.147,391.596)"><stop offset="0" style="stop-color:#1b9de2;stop-opacity:1"/><stop offset="0.2" style="stop-color:#1595df;stop-opacity:1"/><stop offset="0.7" style="stop-color:#0680d7;stop-opacity:1"/><stop offset="1" style="stop-color:#0078d4;stop-opacity:1"/></linearGradient><radialGradient id="_Radial4" cx="0" cy="0" r="1" gradientUnits="userSpaceOnUse" gradientTransform="matrix(-31.4922,787.306,1676.96,62.9845,104.875,188.219)"><stop offset="0" style="stop-color:#35c1f1;stop-opacity:1"/><stop offset="0.1" style="stop-color:#34c1ed;stop-opacity:1"/><stop offset="0.2" style="stop-color:#2fc2df;stop-opacity:1"/><stop offset="0.3" style="stop-color:#2bc3d2;stop-opacity:1"/><stop offset="0.7" style="stop-color:#36c752;stop-opacity:1"/><stop offset="1" style="stop-color:#36c752;stop-opacity:1"/></radialGradient><radialGradient id="_Radial5" cx="0" cy="0" r="1" gradientUnits="userSpaceOnUse" gradientTransform="matrix(105.975,363.343,295.216,-87.051,937.965,304.852)"><stop offset="0" style="stop-color:#66eb6e;stop-opacity:1"/><stop offset="1" style="stop-color:#66eb6e;stop-opacity:0"/></radialGradient></defs></svg>