<?xml version="1.0" encoding="UTF-8" standalone="no"?><!DOCTYPE svg PUBLIC "-//W3C//DTD SVG 1.1//EN" "http://www.w3.org/Graphics/SVG/1.1/DTD/svg11.dtd"><svg id="mask" width="100%" height="100%" viewBox="0 0 267 267" version="1.1" xmlns="http://www.w3.org/2000/svg" xmlns:xlink="http://www.w3.org/1999/xlink" xml:space="preserve" xmlns:serif="http://www.serif.com/" style="fill-rule:evenodd;clip-rule:evenodd;stroke-linejoin:round;stroke-miterlimit:2;"><path id="path0_fill" d="M88.889,266.667c24.533,-0 44.444,-19.911 44.444,-44.445l0,-44.444l-44.444,-0c-24.533,-0 -44.445,19.911 -44.445,44.444c0,24.534 19.912,44.445 44.445,44.445Z" style="fill:#0acf83;fill-rule:nonzero;"/><path id="path1_fill" d="M44.444,133.333c0,-24.533 19.912,-44.444 44.445,-44.444l44.444,-0l0,88.889l-44.444,-0c-24.533,-0 -44.445,-19.911 -44.445,-44.445Z" style="fill:#a259ff;fill-rule:nonzero;"/><path id="path1_fill_1_" d="M44.444,44.444c0,-24.533 19.912,-44.444 44.445,-44.444l44.444,0l0,88.889l-44.444,-0c-24.533,-0 -44.445,-19.911 -44.445,-44.445Z" style="fill:#f24e1e;fill-rule:nonzero;"/><path id="path2_fill" d="M133.333,0l44.445,0c24.533,0 44.444,19.911 44.444,44.444c0,24.534 -19.911,44.445 -44.444,44.445l-44.445,-0l0,-88.889Z" style="fill:#ff7262;fill-rule:nonzero;"/><path id="path3_fill" d="M222.222,133.333c0,24.534 -19.911,44.445 -44.444,44.445c-24.534,-0 -44.445,-19.911 -44.445,-44.445c0,-24.533 19.911,-44.444 44.445,-44.444c24.533,-0 44.444,19.911 44.444,44.444Z" style="fill:#1abcfe;fill-rule:nonzero;"/></svg>