<?xml version="1.0" encoding="UTF-8" standalone="no"?><!DOCTYPE svg PUBLIC "-//W3C//DTD SVG 1.1//EN" "http://www.w3.org/Graphics/SVG/1.1/DTD/svg11.dtd"><svg width="100%" height="100%" viewBox="0 0 5800 5800" version="1.1" xmlns="http://www.w3.org/2000/svg" xmlns:xlink="http://www.w3.org/1999/xlink" xml:space="preserve" xmlns:serif="http://www.serif.com/" style="fill-rule:evenodd;clip-rule:evenodd;stroke-linejoin:round;stroke-miterlimit:2;"><g><path d="M5177.35,2113.74c-0.181,-1.205 -0.364,-2.409 -0.549,-3.614l-0.061,-0.579l0.065,0.162l-0.487,-4.62c-49.271,-291.18 -143.313,-572.984 -278.817,-835.38c190.017,98.246 432.671,409.025 552.292,696.859l-0.279,-0.417c173.887,438.887 235.279,914.375 178.575,1383.04c-4.113,35.867 -7.88,71.042 -12.5,106.546c-227.846,1313.99 -1379.23,2282.88 -2712.81,2282.88c-1508.59,0.001 -2750.64,-1239.86 -2753.31,-2748.44l0.001,-14.2c1.235,-27.821 2.912,-55.616 5.03,-83.372c3.69,38.348 7.124,73.378 10.141,103.27c2.018,10.922 3.6,23.571 4.839,36.876c1.296,7.858 2.746,15.509 4.36,22.93l0.5,-0.154c4.587,27.095 9.798,55.003 15.239,81.816c247.058,1214.76 1363.38,2133.14 2626.53,2168.56c1195.52,33.821 1959.15,-660.191 2274.53,-1336.88c266.68,-584.008 297.728,-1249.02 86.711,-1855.29Zm0,-0c29.12,513.98 29.959,540.526 36.929,732.677c13.38,368.866 -58.565,739.212 -214.441,1080.71c-302.355,648.406 -1035.35,1311.22 -2180.91,1278.81l-0.025,-0.001c-1244.17,-34.888 -2341.28,-957.826 -2545.98,-2167.11c-25.708,-118.212 -49.002,-358.658 -63.999,-543.849c5.283,-33.586 10.535,-65.339 12.926,-76.494l3.696,-18.196c66.842,-299.633 192.396,-583.071 369.375,-833.938l0,0.067c77.013,-109.929 163.108,-213.229 257.363,-308.783c82.708,-84.638 172.758,-161.771 269.079,-230.504c28.821,-19.48 59.633,-35.834 91.908,-48.8c-6.25,95.258 -13.921,551.3 95.192,689.6l1.283,-0c183.058,-214.742 408.733,-389.15 662.675,-512.155c-57.637,220.938 -54.967,453.35 7.742,672.9c24.373,16.472 47.846,34.248 70.312,53.237l-0.054,0.043c41.979,35.52 89.359,82.97 189.167,181.354c186.821,184.046 665.954,374.708 667.012,397.083l0.049,0.199c-336.449,121.813 -707.563,107.211 -1033.4,-40.682c-321.233,-162.934 -705.104,-147.517 -1012.24,40.625c117.029,253.125 373.333,414.337 652.166,410.225c-51.004,450.154 186.963,974.6 762.917,1250.21c11.486,5.523 22.359,11.449 33.974,16.85c1.366,0.711 2.733,1.419 4.101,2.125c15.346,7.95 30.904,15.121 46.458,22.154c26.946,11.942 53.888,22.967 80.834,33.109c115.296,40.795 236.041,64.095 358.229,69.112c835.059,39.16 1260.37,-576.852 1242.31,-1176.77c18.383,600.042 -406.914,1216.47 -1242.24,1177.55c-122.188,-5.021 -242.938,-28.316 -358.229,-69.116c-26.946,-10.088 -53.892,-21.13 -80.834,-33.109c-15.558,-7.1 -31.112,-14.2 -46.458,-22.15l1.908,1.196c191.371,130.642 1136.56,449.792 2124.66,-355.175l1.562,-3.542c24.65,-57.533 351.7,-870.883 -272.762,-1446.27l0.137,-0.296c-12.012,-11.004 -26.146,-22.375 -41.267,-33.8c-5.625,-4.2 -7.168,-5.475 -17.204,-13.35c-245.904,-433.996 -707.362,-703.492 -1206.16,-704.463c-32.396,0 -64.092,2.663 -95.931,4.84c21.542,-375.258 256.424,-1124.08 947.568,-1528.75l-1.062,1.842c0.645,-0.279 1.562,-0.921 1.979,-1.059c0.437,-0.137 1.008,-0.783 1.354,-0.783c1.704,-0.467 3.492,-0.467 5.192,0c3.558,0.438 6.266,3.508 6.25,7.104c9.391,37.829 23.179,74.409 41.058,109.042c8.458,17.258 18.179,36.008 30.333,56.825c21.23,36.442 43.038,70.971 64.859,105.417c430.956,680.858 958.265,994.149 1269.6,1768.97l-0,2.283c0.346,0.99 0.691,1.981 1.036,2.972Zm-0.474,-3.252l0.504,0.28l-0.504,-2.917l0,2.637Zm-2900.19,2011.27c13.35,6.929 26.7,13.579 40.05,19.967l-1.908,-1.217c-13.213,-5.883 -25.296,-12.567 -38.142,-18.75Zm1791.79,-1738.91c12.283,9.285 51.847,44.661 33.382,27.647c538.215,495.915 307.025,1184.1 256.244,1314.52c-232.742,186.1 -462.516,307.534 -678.974,383.104c45.002,-35.16 86.776,-73.189 125.309,-113.628c449.99,-472.245 454.54,-1281.4 -17.457,-1745.22c94.719,24.972 185.204,66.318 267.085,122.974c5.094,3.575 9.714,7.089 14.411,10.598Zm-2402.69,856.139c3.378,-12.086 137.339,-473.333 909.879,-473.333c82.976,-0 317.315,-227.219 330.574,-300.545c-13.891,73.783 -247.69,300.111 -330.503,300.111c-782.867,0 -909.95,473.592 -909.95,473.592l-0,0.175Zm-52.347,-130.464c-9.033,-76.486 -9.256,-152.536 -0.876,-226.49c3.235,-28.556 -5.972,-57.125 -25.273,-78.418c-19.301,-21.293 -46.83,-33.253 -75.566,-32.829c-207.934,3.066 -401.275,-100.951 -514.342,-270.753c261.391,-125.416 569.012,-123.631 830.652,9.076c1.288,0.653 2.59,1.278 3.905,1.875c248.171,112.642 520.822,153.218 787.271,120.529c-25.033,17.475 -45.549,30.519 -50.629,33.72c-624.862,2.143 -867.968,284.976 -955.142,443.29Zm1390.28,-672.021c-2.166,-8.791 -4.721,-15.017 -7.579,-19.067c-8.446,-17.276 -23.741,-37.147 -51.327,-53.978c-77.669,-47.389 -471.927,-210.697 -635.023,-371.366c-41.714,-41.118 -74.548,-73.568 -101.729,-100.057c181.389,-117.511 390.277,-187.455 607.153,-202.327c29.786,-2.029 59.47,-4.656 89.82,-4.661c336.45,0.681 654.587,133.009 890.903,359.914c-117.678,-25.91 -239.912,-31.608 -361.375,-15.799c-43.606,5.675 -78.387,39.171 -85.701,82.532c-7.313,43.361 14.557,86.412 53.889,106.076c631.924,315.934 700.317,1172.82 256.875,1638.16c-191.038,200.47 -477.952,326.21 -855.231,308.518c-0.194,-0.009 -0.388,-0.018 -0.582,-0.026c-111.847,-4.592 -222.378,-25.867 -327.949,-63.107c-24.824,-9.361 -49.55,-19.486 -74.28,-30.436c-13.907,-6.29 -27.752,-12.64 -41.394,-19.708c-0.049,-0.025 -0.097,-0.05 -0.145,-0.075c-300.819,-155.221 -553.194,-445.005 -592.63,-799.605c28.96,-70.106 193.506,-385.832 808.25,-385.832c24.495,-0 56.67,-7.343 92.261,-25.228c49.729,-24.991 113.988,-74.005 171.946,-128.708c57.484,-54.258 108.692,-113.888 135.531,-157.906c20.863,-34.219 29.719,-64.841 31.138,-86.198c-0,-0 3.47,-5.578 -2.821,-31.112Z" style="fill:url(#_Linear1);"/><path d="M5449.79,1966.57c-119.621,-287.834 -362.275,-598.613 -552.292,-696.859c135.504,262.396 229.546,544.2 278.817,835.38l-0,2.624l0.487,2.917c212.171,607.063 181.458,1273.3 -85.658,1858.26c-315.538,677.029 -1079.03,1370.97 -2274.53,1336.88c-1291.4,-36.579 -2429.39,-995.192 -2641.79,-2250.38c-38.717,-197.966 0,-298.35 19.463,-459.233c-26.546,124.979 -41.355,252.15 -44.255,379.896l0,14.2c2.675,1508.58 1244.72,2748.45 2753.3,2748.45c1333.59,0 2484.98,-968.904 2712.83,-2282.88c4.616,-35.521 8.383,-70.692 12.499,-106.563c56.7,-468.662 -4.687,-944.146 -178.574,-1383.04l-0.296,0.35Z" style="fill:url(#_Radial2);fill-rule:nonzero;"/><path d="M5449.79,1966.57c-119.621,-287.834 -362.275,-598.613 -552.292,-696.859c135.504,262.396 229.546,544.2 278.817,835.38l-0,2.624l0.487,2.917c212.171,607.063 181.458,1273.3 -85.658,1858.26c-315.538,677.029 -1079.03,1370.97 -2274.53,1336.88c-1291.4,-36.579 -2429.39,-995.192 -2641.79,-2250.38c-38.717,-197.966 0,-298.35 19.463,-459.233c-26.546,124.979 -41.355,252.15 -44.255,379.896l0,14.2c2.675,1508.58 1244.72,2748.45 2753.3,2748.45c1333.59,0 2484.98,-968.904 2712.83,-2282.88c4.616,-35.521 8.383,-70.692 12.499,-106.563c56.7,-468.662 -4.687,-944.146 -178.574,-1383.04l-0.296,0.35Z" style="fill:url(#_Radial3);fill-rule:nonzero;"/><path d="M4111.5,2289.78c5.954,4.188 11.496,8.388 17.121,12.571c-69.167,-122.621 -155.246,-234.896 -255.729,-333.508c-855.975,-855.971 -224.254,-1855.43 -117.779,-1906.58l1.058,-1.562c-691.508,404.912 -926.283,1154.33 -947.604,1529.39c32.117,-2.205 63.942,-4.913 96.754,-4.913c498.821,0.975 960.258,270.471 1206.18,704.463l0,0.137Z" style="fill:url(#_Radial4);fill-rule:nonzero;"/><path d="M3003.71,2436.49c-2.166,-8.791 -4.721,-15.017 -7.579,-19.067c-8.446,-17.276 -23.741,-37.147 -51.327,-53.978c-77.669,-47.389 -471.927,-210.697 -635.023,-371.366c-41.714,-41.118 -74.548,-73.568 -101.729,-100.057c181.389,-117.511 390.277,-187.455 607.153,-202.327c29.786,-2.029 59.47,-4.656 89.82,-4.661c336.45,0.681 654.587,133.009 890.903,359.914c-117.678,-25.91 -239.912,-31.608 -361.375,-15.799c-43.606,5.675 -78.387,39.171 -85.701,82.532c-7.313,43.361 14.557,86.412 53.889,106.076c631.924,315.934 700.317,1172.82 256.875,1638.16c-191.038,200.47 -477.952,326.21 -855.231,308.518c-0.194,-0.009 -0.388,-0.018 -0.582,-0.026c-111.847,-4.592 -222.378,-25.867 -327.949,-63.107c-24.824,-9.361 -49.55,-19.486 -74.28,-30.436c-13.907,-6.29 -27.752,-12.64 -41.394,-19.708c-0.049,-0.025 -0.097,-0.05 -0.145,-0.075c-300.819,-155.221 -553.194,-445.005 -592.63,-799.605c28.96,-70.106 193.506,-385.832 808.25,-385.832c24.495,-0 56.67,-7.343 92.261,-25.228c49.729,-24.991 113.988,-74.005 171.946,-128.708c57.484,-54.258 108.692,-113.888 135.531,-157.906c20.863,-34.219 29.719,-64.841 31.138,-86.198c-0,-0 3.47,-5.578 -2.821,-31.112Z" style="fill:url(#_Radial5);"/><path d="M3003.71,2436.49c-2.166,-8.791 -4.721,-15.017 -7.579,-19.067c-8.446,-17.276 -23.741,-37.147 -51.327,-53.978c-77.669,-47.389 -471.927,-210.697 -635.023,-371.366c-41.714,-41.118 -74.548,-73.568 -101.729,-100.057c181.389,-117.511 390.277,-187.455 607.153,-202.327c29.786,-2.029 59.47,-4.656 89.82,-4.661c336.45,0.681 654.587,133.009 890.903,359.914c-117.678,-25.91 -239.912,-31.608 -361.375,-15.799c-43.606,5.675 -78.387,39.171 -85.701,82.532c-7.313,43.361 14.557,86.412 53.889,106.076c631.924,315.934 700.317,1172.82 256.875,1638.16c-191.038,200.47 -477.952,326.21 -855.231,308.518c-0.194,-0.009 -0.388,-0.018 -0.582,-0.026c-111.847,-4.592 -222.378,-25.867 -327.949,-63.107c-24.824,-9.361 -49.55,-19.486 -74.28,-30.436c-13.907,-6.29 -27.752,-12.64 -41.394,-19.708c-0.049,-0.025 -0.097,-0.05 -0.145,-0.075c-300.819,-155.221 -553.194,-445.005 -592.63,-799.605c28.96,-70.106 193.506,-385.832 808.25,-385.832c24.495,-0 56.67,-7.343 92.261,-25.228c49.729,-24.991 113.988,-74.005 171.946,-128.708c57.484,-54.258 108.692,-113.888 135.531,-157.906c20.863,-34.219 29.719,-64.841 31.138,-86.198c-0,-0 3.47,-5.578 -2.821,-31.112Z" style="fill:url(#_Radial6);"/><path d="M1922.2,1791.11c22.308,14.204 40.713,26.562 56.842,37.708c-62.73,-219.546 -65.4,-451.963 -7.746,-672.9c-253.958,123.004 -479.617,297.417 -662.692,512.154c13.438,-0.346 412.796,-7.533 613.596,123.038Z" style="fill:url(#_Radial7);fill-rule:nonzero;"/><path d="M207.906,2482.24c9.383,-49.016 16.506,-80.096 16.865,-81.581c66.837,-299.638 192.396,-583.092 369.375,-833.959l-0,0.088c77.375,-109.742 163.817,-212.796 258.417,-308.092c82.708,-84.617 172.762,-161.754 269.083,-230.504c28.833,-19.463 59.633,-35.833 91.925,-48.8c-6.25,95.258 -13.925,551.3 95.175,689.6l1.283,-0c13.213,-0.346 412.571,-7.517 613.388,123.037c22.1,14.496 40.483,26.563 56.821,37.725c24.637,16.65 48.35,34.621 71.041,53.838c41.979,35.591 89.359,82.971 189.167,181.354c186.825,183.975 665.954,374.704 667.012,397.083c-336.491,121.875 -707.67,107.292 -1033.56,-40.625c-321.233,-162.933 -705.104,-147.516 -1012.24,40.625c117.029,253.125 373.333,414.342 652.17,410.225c-51.145,450.367 186.892,974.88 762.917,1250.21c13.35,6.912 26.7,13.579 40.05,19.966c191.096,130.279 1136.56,449.654 2124.65,-355.175l1.563,-3.558c431.293,-355.828 730.382,-855.68 750.092,-1389.49c14.049,253.854 15.768,303.312 21.169,452.205c13.38,368.866 -58.565,739.212 -214.441,1080.71c-302.355,648.406 -1035.35,1311.22 -2180.91,1278.81l-0.025,-0.001c-1244.17,-34.888 -2341.28,-957.826 -2545.98,-2167.11c-26.302,-120.943 -50.077,-369.831 -65.025,-556.591Zm2608.2,2823.66c-1263.2,-35.421 -2379.52,-953.74 -2626.53,-2168.56c247.058,1214.76 1363.38,2133.14 2626.53,2168.56Zm-2626.53,-2168.56c-5.516,-27.126 -10.598,-54.401 -15.239,-81.816c4.587,27.095 9.798,55.003 15.239,81.816Zm-20.099,-104.592c-1.953,-11.848 -3.556,-24.167 -4.839,-36.876c2.018,10.922 3.6,23.571 4.839,36.876Z" style="fill:url(#_Radial8);"/><path d="M3872.83,1968.7c100.504,98.717 186.596,211.112 255.729,333.854c15.121,11.442 29.254,22.813 41.267,33.821c624.183,575.379 297.137,1388.73 272.779,1446.27c507.029,-417.763 831.092,-1035.7 733.783,-1673.58c-311.425,-776.409 -839.633,-1089.67 -1270.1,-1770.9c-21.804,-34.446 -43.612,-68.975 -64.862,-105.417c-12.134,-20.817 -21.875,-39.567 -30.33,-56.825c-17.879,-34.617 -31.65,-71.213 -41.058,-109.042c0.033,-3.596 -2.675,-6.666 -6.25,-7.104c-1.7,-0.467 -3.487,-0.467 -5.175,0c-0.362,0 -0.937,0.646 -1.354,0.783c-0.433,0.138 -1.354,0.78 -1.996,1.075c-106.475,50.505 -738.054,1050.59 117.917,1905.85l-0.346,1.217Z" style="fill:url(#_Radial9);fill-rule:nonzero;"/><path d="M1613.43,3108.51c-9.033,-76.486 -9.256,-152.536 -0.876,-226.49c3.235,-28.556 -5.972,-57.125 -25.273,-78.418c-19.301,-21.293 -46.83,-33.253 -75.566,-32.829c-207.934,3.066 -401.275,-100.951 -514.342,-270.753c261.391,-125.416 569.012,-123.631 830.652,9.076c1.288,0.653 2.59,1.278 3.905,1.875c248.171,112.642 520.822,153.218 787.271,120.529c-25.033,17.475 -45.549,30.519 -50.629,33.72c-624.862,2.143 -867.968,284.976 -955.142,443.29Z" style="fill:url(#_Radial10);"/><path d="M5177.75,2113.35c-0.268,-0.797 -0.408,-1.159 -0.602,-1.728l-0.346,-0.99l-0.487,-2.917l-0,-2.625c-49.271,-291.179 -143.313,-572.983 -278.817,-835.379c190.017,98.246 432.671,409.025 552.292,696.859l-0.142,0.137c173.892,438.888 235.296,914.392 178.579,1383.05c-4.117,35.871 -7.883,71.025 -12.5,106.546c-227.85,1313.98 -1379.22,2282.88 -2712.81,2282.88c-1508.58,0 -2750.64,-1239.86 -2753.3,-2748.44l-0,-14.221c1.264,-27.956 2.894,-55.891 4.889,-83.796c3.684,38.297 7.114,73.282 10.128,103.14c2.018,10.922 3.6,23.571 4.839,36.876c1.296,7.858 2.746,15.509 4.36,22.93l0.5,-0.154c4.587,27.095 9.798,55.003 15.239,81.816c247.058,1214.76 1363.38,2133.14 2626.53,2168.56c1195.52,33.821 1959.15,-660.191 2274.53,-1336.88c266.681,-584.008 291.576,-1247.17 87.115,-1855.68Zm0.321,7.089c26.652,159.516 29.235,533.829 36.205,725.98c13.38,368.866 -58.565,739.212 -214.441,1080.71c-302.355,648.406 -1035.35,1311.22 -2180.91,1278.81l-0.025,-0.001c-1244.17,-34.888 -2341.28,-957.826 -2545.98,-2167.11c-25.991,-119.514 -49.515,-363.97 -64.492,-549.949c5.839,-31.145 11.341,-59.483 13.557,-69.819l3.696,-18.196c66.858,-299.638 192.395,-583.092 369.375,-833.942l-0,0.071c77.016,-109.933 163.108,-213.229 257.362,-308.787c82.708,-84.634 172.763,-161.771 269.079,-230.521c28.821,-19.459 59.638,-35.813 91.913,-48.8c-6.25,95.258 -13.909,551.3 95.187,689.616l1.288,0c183.054,-214.737 408.733,-389.15 662.671,-512.17c-57.638,220.958 -54.963,453.37 7.745,672.916c24.634,16.65 48.35,34.638 71.042,53.838c41.979,35.591 89.359,82.97 189.167,181.354c186.821,183.996 665.954,374.725 667.012,397.083c-4.341,68.492 -246.491,304.671 -331.091,304.671c-782.867,0 -909.95,473.596 -909.95,473.596c34.654,398.504 312.258,726.958 648.47,900.708c-13.208,-5.883 -25.291,-12.566 -38.141,-18.75c13.35,6.929 26.704,13.579 40.054,19.967l-1.913,-1.217c15.35,7.971 30.905,15.071 46.459,22.171c26.946,11.979 53.892,23.021 80.833,33.108c115.296,40.8 236.042,64.096 358.229,69.117c169.283,7.885 321.726,-11.144 457.05,-51.496c-135.501,40.497 -288.182,59.605 -457.762,51.704c-122.188,-5.02 -242.938,-28.316 -358.229,-69.116c-26.946,-10.088 -53.892,-21.129 -80.834,-33.109c-15.558,-7.1 -31.112,-14.2 -46.458,-22.15l1.908,1.196c191.371,130.642 1136.56,449.792 2124.66,-355.175l1.562,-3.541c24.65,-57.534 351.7,-870.884 -272.762,-1446.27l0.137,-0.296c-12.012,-11.004 -17.354,-15.648 -32.475,-27.073c-5.625,-4.2 -7.361,-5.131 -25.208,-19.523c-245.905,-433.975 -707.363,-703.487 -1206.17,-704.446c-32.813,0 -64.633,2.692 -96.75,4.896c21.317,-375.05 256.075,-1124.48 947.604,-1529.38l-1.062,1.842c0.645,-0.279 1.562,-0.921 1.979,-1.059c0.437,-0.137 1.008,-0.783 1.354,-0.783c1.704,-0.467 3.492,-0.467 5.192,0c3.558,0.438 6.266,3.508 6.25,7.104c9.391,37.829 23.179,74.409 41.058,109.042c8.458,17.258 18.179,36.008 30.333,56.825c21.23,36.442 43.038,70.971 64.859,105.417c430.956,680.858 958.265,994.149 1269.6,1768.97l0.317,2.206c0.187,1.138 1.245,8.559 1.443,9.746Zm-1109.69,262.339c13.302,10.45 17.199,13.184 32.171,27.088c541.174,502.58 308.323,1184.73 257.542,1315.15c-232.742,186.1 -462.516,307.534 -678.974,383.104c45.002,-35.16 86.776,-73.189 125.309,-113.628c449.99,-472.245 454.54,-1281.4 -17.457,-1745.22c94.719,24.972 185.204,66.318 267.085,122.974c5.094,3.575 9.714,6.911 14.324,10.533Z" style="fill:url(#_Linear11);"/></g><defs><linearGradient id="_Linear1" x1="0" y1="0" x2="1" y2="0" gradientUnits="userSpaceOnUse" gradientTransform="matrix(-4570.58,4409.83,-4409.83,-4570.58,5085.38,940.533)"><stop offset="0" style="stop-color:#fff44f;stop-opacity:1"/><stop offset="0.05" style="stop-color:#fff44f;stop-opacity:1"/><stop offset="0.11" style="stop-color:#ffe847;stop-opacity:1"/><stop offset="0.23" style="stop-color:#ffc830;stop-opacity:1"/><stop offset="0.37" style="stop-color:#ff980e;stop-opacity:1"/><stop offset="0.4" style="stop-color:#ff8b16;stop-opacity:1"/><stop offset="0.46" style="stop-color:#ff672a;stop-opacity:1"/><stop offset="0.53" style="stop-color:#ff3647;stop-opacity:1"/><stop offset="0.71" style="stop-color:#e31587;stop-opacity:1"/><stop offset="1" style="stop-color:#e31587;stop-opacity:1"/></linearGradient><radialGradient id="_Radial2" cx="0" cy="0" r="1" gradientUnits="userSpaceOnUse" gradientTransform="matrix(5739.58,0,0,5739.58,4908.5,700.017)"><stop offset="0" style="stop-color:#ffbd4f;stop-opacity:1"/><stop offset="0.13" style="stop-color:#ffbd4f;stop-opacity:1"/><stop offset="0.19" style="stop-color:#ffac31;stop-opacity:1"/><stop offset="0.25" style="stop-color:#ff9d17;stop-opacity:1"/><stop offset="0.28" style="stop-color:#ff980e;stop-opacity:1"/><stop offset="0.4" style="stop-color:#ff563b;stop-opacity:1"/><stop offset="0.47" style="stop-color:#ff3750;stop-opacity:1"/><stop offset="0.71" style="stop-color:#f5156c;stop-opacity:1"/><stop offset="0.78" style="stop-color:#eb0878;stop-opacity:1"/><stop offset="0.86" style="stop-color:#e50080;stop-opacity:1"/><stop offset="1" style="stop-color:#e50080;stop-opacity:1"/></radialGradient><radialGradient id="_Radial3" cx="0" cy="0" r="1" gradientUnits="userSpaceOnUse" gradientTransform="matrix(5739.58,0,0,5739.58,2777.46,3044.17)"><stop offset="0" style="stop-color:#960e18;stop-opacity:1"/><stop offset="0.3" style="stop-color:#960e18;stop-opacity:1"/><stop offset="0.35" style="stop-color:#b11927;stop-opacity:0.74"/><stop offset="0.44" style="stop-color:#db293d;stop-opacity:0.34"/><stop offset="0.5" style="stop-color:#f5334b;stop-opacity:0.09"/><stop offset="0.53" style="stop-color:#ff3750;stop-opacity:0"/><stop offset="1" style="stop-color:#ff3750;stop-opacity:0"/></radialGradient><radialGradient id="_Radial4" cx="0" cy="0" r="1" gradientUnits="userSpaceOnUse" gradientTransform="matrix(4157.66,0,0,4157.66,3487.81,-578.608)"><stop offset="0" style="stop-color:#fff44f;stop-opacity:1"/><stop offset="0.13" style="stop-color:#fff44f;stop-opacity:1"/><stop offset="0.25" style="stop-color:#ffdc3e;stop-opacity:1"/><stop offset="0.51" style="stop-color:#ff9d12;stop-opacity:1"/><stop offset="1" style="stop-color:#ff980e;stop-opacity:1"/></radialGradient><radialGradient id="_Radial5" cx="0" cy="0" r="1" gradientUnits="userSpaceOnUse" gradientTransform="matrix(2732.71,0,0,2732.71,2138.15,4535.88)"><stop offset="0" style="stop-color:#3a8ee6;stop-opacity:1"/><stop offset="0.35" style="stop-color:#3a8ee6;stop-opacity:1"/><stop offset="0.47" style="stop-color:#5c79f0;stop-opacity:1"/><stop offset="0.67" style="stop-color:#9059ff;stop-opacity:1"/><stop offset="1" style="stop-color:#c139e6;stop-opacity:1"/></radialGradient><radialGradient id="_Radial6" cx="0" cy="0" r="1" gradientUnits="userSpaceOnUse" gradientTransform="matrix(1408.53,-340.54,398.505,1649.08,3055.06,2551.46)"><stop offset="0" style="stop-color:#9059ff;stop-opacity:0"/><stop offset="0.21" style="stop-color:#9059ff;stop-opacity:0"/><stop offset="0.28" style="stop-color:#8c4ff3;stop-opacity:0.06"/><stop offset="0.75" style="stop-color:#7716a8;stop-opacity:0.45"/><stop offset="0.98" style="stop-color:#6e008b;stop-opacity:0.6"/><stop offset="1" style="stop-color:#6e008b;stop-opacity:0.6"/></radialGradient><radialGradient id="_Radial7" cx="0" cy="0" r="1" gradientUnits="userSpaceOnUse" gradientTransform="matrix(1966.25,0,0,1966.25,2706.44,486.913)"><stop offset="0" style="stop-color:#ffe226;stop-opacity:1"/><stop offset="0.12" style="stop-color:#ffdb27;stop-opacity:1"/><stop offset="0.29" style="stop-color:#ffc82a;stop-opacity:1"/><stop offset="0.5" style="stop-color:#ffa930;stop-opacity:1"/><stop offset="0.73" style="stop-color:#ff7e37;stop-opacity:1"/><stop offset="0.79" style="stop-color:#ff7139;stop-opacity:1"/><stop offset="1" style="stop-color:#ff7139;stop-opacity:1"/></radialGradient><radialGradient id="_Radial8" cx="0" cy="0" r="1" gradientUnits="userSpaceOnUse" gradientTransform="matrix(8389.21,0,0,8389.21,4269.21,-791.713)"><stop offset="0" style="stop-color:#fff44f;stop-opacity:1"/><stop offset="0.11" style="stop-color:#fff44f;stop-opacity:1"/><stop offset="0.46" style="stop-color:#ff980e;stop-opacity:1"/><stop offset="0.62" style="stop-color:#ff5634;stop-opacity:1"/><stop offset="0.72" style="stop-color:#ff3647;stop-opacity:1"/><stop offset="0.9" style="stop-color:#e31587;stop-opacity:1"/><stop offset="1" style="stop-color:#e31587;stop-opacity:1"/></radialGradient><radialGradient id="_Radial9" cx="0" cy="0" r="1" gradientUnits="userSpaceOnUse" gradientTransform="matrix(645.175,6113.79,-4012.36,423.971,3571.92,-326.578)"><stop offset="0" style="stop-color:#fff44f;stop-opacity:1"/><stop offset="0.06" style="stop-color:#ffe847;stop-opacity:1"/><stop offset="0.17" style="stop-color:#ffc830;stop-opacity:1"/><stop offset="0.3" style="stop-color:#ff980e;stop-opacity:1"/><stop offset="0.36" style="stop-color:#ff8b16;stop-opacity:1"/><stop offset="0.46" style="stop-color:#ff672a;stop-opacity:1"/><stop offset="0.57" style="stop-color:#ff3647;stop-opacity:1"/><stop offset="0.74" style="stop-color:#e31587;stop-opacity:1"/><stop offset="1" style="stop-color:#e31587;stop-opacity:1"/></radialGradient><radialGradient id="_Radial10" cx="0" cy="0" r="1" gradientUnits="userSpaceOnUse" gradientTransform="matrix(5731.79,0,0,5731.79,4056.09,1481.4)"><stop offset="0" style="stop-color:#fff44f;stop-opacity:1"/><stop offset="0.09" style="stop-color:#fff44f;stop-opacity:1"/><stop offset="0.23" style="stop-color:#ffe141;stop-opacity:1"/><stop offset="0.51" style="stop-color:#ffaf1e;stop-opacity:1"/><stop offset="0.63" style="stop-color:#ff980e;stop-opacity:1"/><stop offset="1" style="stop-color:#ff980e;stop-opacity:1"/></radialGradient><linearGradient id="_Linear11" x1="0" y1="0" x2="1" y2="0" gradientUnits="userSpaceOnUse" gradientTransform="matrix(-3888.44,3889.15,-3889.15,-3888.44,5029.96,917.092)"><stop offset="0" style="stop-color:#fff44f;stop-opacity:0.8"/><stop offset="0.17" style="stop-color:#fff44f;stop-opacity:0.8"/><stop offset="0.27" style="stop-color:#fff44f;stop-opacity:0.63"/><stop offset="0.49" style="stop-color:#fff44f;stop-opacity:0.22"/><stop offset="0.6" style="stop-color:#fff44f;stop-opacity:0"/><stop offset="1" style="stop-color:#fff44f;stop-opacity:0"/></linearGradient></defs></svg>