<?xml version="1.0" encoding="UTF-8" standalone="no"?><!DOCTYPE svg PUBLIC "-//W3C//DTD SVG 1.1//EN" "http://www.w3.org/Graphics/SVG/1.1/DTD/svg11.dtd"><svg width="100%" height="100%" viewBox="0 0 1000 1000" version="1.1" xmlns="http://www.w3.org/2000/svg" xmlns:xlink="http://www.w3.org/1999/xlink" xml:space="preserve" xmlns:serif="http://www.serif.com/" style="fill-rule:evenodd;clip-rule:evenodd;stroke-linejoin:round;stroke-miterlimit:2;"><rect id="Artboard1" x="0" y="0" width="1000" height="1000" style="fill:none;"/><clipPath id="_clip1"><rect x="0" y="0" width="1000" height="1000"/></clipPath><g clip-path="url(#_clip1)"><g><path d="M901.08,361.69c-0.032,-0.212 -0.064,-0.424 -0.097,-0.636l-0.01,-0.102l0.011,0.029l-0.086,-0.814c-8.675,-51.266 -25.232,-100.882 -49.089,-147.08c33.455,17.298 76.177,72.015 97.238,122.692l-0.049,-0.074c30.615,77.272 41.424,160.989 31.441,243.504c-0.724,6.315 -1.388,12.508 -2.201,18.759c-40.115,231.346 -242.833,401.932 -477.628,401.932c-265.608,0.001 -484.288,-218.294 -484.758,-483.901l-0,-2.5c0.217,-4.898 0.513,-9.792 0.885,-14.679c0.65,6.752 1.255,12.92 1.786,18.183c0.355,1.922 0.634,4.15 0.852,6.492c0.228,1.384 0.483,2.731 0.768,4.037l0.088,-0.027c0.807,4.771 1.725,9.684 2.683,14.405c43.498,213.875 240.042,375.569 462.437,381.805c210.488,5.955 344.935,-116.236 400.462,-235.376c46.953,-102.823 52.419,-219.908 15.267,-326.65l0,0.001Zm0,0c5.127,90.494 5.275,95.168 6.502,128.998c2.356,64.944 -10.311,130.149 -37.755,190.274c-53.234,114.161 -182.288,230.859 -383.98,225.153l-0.004,-0.001c-219.054,-6.142 -412.215,-168.638 -448.255,-381.549c-4.527,-20.813 -8.628,-63.147 -11.268,-95.753c0.93,-5.913 1.854,-11.503 2.275,-13.467l0.651,-3.204c11.769,-52.755 33.874,-102.658 65.034,-146.826l-0,0.011c13.559,-19.354 28.717,-37.542 45.312,-54.365c14.562,-14.902 30.417,-28.482 47.375,-40.584c5.074,-3.429 10.499,-6.309 16.182,-8.591c-1.101,16.771 -2.451,97.064 16.76,121.413l0.226,0c32.23,-37.808 71.963,-68.515 116.673,-90.172c-10.148,38.899 -9.678,79.819 1.363,118.474c4.291,2.9 8.424,6.029 12.379,9.373l-0.009,0.007c7.391,6.254 15.733,14.608 33.305,31.93c32.893,32.404 117.251,65.973 117.437,69.912l0.009,0.035c-59.237,21.447 -124.577,18.876 -181.945,-7.162c-56.557,-28.687 -124.143,-25.973 -178.219,7.152c20.605,44.566 65.731,72.95 114.823,72.226c-8.98,79.256 32.918,171.592 134.322,220.117c2.023,0.972 3.937,2.016 5.982,2.966c0.24,0.126 0.481,0.25 0.722,0.375c2.702,1.399 5.441,2.662 8.179,3.9c4.745,2.103 9.488,4.044 14.232,5.829c20.3,7.183 41.559,11.285 63.072,12.169c147.023,6.894 221.905,-101.563 218.726,-207.187c3.236,105.646 -71.643,214.176 -218.714,207.324c-21.513,-0.884 -42.773,-4.986 -63.071,-12.169c-4.744,-1.776 -9.489,-3.72 -14.232,-5.829c-2.739,-1.25 -5.478,-2.5 -8.18,-3.9l0.336,0.21c33.694,23.002 200.107,79.193 374.076,-62.533l0.275,-0.624c4.34,-10.129 61.922,-153.331 -48.023,-254.636l0.024,-0.052c-2.115,-1.937 -4.604,-3.939 -7.266,-5.951c-0.99,-0.739 -1.262,-0.964 -3.029,-2.35c-43.295,-76.411 -124.541,-123.86 -212.361,-124.031c-5.704,0 -11.285,0.469 -16.89,0.853c3.793,-66.07 45.147,-197.91 166.832,-269.158l-0.187,0.324c0.114,-0.049 0.275,-0.162 0.349,-0.186c0.077,-0.024 0.177,-0.138 0.238,-0.138c0.3,-0.082 0.615,-0.082 0.914,-0c0.627,0.077 1.103,0.618 1.101,1.251c1.653,6.66 4.081,13.1 7.228,19.198c1.49,3.039 3.201,6.34 5.341,10.005c3.738,6.416 7.577,12.495 11.419,18.56c75.876,119.874 168.716,175.034 223.531,311.452l0,0.402c0.061,0.174 0.122,0.348 0.182,0.523l0.001,0.002Zm-0.083,-0.572l0.088,0.049l-0.088,-0.513l-0,0.464Zm-510.619,354.112c2.35,1.22 4.701,2.391 7.051,3.515l-0.336,-0.214c-2.326,-1.036 -4.453,-2.213 -6.715,-3.301Zm315.469,-306.159c2.163,1.634 9.129,7.863 5.878,4.867c94.76,87.313 54.056,208.477 45.115,231.44c-40.977,32.765 -81.432,54.145 -119.543,67.451c7.923,-6.191 15.278,-12.886 22.063,-20.006c79.227,-83.146 80.028,-225.609 -3.074,-307.27c16.677,4.396 32.608,11.676 47.024,21.651c0.897,0.629 1.71,1.248 2.537,1.866l0,0.001Zm-423.027,150.735c0.595,-2.128 24.181,-83.337 160.197,-83.337c14.609,-0 55.868,-40.005 58.202,-52.915c-2.445,12.99 -43.609,52.838 -58.189,52.838c-137.835,0 -160.21,83.383 -160.21,83.383l0,0.031Zm-9.216,-22.97c-1.59,-13.467 -1.63,-26.856 -0.154,-39.877c0.569,-5.028 -1.052,-10.058 -4.45,-13.807c-3.398,-3.748 -8.245,-5.854 -13.304,-5.78c-36.61,0.54 -70.65,-17.773 -90.557,-47.669c46.021,-22.082 100.182,-21.767 146.247,1.598c0.227,0.115 0.456,0.225 0.688,0.33c43.694,19.832 91.698,26.976 138.61,21.221c-4.407,3.076 -8.02,5.373 -8.914,5.936c-110.016,0.378 -152.818,50.174 -168.166,78.048Zm244.778,-118.319c-0.381,-1.548 -0.831,-2.644 -1.334,-3.357c-1.487,-3.042 -4.18,-6.54 -9.037,-9.503c-13.675,-8.344 -83.089,-37.097 -111.805,-65.385c-7.344,-7.239 -13.125,-12.952 -17.911,-17.616c31.936,-20.689 68.714,-33.004 106.898,-35.623c5.244,-0.357 10.471,-0.819 15.814,-0.82c59.237,0.12 115.249,23.418 156.856,63.368c-20.719,-4.562 -42.24,-5.565 -63.625,-2.782c-7.677,0.999 -13.801,6.897 -15.089,14.531c-1.287,7.634 2.563,15.214 9.488,18.676c111.259,55.625 123.301,206.491 45.226,288.421c-33.634,35.295 -84.15,57.434 -150.575,54.319c-0.034,-0.002 -0.068,-0.003 -0.102,-0.005c-19.693,-0.808 -39.153,-4.554 -57.74,-11.111c-4.371,-1.648 -8.724,-3.43 -13.078,-5.358c-2.449,-1.108 -4.886,-2.226 -7.288,-3.47c-0.009,-0.005 -0.017,-0.009 -0.026,-0.013c-52.963,-27.329 -97.397,-78.35 -104.341,-140.782c5.099,-12.343 34.07,-67.931 142.304,-67.931c4.313,0 9.978,-1.293 16.244,-4.442c8.755,-4.4 20.069,-13.029 30.273,-22.661c10.121,-9.552 19.137,-20.051 23.862,-27.801c3.674,-6.025 5.233,-11.416 5.483,-15.176c-0,-0 0.611,-0.983 -0.497,-5.478l0,-0.001Z" style="fill:url(#_Linear2);"/><path d="M949.047,335.779c-21.061,-50.677 -63.784,-105.394 -97.239,-122.692c23.858,46.199 40.415,95.814 49.09,147.081l-0,0.462l0.086,0.513c37.355,106.882 31.948,224.182 -15.082,327.173c-55.555,119.2 -189.978,241.378 -400.462,235.376c-227.369,-6.44 -427.728,-175.217 -465.124,-396.211c-6.817,-34.854 -0,-52.528 3.427,-80.854c-4.674,22.004 -7.282,44.394 -7.792,66.886l-0,2.5c0.471,265.607 219.15,483.903 484.757,483.903c234.797,-0 437.515,-170.589 477.631,-401.933c0.813,-6.254 1.476,-12.446 2.201,-18.762c9.982,-82.514 -0.826,-166.23 -31.441,-243.503l-0.052,0.061l-0,0Z" style="fill:url(#_Radial3);fill-rule:nonzero;"/><path d="M949.047,335.779c-21.061,-50.677 -63.784,-105.394 -97.239,-122.692c23.858,46.199 40.415,95.814 49.09,147.081l-0,0.462l0.086,0.513c37.355,106.882 31.948,224.182 -15.082,327.173c-55.555,119.2 -189.978,241.378 -400.462,235.376c-227.369,-6.44 -427.728,-175.217 -465.124,-396.211c-6.817,-34.854 -0,-52.528 3.427,-80.854c-4.674,22.004 -7.282,44.394 -7.792,66.886l-0,2.5c0.471,265.607 219.15,483.903 484.757,483.903c234.797,-0 437.515,-170.589 477.631,-401.933c0.813,-6.254 1.476,-12.446 2.201,-18.762c9.982,-82.514 -0.826,-166.23 -31.441,-243.503l-0.052,0.061l-0,0Z" style="fill:url(#_Radial4);fill-rule:nonzero;"/><path d="M713.422,392.685c1.049,0.737 2.024,1.477 3.015,2.213c-12.178,-21.589 -27.334,-41.357 -45.025,-58.719c-150.706,-150.705 -39.483,-326.674 -20.737,-335.68l0.187,-0.275c-121.75,71.291 -163.085,203.236 -166.839,269.271c5.655,-0.389 11.258,-0.865 17.035,-0.865c87.824,0.171 169.067,47.62 212.364,124.03l0,0.024l0,0.001Z" style="fill:url(#_Radial5);fill-rule:nonzero;"/><path d="M518.38,418.515c-0.381,-1.548 -0.831,-2.644 -1.334,-3.357c-1.487,-3.042 -4.18,-6.54 -9.037,-9.504c-13.674,-8.343 -83.089,-37.096 -111.804,-65.384c-7.345,-7.239 -13.126,-12.952 -17.911,-17.616c31.936,-20.69 68.714,-33.004 106.898,-35.623c5.244,-0.357 10.47,-0.819 15.814,-0.82c59.236,0.12 115.249,23.418 156.855,63.368c-20.718,-4.562 -42.239,-5.565 -63.625,-2.782c-7.677,0.999 -13.801,6.897 -15.088,14.531c-1.288,7.634 2.563,15.214 9.487,18.676c111.259,55.625 123.301,206.491 45.227,288.421c-33.635,35.295 -84.15,57.434 -150.575,54.319c-0.035,-0.002 -0.069,-0.003 -0.103,-0.005c-19.692,-0.808 -39.153,-4.554 -57.74,-11.111c-4.37,-1.648 -8.724,-3.43 -13.078,-5.358c-2.448,-1.108 -4.886,-2.226 -7.288,-3.47c-0.009,-0.005 -0.017,-0.009 -0.025,-0.013c-52.964,-27.329 -97.398,-78.35 -104.341,-140.782c5.099,-12.343 34.069,-67.931 142.303,-67.931c4.313,-0 9.978,-1.293 16.244,-4.442c8.756,-4.4 20.069,-13.029 30.274,-22.661c10.121,-9.553 19.137,-20.051 23.862,-27.801c3.673,-6.025 5.232,-11.416 5.482,-15.177c0,0 0.611,-0.982 -0.497,-5.477l0,-0.001Z" style="fill:url(#_Radial6);"/><path d="M518.38,418.515c-0.381,-1.548 -0.831,-2.644 -1.334,-3.357c-1.487,-3.042 -4.18,-6.54 -9.037,-9.504c-13.674,-8.343 -83.089,-37.096 -111.804,-65.384c-7.345,-7.239 -13.126,-12.952 -17.911,-17.616c31.936,-20.69 68.714,-33.004 106.898,-35.623c5.244,-0.357 10.47,-0.819 15.814,-0.82c59.236,0.12 115.249,23.418 156.855,63.368c-20.718,-4.562 -42.239,-5.565 -63.625,-2.782c-7.677,0.999 -13.801,6.897 -15.088,14.531c-1.288,7.634 2.563,15.214 9.487,18.676c111.259,55.625 123.301,206.491 45.227,288.421c-33.635,35.295 -84.15,57.434 -150.575,54.319c-0.035,-0.002 -0.069,-0.003 -0.103,-0.005c-19.692,-0.808 -39.153,-4.554 -57.74,-11.111c-4.37,-1.648 -8.724,-3.43 -13.078,-5.358c-2.448,-1.108 -4.886,-2.226 -7.288,-3.47c-0.009,-0.005 -0.017,-0.009 -0.025,-0.013c-52.964,-27.329 -97.398,-78.35 -104.341,-140.782c5.099,-12.343 34.069,-67.931 142.303,-67.931c4.313,-0 9.978,-1.293 16.244,-4.442c8.756,-4.4 20.069,-13.029 30.274,-22.661c10.121,-9.553 19.137,-20.051 23.862,-27.801c3.673,-6.025 5.232,-11.416 5.482,-15.177c0,0 0.611,-0.982 -0.497,-5.477l0,-0.001Z" style="fill:url(#_Radial7);"/><path d="M327.966,304.887c3.927,2.501 7.168,4.677 10.007,6.639c-11.044,-38.654 -11.514,-79.574 -1.363,-118.473c-44.713,21.656 -84.444,52.364 -116.676,90.171c2.365,-0.061 72.678,-1.326 108.032,21.663Z" style="fill:url(#_Radial8);fill-rule:nonzero;"/><path d="M26.14,426.57c1.652,-8.63 2.906,-14.102 2.97,-14.364c11.767,-52.755 33.874,-102.661 65.033,-146.83l0,0.016c13.623,-19.322 28.843,-37.466 45.498,-54.244c14.562,-14.898 30.417,-28.479 47.376,-40.583c5.076,-3.427 10.499,-6.309 16.185,-8.592c-1.101,16.771 -2.452,97.064 16.757,121.413l0.225,0c2.327,-0.061 72.639,-1.323 107.996,21.663c3.891,2.552 7.127,4.676 10.004,6.642c4.338,2.931 8.513,6.095 12.508,9.479c7.391,6.266 15.733,14.608 33.305,31.93c32.893,32.391 117.251,65.971 117.437,69.912c-59.244,21.457 -124.595,18.89 -181.973,-7.153c-56.557,-28.687 -124.143,-25.972 -178.219,7.153c20.605,44.566 65.731,72.95 114.824,72.225c-9.005,79.294 32.905,171.641 134.322,220.117c2.351,1.217 4.701,2.391 7.052,3.515c33.645,22.938 200.107,79.168 374.074,-62.533l0.275,-0.626c75.935,-62.649 128.594,-150.655 132.064,-244.639c2.474,44.694 2.776,53.402 3.727,79.616c2.356,64.944 -10.311,130.149 -37.755,190.274c-53.234,114.161 -182.288,230.859 -383.98,225.153l-0.004,-0c-219.054,-6.143 -412.215,-168.639 -448.255,-381.55c-4.631,-21.294 -8.817,-65.114 -11.449,-97.996l0.003,0.002Zm459.21,497.145c-222.404,-6.237 -418.947,-167.92 -462.437,-381.806c43.498,213.876 240.042,375.569 462.437,381.806Zm-462.437,-381.806c-0.971,-4.776 -1.866,-9.578 -2.683,-14.404c0.808,4.77 1.725,9.684 2.683,14.404Zm-3.539,-18.414c-0.343,-2.086 -0.626,-4.255 -0.852,-6.493c0.356,1.923 0.634,4.15 0.852,6.493Z" style="fill:url(#_Radial9);"/><path d="M671.401,336.154c17.695,17.381 32.853,37.169 45.025,58.78c2.662,2.014 5.15,4.016 7.265,5.954c109.897,101.304 52.316,244.506 48.027,254.636c89.269,-73.553 146.325,-182.349 129.193,-294.657c-54.831,-136.697 -147.829,-191.851 -223.619,-311.791c-3.839,-6.065 -7.679,-12.144 -11.42,-18.56c-2.136,-3.666 -3.851,-6.967 -5.34,-10.005c-3.148,-6.095 -5.572,-12.538 -7.229,-19.199c0.006,-0.633 -0.471,-1.173 -1.1,-1.25c-0.3,-0.083 -0.614,-0.083 -0.911,-0c-0.064,-0 -0.165,0.113 -0.239,0.138c-0.076,0.024 -0.238,0.137 -0.351,0.189c-18.747,8.892 -129.945,184.971 20.761,335.551l-0.061,0.214l-0.001,0Z" style="fill:url(#_Radial10);fill-rule:nonzero;"/><path d="M273.602,536.833c-1.59,-13.466 -1.629,-26.856 -0.154,-39.876c0.57,-5.028 -1.051,-10.058 -4.45,-13.807c-3.398,-3.749 -8.245,-5.854 -13.304,-5.78c-36.61,0.54 -70.65,-17.774 -90.557,-47.67c46.022,-22.081 100.182,-21.767 146.248,1.598c0.227,0.115 0.456,0.225 0.687,0.33c43.694,19.833 91.698,26.977 138.61,21.221c-4.407,3.077 -8.019,5.374 -8.914,5.937c-110.015,0.377 -152.817,50.174 -168.166,78.047Z" style="fill:url(#_Radial11);"/><path d="M901.15,361.622c-0.047,-0.141 -0.071,-0.204 -0.106,-0.305l-0.06,-0.174l-0.086,-0.513l-0,-0.463c-8.675,-51.266 -25.232,-100.881 -49.09,-147.08c33.455,17.298 76.178,72.015 97.239,122.692l-0.025,0.024c30.616,77.273 41.427,160.992 31.441,243.505c-0.725,6.316 -1.388,12.505 -2.201,18.759c-40.116,231.345 -242.83,401.933 -477.628,401.933c-265.606,-0 -484.288,-218.295 -484.756,-483.901l-0,-2.504c0.222,-4.922 0.509,-9.84 0.861,-14.753c0.648,6.742 1.252,12.902 1.783,18.159c0.355,1.923 0.634,4.15 0.852,6.492c0.228,1.384 0.483,2.731 0.767,4.038l0.088,-0.028c0.808,4.771 1.725,9.685 2.683,14.405c43.498,213.876 240.042,375.569 462.437,381.805c210.488,5.955 344.936,-116.235 400.463,-235.376c46.953,-102.823 51.336,-219.581 15.338,-326.718l0,0.003Zm0.057,1.248c4.692,28.085 5.147,93.988 6.374,127.819c2.356,64.944 -10.311,130.148 -37.755,190.274c-53.234,114.161 -182.288,230.858 -383.979,225.152l-0.005,-0c-219.053,-6.143 -412.215,-168.639 -448.255,-381.55c-4.576,-21.042 -8.718,-64.082 -11.355,-96.826c1.028,-5.484 1.997,-10.473 2.387,-12.293l0.651,-3.203c11.771,-52.756 33.874,-102.662 65.033,-146.828l0,0.013c13.56,-19.355 28.718,-37.542 45.313,-54.366c14.562,-14.901 30.417,-28.482 47.375,-40.587c5.074,-3.426 10.5,-6.305 16.182,-8.592c-1.1,16.772 -2.449,97.064 16.759,121.417l0.227,-0c32.229,-37.808 71.963,-68.515 116.673,-90.175c-10.148,38.903 -9.677,79.822 1.363,118.476c4.337,2.932 8.513,6.099 12.508,9.479c7.391,6.267 15.733,14.608 33.306,31.93c32.892,32.395 117.25,65.976 117.436,69.912c-0.764,12.059 -43.398,53.642 -58.293,53.642c-137.835,-0 -160.209,83.383 -160.209,83.383c6.101,70.162 54.977,127.991 114.172,158.582c-2.326,-1.036 -4.453,-2.212 -6.715,-3.301c2.35,1.22 4.701,2.391 7.052,3.515l-0.337,-0.214c2.702,1.404 5.441,2.654 8.18,3.904c4.744,2.109 9.488,4.053 14.231,5.829c20.3,7.183 41.559,11.285 63.072,12.169c29.804,1.388 56.644,-1.962 80.47,-9.067c-23.857,7.13 -50.739,10.494 -80.596,9.103c-21.513,-0.883 -42.772,-4.985 -63.071,-12.168c-4.744,-1.777 -9.488,-3.721 -14.232,-5.83c-2.739,-1.25 -5.478,-2.5 -8.179,-3.9l0.335,0.211c33.694,23.001 200.108,79.192 374.076,-62.533l0.275,-0.624c4.34,-10.13 61.922,-153.331 -48.023,-254.636l0.024,-0.052c-2.115,-1.937 -3.055,-2.755 -5.718,-4.767c-0.99,-0.739 -1.296,-0.903 -4.438,-3.437c-43.295,-76.407 -124.541,-123.859 -212.363,-124.027c-5.777,-0 -11.379,0.474 -17.034,0.862c3.753,-66.033 45.085,-197.981 166.839,-269.269l-0.187,0.324c0.113,-0.049 0.275,-0.162 0.348,-0.186c0.077,-0.024 0.178,-0.138 0.239,-0.138c0.3,-0.082 0.614,-0.082 0.914,0c0.626,0.077 1.103,0.618 1.1,1.251c1.654,6.66 4.081,13.101 7.229,19.198c1.489,3.039 3.201,6.34 5.341,10.005c3.737,6.416 7.577,12.495 11.419,18.56c75.876,119.875 168.716,175.034 223.531,311.452l0.055,0.388c0.033,0.201 0.22,1.507 0.254,1.716l0.001,0.003Zm-195.376,46.188c2.342,1.84 3.028,2.321 5.664,4.769c95.281,88.487 54.284,208.589 45.344,231.551c-40.978,32.765 -81.433,54.146 -119.543,67.451c7.923,-6.191 15.278,-12.886 22.062,-20.006c79.227,-83.145 80.028,-225.608 -3.073,-307.27c16.676,4.396 32.607,11.676 47.024,21.651c0.897,0.629 1.71,1.217 2.522,1.854l-0,0Z" style="fill:url(#_Linear12);"/></g></g><defs><linearGradient id="_Linear2" x1="0" y1="0" x2="1" y2="0" gradientUnits="userSpaceOnUse" gradientTransform="matrix(-804.714,776.412,-776.412,-804.714,884.887,155.131)"><stop offset="0" style="stop-color:#fff44f;stop-opacity:1"/><stop offset="0.05" style="stop-color:#fff44f;stop-opacity:1"/><stop offset="0.11" style="stop-color:#ffe847;stop-opacity:1"/><stop offset="0.23" style="stop-color:#ffc830;stop-opacity:1"/><stop offset="0.37" style="stop-color:#ff980e;stop-opacity:1"/><stop offset="0.4" style="stop-color:#ff8b16;stop-opacity:1"/><stop offset="0.46" style="stop-color:#ff672a;stop-opacity:1"/><stop offset="0.53" style="stop-color:#ff3647;stop-opacity:1"/><stop offset="0.71" style="stop-color:#e31587;stop-opacity:1"/><stop offset="1" style="stop-color:#e31587;stop-opacity:1"/></linearGradient><radialGradient id="_Radial3" cx="0" cy="0" r="1" gradientUnits="userSpaceOnUse" gradientTransform="matrix(1010.53,0,0,1010.53,853.745,112.785)"><stop offset="0" style="stop-color:#ffbd4f;stop-opacity:1"/><stop offset="0.13" style="stop-color:#ffbd4f;stop-opacity:1"/><stop offset="0.19" style="stop-color:#ffac31;stop-opacity:1"/><stop offset="0.25" style="stop-color:#ff9d17;stop-opacity:1"/><stop offset="0.28" style="stop-color:#ff980e;stop-opacity:1"/><stop offset="0.4" style="stop-color:#ff563b;stop-opacity:1"/><stop offset="0.47" style="stop-color:#ff3750;stop-opacity:1"/><stop offset="0.71" style="stop-color:#f5156c;stop-opacity:1"/><stop offset="0.78" style="stop-color:#eb0878;stop-opacity:1"/><stop offset="0.86" style="stop-color:#e50080;stop-opacity:1"/><stop offset="1" style="stop-color:#e50080;stop-opacity:1"/></radialGradient><radialGradient id="_Radial4" cx="0" cy="0" r="1" gradientUnits="userSpaceOnUse" gradientTransform="matrix(1010.53,0,0,1010.53,478.546,525.506)"><stop offset="0" style="stop-color:#960e18;stop-opacity:1"/><stop offset="0.3" style="stop-color:#960e18;stop-opacity:1"/><stop offset="0.35" style="stop-color:#b11927;stop-opacity:0.74"/><stop offset="0.44" style="stop-color:#db293d;stop-opacity:0.34"/><stop offset="0.5" style="stop-color:#f5334b;stop-opacity:0.09"/><stop offset="0.53" style="stop-color:#ff3750;stop-opacity:0"/><stop offset="1" style="stop-color:#ff3750;stop-opacity:0"/></radialGradient><radialGradient id="_Radial5" cx="0" cy="0" r="1" gradientUnits="userSpaceOnUse" gradientTransform="matrix(732.014,0,0,732.014,603.613,-112.335)"><stop offset="0" style="stop-color:#fff44f;stop-opacity:1"/><stop offset="0.13" style="stop-color:#fff44f;stop-opacity:1"/><stop offset="0.25" style="stop-color:#ffdc3e;stop-opacity:1"/><stop offset="0.51" style="stop-color:#ff9d12;stop-opacity:1"/><stop offset="1" style="stop-color:#ff980e;stop-opacity:1"/></radialGradient><radialGradient id="_Radial6" cx="0" cy="0" r="1" gradientUnits="userSpaceOnUse" gradientTransform="matrix(481.132,0,0,481.132,365.987,788.142)"><stop offset="0" style="stop-color:#3a8ee6;stop-opacity:1"/><stop offset="0.35" style="stop-color:#3a8ee6;stop-opacity:1"/><stop offset="0.47" style="stop-color:#5c79f0;stop-opacity:1"/><stop offset="0.67" style="stop-color:#9059ff;stop-opacity:1"/><stop offset="1" style="stop-color:#c139e6;stop-opacity:1"/></radialGradient><radialGradient id="_Radial7" cx="0" cy="0" r="1" gradientUnits="userSpaceOnUse" gradientTransform="matrix(247.991,-59.9568,70.1623,290.343,527.421,438.757)"><stop offset="0" style="stop-color:#9059ff;stop-opacity:0"/><stop offset="0.21" style="stop-color:#9059ff;stop-opacity:0"/><stop offset="0.28" style="stop-color:#8c4ff3;stop-opacity:0.06"/><stop offset="0.75" style="stop-color:#7716a8;stop-opacity:0.45"/><stop offset="0.98" style="stop-color:#6e008b;stop-opacity:0.6"/><stop offset="1" style="stop-color:#6e008b;stop-opacity:0.6"/></radialGradient><radialGradient id="_Radial8" cx="0" cy="0" r="1" gradientUnits="userSpaceOnUse" gradientTransform="matrix(346.186,0,0,346.186,466.042,75.2649)"><stop offset="0" style="stop-color:#ffe226;stop-opacity:1"/><stop offset="0.12" style="stop-color:#ffdb27;stop-opacity:1"/><stop offset="0.29" style="stop-color:#ffc82a;stop-opacity:1"/><stop offset="0.5" style="stop-color:#ffa930;stop-opacity:1"/><stop offset="0.73" style="stop-color:#ff7e37;stop-opacity:1"/><stop offset="0.79" style="stop-color:#ff7139;stop-opacity:1"/><stop offset="1" style="stop-color:#ff7139;stop-opacity:1"/></radialGradient><radialGradient id="_Radial9" cx="0" cy="0" r="1" gradientUnits="userSpaceOnUse" gradientTransform="matrix(1477.04,0,0,1477.04,741.189,-149.855)"><stop offset="0" style="stop-color:#fff44f;stop-opacity:1"/><stop offset="0.11" style="stop-color:#fff44f;stop-opacity:1"/><stop offset="0.46" style="stop-color:#ff980e;stop-opacity:1"/><stop offset="0.62" style="stop-color:#ff5634;stop-opacity:1"/><stop offset="0.72" style="stop-color:#ff3647;stop-opacity:1"/><stop offset="0.9" style="stop-color:#e31587;stop-opacity:1"/><stop offset="1" style="stop-color:#e31587;stop-opacity:1"/></radialGradient><radialGradient id="_Radial10" cx="0" cy="0" r="1" gradientUnits="userSpaceOnUse" gradientTransform="matrix(113.592,1076.42,-706.432,74.646,618.422,-67.9615)"><stop offset="0" style="stop-color:#fff44f;stop-opacity:1"/><stop offset="0.06" style="stop-color:#ffe847;stop-opacity:1"/><stop offset="0.17" style="stop-color:#ffc830;stop-opacity:1"/><stop offset="0.3" style="stop-color:#ff980e;stop-opacity:1"/><stop offset="0.36" style="stop-color:#ff8b16;stop-opacity:1"/><stop offset="0.46" style="stop-color:#ff672a;stop-opacity:1"/><stop offset="0.57" style="stop-color:#ff3647;stop-opacity:1"/><stop offset="0.74" style="stop-color:#e31587;stop-opacity:1"/><stop offset="1" style="stop-color:#e31587;stop-opacity:1"/></radialGradient><radialGradient id="_Radial11" cx="0" cy="0" r="1" gradientUnits="userSpaceOnUse" gradientTransform="matrix(1009.16,0,0,1009.16,703.667,250.358)"><stop offset="0" style="stop-color:#fff44f;stop-opacity:1"/><stop offset="0.09" style="stop-color:#fff44f;stop-opacity:1"/><stop offset="0.23" style="stop-color:#ffe141;stop-opacity:1"/><stop offset="0.51" style="stop-color:#ffaf1e;stop-opacity:1"/><stop offset="0.63" style="stop-color:#ff980e;stop-opacity:1"/><stop offset="1" style="stop-color:#ff980e;stop-opacity:1"/></radialGradient><linearGradient id="_Linear12" x1="0" y1="0" x2="1" y2="0" gradientUnits="userSpaceOnUse" gradientTransform="matrix(-684.614,684.739,-684.739,-684.614,875.13,151.004)"><stop offset="0" style="stop-color:#fff44f;stop-opacity:0.8"/><stop offset="0.17" style="stop-color:#fff44f;stop-opacity:0.8"/><stop offset="0.27" style="stop-color:#fff44f;stop-opacity:0.63"/><stop offset="0.49" style="stop-color:#fff44f;stop-opacity:0.22"/><stop offset="0.6" style="stop-color:#fff44f;stop-opacity:0"/><stop offset="1" style="stop-color:#fff44f;stop-opacity:0"/></linearGradient></defs></svg>