<?xml version="1.0" encoding="UTF-8" standalone="no"?><!DOCTYPE svg PUBLIC "-//W3C//DTD SVG 1.1//EN" "http://www.w3.org/Graphics/SVG/1.1/DTD/svg11.dtd"><svg width="100%" height="100%" viewBox="0 0 1392 1392" version="1.1" xmlns="http://www.w3.org/2000/svg" xmlns:xlink="http://www.w3.org/1999/xlink" xml:space="preserve" xmlns:serif="http://www.serif.com/" style="fill-rule:evenodd;clip-rule:evenodd;stroke-linejoin:round;stroke-miterlimit:2;"><g><path d="M1307.95,471.976c-28.709,-69.08 -86.946,-143.667 -132.55,-167.246c32.521,62.975 55.091,130.608 66.916,200.491l0.117,1.109c-74.704,-186.171 -201.337,-261.354 -304.821,-424.846c-5.237,-8.267 -10.471,-16.554 -15.566,-25.3c-2.917,-4.996 -5.25,-9.496 -7.28,-13.638c-4.291,-8.312 -7.6,-17.091 -9.854,-26.17c0.004,-0.863 -0.646,-1.6 -1.5,-1.705c-0.408,-0.112 -0.837,-0.112 -1.246,0c-0.083,0 -0.22,0.155 -0.325,0.188c-0.1,0.033 -0.32,0.187 -0.475,0.254l0.255,-0.442c-165.967,97.175 -222.309,277.038 -227.425,367.05c-66.292,4.546 -129.7,28.975 -181.905,70.088c-5.445,-4.613 -11.137,-8.929 -17.05,-12.925c-15.05,-52.692 -15.691,-108.471 -1.858,-161.496c-60.946,29.521 -115.108,71.379 -159.042,122.917l-0.308,-0c-26.187,-33.192 -24.346,-142.642 -22.846,-165.504c-7.746,3.112 -15.141,7.037 -22.058,11.712c-23.117,16.496 -44.729,35.008 -64.579,55.321c-22.621,22.933 -43.284,47.725 -61.767,74.108l0,0.104l0,-0.12c-42.475,60.208 -72.608,128.233 -88.65,200.145l-0.887,4.367c-1.246,5.813 -5.73,34.933 -6.496,41.258c-0,0.492 -0.104,0.955 -0.154,1.446c-5.784,30.063 -9.367,60.509 -10.725,91.092l-0,3.408c0.641,362.059 298.733,659.625 660.795,659.625c320.059,0 596.392,-232.533 651.075,-547.891c1.109,-8.521 2.013,-16.963 3,-25.571c13.609,-112.479 -1.125,-226.596 -42.858,-331.929l0.067,0.1Zm-761.546,517.245c3.083,1.484 5.983,3.088 9.154,4.5l0.458,0.292c-3.204,-1.533 -6.408,-3.129 -9.612,-4.792Zm696.046,-482.704l-0,-0.633l0.121,0.7l-0.121,-0.067Z" style="fill:url(#_Linear1);fill-rule:nonzero;"/><path d="M1307.95,471.976c-28.709,-69.08 -86.946,-143.667 -132.55,-167.246c32.521,62.975 55.091,130.608 66.916,200.491l0,0.63l0.117,0.7c50.921,145.695 43.55,305.591 -20.558,445.983c-75.729,162.487 -258.967,329.033 -545.888,320.85c-309.937,-8.779 -583.054,-238.846 -634.029,-540.092c-9.292,-47.512 0,-71.604 4.671,-110.216c-6.371,29.995 -9.925,60.516 -10.621,91.175l0,3.408c0.642,362.058 298.733,659.629 660.792,659.629c320.062,0 596.396,-232.537 651.079,-547.892c1.108,-8.525 2.012,-16.966 3,-25.575c13.608,-112.479 -1.125,-226.595 -42.858,-331.929l-0.071,0.084Z" style="fill:url(#_Radial2);fill-rule:nonzero;"/><path d="M1307.95,471.976c-28.709,-69.08 -86.946,-143.667 -132.55,-167.246c32.521,62.975 55.091,130.608 66.916,200.491l0,0.63l0.117,0.7c50.921,145.695 43.55,305.591 -20.558,445.983c-75.729,162.487 -258.967,329.033 -545.888,320.85c-309.937,-8.779 -583.054,-238.846 -634.029,-540.092c-9.292,-47.512 0,-71.604 4.671,-110.216c-6.371,29.995 -9.925,60.516 -10.621,91.175l0,3.408c0.642,362.058 298.733,659.629 660.792,659.629c320.062,0 596.396,-232.537 651.079,-547.892c1.108,-8.525 2.012,-16.966 3,-25.575c13.608,-112.479 -1.125,-226.595 -42.858,-331.929l-0.071,0.084Z" style="fill:url(#_Radial3);fill-rule:nonzero;"/><path d="M986.761,549.546c1.429,1.005 2.759,2.013 4.109,3.017c-16.6,-29.429 -37.259,-56.375 -61.375,-80.042c-205.434,-205.433 -53.821,-445.304 -28.267,-457.579l0.254,-0.375c-165.962,97.179 -222.308,277.038 -227.425,367.054c7.708,-0.529 15.346,-1.179 23.221,-1.179c119.717,0.234 230.462,64.913 289.483,169.071l0,0.033Z" style="fill:url(#_Radial4);fill-rule:nonzero;"/><path d="M697.62,590.634c-1.092,16.433 -59.159,73.121 -79.463,73.121c-187.871,-0 -218.387,113.658 -218.387,113.658c8.316,95.708 75.012,174.575 155.633,216.175c3.683,1.908 7.417,3.629 11.15,5.317c6.467,2.866 12.933,5.512 19.4,7.946c27.671,9.791 56.65,15.383 85.975,16.587c329.375,15.446 393.133,-393.817 155.462,-512.642c56.05,-7.295 112.855,6.5 159.317,38.684c-59.017,-104.159 -169.767,-168.838 -289.479,-169.071c-7.842,-0 -15.513,0.65 -23.221,1.175c-66.292,4.546 -129.7,28.975 -181.904,70.087c10.075,8.525 21.446,19.913 45.4,43.525c44.837,44.171 159.829,89.93 160.083,95.3l0.034,0.138Z" style="fill:url(#_Radial5);fill-rule:nonzero;"/><path d="M697.62,590.634c-1.092,16.433 -59.159,73.121 -79.463,73.121c-187.871,-0 -218.387,113.658 -218.387,113.658c8.316,95.708 75.012,174.575 155.633,216.175c3.683,1.908 7.417,3.629 11.15,5.317c6.467,2.866 12.933,5.512 19.4,7.946c27.671,9.791 56.65,15.383 85.975,16.587c329.375,15.446 393.133,-393.817 155.462,-512.642c56.05,-7.295 112.855,6.5 159.317,38.684c-59.017,-104.159 -169.767,-168.838 -289.479,-169.071c-7.842,-0 -15.513,0.65 -23.221,1.175c-66.292,4.546 -129.7,28.975 -181.904,70.087c10.075,8.525 21.446,19.913 45.4,43.525c44.837,44.171 159.829,89.93 160.083,95.3l0.034,0.138Z" style="fill:url(#_Radial6);fill-rule:nonzero;"/><path d="M461.328,429.867c5.354,3.409 9.771,6.375 13.642,9.05c-15.055,-52.691 -15.696,-108.471 -1.859,-161.496c-60.95,29.521 -115.108,71.38 -159.046,122.917c3.225,-0.083 99.071,-1.808 147.263,29.529Z" style="fill:url(#_Radial7);fill-rule:nonzero;"/><path d="M41.84,733.326c50.992,301.245 324.088,531.4 634.025,540.091c286.925,8.117 470.196,-158.446 545.888,-320.85c64.108,-140.391 71.479,-300.287 20.562,-445.983l0,-0.629c0,-0.496 -0.104,-0.788 0,-0.634l0.117,1.109c23.442,153.046 -54.4,301.246 -176.108,401.658l-0.375,0.854c-237.142,193.159 -464.054,116.509 -509.917,85.242c-3.204,-1.533 -6.408,-3.133 -9.612,-4.792c-138.246,-66.079 -195.375,-191.962 -183.1,-300.05c-66.921,0.988 -128.434,-37.704 -156.521,-98.454c73.712,-45.154 165.841,-48.854 242.937,-9.75c78.213,35.5 167.296,39 248.054,9.75c-0.254,-5.371 -115.245,-51.146 -160.083,-95.3c-23.954,-23.612 -35.325,-34.983 -45.4,-43.525c-5.446,-4.612 -11.137,-8.925 -17.05,-12.921c-3.921,-2.679 -8.333,-5.575 -13.637,-9.054c-48.196,-31.333 -144.042,-29.612 -147.213,-29.529l-0.308,-0c-26.184,-33.192 -24.342,-142.642 -22.842,-165.504c-7.75,3.112 -15.142,7.041 -22.062,11.712c-23.117,16.5 -44.73,35.013 -64.58,55.321c-22.704,22.871 -43.45,47.604 -62.02,73.942l-0,0.1l-0,-0.121c-42.475,60.208 -72.609,128.237 -88.65,200.15c-0.325,1.346 -23.8,103.979 -12.225,157.204l0.12,-0.037Z" style="fill:url(#_Radial8);fill-rule:nonzero;"/><path d="M929.478,472.488c24.121,23.692 44.783,50.667 61.375,80.125c3.629,2.746 7.021,5.475 9.904,8.117c149.804,138.091 71.313,333.296 65.467,347.104c121.687,-100.263 199.462,-248.567 176.108,-401.658c-74.742,-186.338 -201.512,-261.521 -304.825,-425.017c-5.233,-8.267 -10.467,-16.554 -15.567,-25.3c-2.912,-4.996 -5.25,-9.496 -7.279,-13.638c-4.291,-8.308 -7.596,-17.091 -9.854,-26.17c0.008,-0.863 -0.642,-1.6 -1.5,-1.705c-0.408,-0.112 -0.837,-0.112 -1.242,0c-0.087,0 -0.225,0.155 -0.325,0.188c-0.104,0.033 -0.325,0.187 -0.479,0.258c-25.554,12.121 -177.133,252.142 28.3,457.404l-0.083,0.292Z" style="fill:url(#_Radial9);fill-rule:nonzero;"/><path d="M1000.74,560.796c-2.883,-2.641 -6.275,-5.37 -9.904,-8.112c-1.35,-1.008 -2.679,-2.013 -4.112,-3.017c-46.463,-32.183 -103.267,-45.979 -159.317,-38.683c237.654,118.825 173.896,527.987 -155.462,512.642c-29.325,-1.205 -58.305,-6.796 -85.975,-16.588c-6.467,-2.421 -12.934,-5.071 -19.4,-7.946c-3.734,-1.704 -7.467,-3.408 -11.15,-5.316l0.458,0.287c45.929,31.354 272.775,107.95 509.917,-85.242l0.375,-0.85c5.916,-13.808 84.408,-209.012 -65.463,-347.104l0.033,-0.071Z" style="fill:url(#_Radial10);fill-rule:nonzero;"/><path d="M399.786,777.313c0,0 30.5,-113.662 218.388,-113.662c20.304,-0 78.425,-56.688 79.462,-73.121c-80.758,29.25 -169.841,25.75 -248.054,-9.75c-77.096,-39.104 -169.225,-35.404 -242.937,9.75c28.087,60.75 89.6,99.441 156.52,98.454c-12.241,108.037 44.871,233.904 183.1,300.05c3.084,1.483 5.984,3.087 9.155,4.5c-80.692,-41.683 -147.317,-120.513 -155.634,-216.171l0,-0.05Z" style="fill:url(#_Radial11);fill-rule:nonzero;"/><path d="M1307.95,471.976c-28.709,-69.08 -86.946,-143.667 -132.55,-167.246c32.521,62.975 55.091,130.608 66.916,200.491l0.117,1.109c-74.704,-186.171 -201.337,-261.354 -304.821,-424.846c-5.237,-8.267 -10.471,-16.554 -15.566,-25.3c-2.917,-4.996 -5.25,-9.496 -7.28,-13.638c-4.291,-8.312 -7.6,-17.091 -9.854,-26.17c0.004,-0.863 -0.646,-1.6 -1.5,-1.705c-0.408,-0.112 -0.837,-0.112 -1.246,0c-0.083,0 -0.22,0.155 -0.325,0.188c-0.1,0.033 -0.32,0.187 -0.475,0.254l0.255,-0.442c-165.967,97.175 -222.309,277.038 -227.425,367.05c7.708,-0.529 15.345,-1.175 23.22,-1.175c119.713,0.23 230.463,64.913 289.48,169.067c-46.463,-32.183 -103.267,-45.975 -159.317,-38.683c237.654,118.829 173.896,527.987 -155.463,512.646c-29.325,-1.205 -58.304,-6.796 -85.975,-16.588c-6.466,-2.421 -12.933,-5.071 -19.4,-7.946c-3.733,-1.704 -7.466,-3.408 -11.15,-5.321l0.459,0.292c-3.204,-1.533 -6.409,-3.129 -9.613,-4.792c3.084,1.484 5.984,3.088 9.154,4.5c-80.691,-41.7 -147.316,-120.529 -155.633,-216.17c0,-0 30.5,-113.663 218.388,-113.663c20.304,0 78.42,-56.683 79.462,-73.121c-0.254,-5.366 -115.246,-51.141 -160.083,-95.3c-23.954,-23.612 -35.325,-34.983 -45.4,-43.525c-5.446,-4.608 -11.138,-8.925 -17.05,-12.921c-15.05,-52.691 -15.692,-108.47 -1.859,-161.5c-60.945,29.525 -115.108,71.384 -159.041,122.921l-0.309,0c-26.183,-33.196 -24.345,-142.646 -22.845,-165.508c-7.746,3.117 -15.142,7.042 -22.059,11.712c-23.116,16.5 -44.729,35.013 -64.579,55.325c-22.621,22.934 -43.283,47.725 -61.767,74.109l0,0.1l0,-0.117c-42.475,60.204 -72.604,128.233 -88.65,200.146l-0.887,4.367c-1.246,5.812 -6.821,35.337 -7.621,41.683c-5.1,30.479 -8.354,61.237 -9.75,92.108l0,3.413c0.638,362.058 298.733,659.625 660.792,659.625c320.062,-0 596.391,-232.538 651.075,-547.892c1.108,-8.525 2.012,-16.962 3,-25.571c13.612,-112.479 -1.125,-226.6 -42.859,-331.933l0.034,-0.033Zm-65.55,33.941l0.121,0.7l-0.121,-0.7Z" style="fill:url(#_Linear12);fill-rule:nonzero;"/></g><defs><linearGradient id="_Linear1" x1="0" y1="0" x2="1" y2="0" gradientUnits="userSpaceOnUse" gradientTransform="matrix(-1096.94,1058.36,-1058.36,-1096.94,1220.49,225.728)"><stop offset="0" style="stop-color:#fff44f;stop-opacity:1"/><stop offset="0.05" style="stop-color:#fff44f;stop-opacity:1"/><stop offset="0.11" style="stop-color:#ffe847;stop-opacity:1"/><stop offset="0.23" style="stop-color:#ffc830;stop-opacity:1"/><stop offset="0.37" style="stop-color:#ff980e;stop-opacity:1"/><stop offset="0.4" style="stop-color:#ff8b16;stop-opacity:1"/><stop offset="0.46" style="stop-color:#ff672a;stop-opacity:1"/><stop offset="0.53" style="stop-color:#ff3647;stop-opacity:1"/><stop offset="0.71" style="stop-color:#e31587;stop-opacity:1"/><stop offset="1" style="stop-color:#e31587;stop-opacity:1"/></linearGradient><radialGradient id="_Radial2" cx="0" cy="0" r="1" gradientUnits="userSpaceOnUse" gradientTransform="matrix(1377.5,0,0,1377.5,1178.04,168.004)"><stop offset="0" style="stop-color:#ffbd4f;stop-opacity:1"/><stop offset="0.13" style="stop-color:#ffbd4f;stop-opacity:1"/><stop offset="0.19" style="stop-color:#ffac31;stop-opacity:1"/><stop offset="0.25" style="stop-color:#ff9d17;stop-opacity:1"/><stop offset="0.28" style="stop-color:#ff980e;stop-opacity:1"/><stop offset="0.4" style="stop-color:#ff563b;stop-opacity:1"/><stop offset="0.47" style="stop-color:#ff3750;stop-opacity:1"/><stop offset="0.71" style="stop-color:#f5156c;stop-opacity:1"/><stop offset="0.78" style="stop-color:#eb0878;stop-opacity:1"/><stop offset="0.86" style="stop-color:#e50080;stop-opacity:1"/><stop offset="1" style="stop-color:#e50080;stop-opacity:1"/></radialGradient><radialGradient id="_Radial3" cx="0" cy="0" r="1" gradientUnits="userSpaceOnUse" gradientTransform="matrix(1377.5,0,0,1377.5,666.59,730.601)"><stop offset="0" style="stop-color:#960e18;stop-opacity:1"/><stop offset="0.3" style="stop-color:#960e18;stop-opacity:1"/><stop offset="0.35" style="stop-color:#b11927;stop-opacity:0.74"/><stop offset="0.44" style="stop-color:#db293d;stop-opacity:0.34"/><stop offset="0.5" style="stop-color:#f5334b;stop-opacity:0.09"/><stop offset="0.53" style="stop-color:#ff3750;stop-opacity:0"/><stop offset="1" style="stop-color:#ff3750;stop-opacity:0"/></radialGradient><radialGradient id="_Radial4" cx="0" cy="0" r="1" gradientUnits="userSpaceOnUse" gradientTransform="matrix(997.838,0,0,997.838,837.074,-138.866)"><stop offset="0" style="stop-color:#fff44f;stop-opacity:1"/><stop offset="0.13" style="stop-color:#fff44f;stop-opacity:1"/><stop offset="0.25" style="stop-color:#ffdc3e;stop-opacity:1"/><stop offset="0.51" style="stop-color:#ff9d12;stop-opacity:1"/><stop offset="1" style="stop-color:#ff980e;stop-opacity:1"/></radialGradient><radialGradient id="_Radial5" cx="0" cy="0" r="1" gradientUnits="userSpaceOnUse" gradientTransform="matrix(655.85,0,0,655.85,513.157,1088.61)"><stop offset="0" style="stop-color:#3a8ee6;stop-opacity:1"/><stop offset="0.35" style="stop-color:#3a8ee6;stop-opacity:1"/><stop offset="0.47" style="stop-color:#5c79f0;stop-opacity:1"/><stop offset="0.67" style="stop-color:#9059ff;stop-opacity:1"/><stop offset="1" style="stop-color:#c139e6;stop-opacity:1"/></radialGradient><radialGradient id="_Radial6" cx="0" cy="0" r="1" gradientUnits="userSpaceOnUse" gradientTransform="matrix(338.048,-81.7296,95.6413,395.78,733.215,612.351)"><stop offset="0" style="stop-color:#9059ff;stop-opacity:0"/><stop offset="0.21" style="stop-color:#9059ff;stop-opacity:0"/><stop offset="0.28" style="stop-color:#8c4ff3;stop-opacity:0.06"/><stop offset="0.75" style="stop-color:#7716a8;stop-opacity:0.45"/><stop offset="0.98" style="stop-color:#6e008b;stop-opacity:0.6"/><stop offset="1" style="stop-color:#6e008b;stop-opacity:0.6"/></radialGradient><radialGradient id="_Radial7" cx="0" cy="0" r="1" gradientUnits="userSpaceOnUse" gradientTransform="matrix(471.9,0,0,471.9,649.545,116.859)"><stop offset="0" style="stop-color:#ffe226;stop-opacity:1"/><stop offset="0.12" style="stop-color:#ffdb27;stop-opacity:1"/><stop offset="0.29" style="stop-color:#ffc82a;stop-opacity:1"/><stop offset="0.5" style="stop-color:#ffa930;stop-opacity:1"/><stop offset="0.73" style="stop-color:#ff7e37;stop-opacity:1"/><stop offset="0.79" style="stop-color:#ff7139;stop-opacity:1"/><stop offset="1" style="stop-color:#ff7139;stop-opacity:1"/></radialGradient><radialGradient id="_Radial8" cx="0" cy="0" r="1" gradientUnits="userSpaceOnUse" gradientTransform="matrix(2013.41,0,0,2013.41,1024.61,-190.011)"><stop offset="0" style="stop-color:#fff44f;stop-opacity:1"/><stop offset="0.11" style="stop-color:#fff44f;stop-opacity:1"/><stop offset="0.46" style="stop-color:#ff980e;stop-opacity:1"/><stop offset="0.62" style="stop-color:#ff5634;stop-opacity:1"/><stop offset="0.72" style="stop-color:#ff3647;stop-opacity:1"/><stop offset="0.9" style="stop-color:#e31587;stop-opacity:1"/><stop offset="1" style="stop-color:#e31587;stop-opacity:1"/></radialGradient><radialGradient id="_Radial9" cx="0" cy="0" r="1" gradientUnits="userSpaceOnUse" gradientTransform="matrix(154.842,1467.31,-962.967,101.753,857.261,-78.3786)"><stop offset="0" style="stop-color:#fff44f;stop-opacity:1"/><stop offset="0.06" style="stop-color:#ffe847;stop-opacity:1"/><stop offset="0.17" style="stop-color:#ffc830;stop-opacity:1"/><stop offset="0.3" style="stop-color:#ff980e;stop-opacity:1"/><stop offset="0.36" style="stop-color:#ff8b16;stop-opacity:1"/><stop offset="0.46" style="stop-color:#ff672a;stop-opacity:1"/><stop offset="0.57" style="stop-color:#ff3647;stop-opacity:1"/><stop offset="0.74" style="stop-color:#e31587;stop-opacity:1"/><stop offset="1" style="stop-color:#e31587;stop-opacity:1"/></radialGradient><radialGradient id="_Radial10" cx="0" cy="0" r="1" gradientUnits="userSpaceOnUse" gradientTransform="matrix(1256.8,0,0,1256.8,649.545,287.343)"><stop offset="0" style="stop-color:#fff44f;stop-opacity:1"/><stop offset="0.14" style="stop-color:#fff44f;stop-opacity:1"/><stop offset="0.48" style="stop-color:#ff980e;stop-opacity:1"/><stop offset="0.59" style="stop-color:#ff5634;stop-opacity:1"/><stop offset="0.66" style="stop-color:#ff3647;stop-opacity:1"/><stop offset="0.9" style="stop-color:#e31587;stop-opacity:1"/><stop offset="1" style="stop-color:#e31587;stop-opacity:1"/></radialGradient><radialGradient id="_Radial11" cx="0" cy="0" r="1" gradientUnits="userSpaceOnUse" gradientTransform="matrix(1375.63,0,0,1375.63,973.461,355.536)"><stop offset="0" style="stop-color:#fff44f;stop-opacity:1"/><stop offset="0.09" style="stop-color:#fff44f;stop-opacity:1"/><stop offset="0.23" style="stop-color:#ffe141;stop-opacity:1"/><stop offset="0.51" style="stop-color:#ffaf1e;stop-opacity:1"/><stop offset="0.63" style="stop-color:#ff980e;stop-opacity:1"/><stop offset="1" style="stop-color:#ff980e;stop-opacity:1"/></radialGradient><linearGradient id="_Linear12" x1="0" y1="0" x2="1" y2="0" gradientUnits="userSpaceOnUse" gradientTransform="matrix(-933.225,933.396,-933.396,-933.225,1207.19,220.102)"><stop offset="0" style="stop-color:#fff44f;stop-opacity:0.8"/><stop offset="0.17" style="stop-color:#fff44f;stop-opacity:0.8"/><stop offset="0.27" style="stop-color:#fff44f;stop-opacity:0.63"/><stop offset="0.49" style="stop-color:#fff44f;stop-opacity:0.22"/><stop offset="0.6" style="stop-color:#fff44f;stop-opacity:0"/><stop offset="1" style="stop-color:#fff44f;stop-opacity:0"/></linearGradient></defs></svg>