<?xml version="1.0" encoding="UTF-8" standalone="no"?><!DOCTYPE svg PUBLIC "-//W3C//DTD SVG 1.1//EN" "http://www.w3.org/Graphics/SVG/1.1/DTD/svg11.dtd"><svg width="100%" height="100%" viewBox="0 0 1000 980" version="1.1" xmlns="http://www.w3.org/2000/svg" xmlns:xlink="http://www.w3.org/1999/xlink" xml:space="preserve" xmlns:serif="http://www.serif.com/" style="fill-rule:evenodd;clip-rule:evenodd;stroke-linejoin:round;stroke-miterlimit:2;"><rect id="Artboard1" x="0" y="0" width="1000" height="979.592" style="fill:none;"/><path d="M500.412,0c-275.662,0 -498.508,224.489 -498.508,502.212c0,221.999 142.785,409.917 340.866,476.427c24.765,5 33.837,-10.806 33.837,-24.102c-0,-11.643 -0.817,-51.551 -0.817,-93.132c-138.673,29.938 -167.55,-59.868 -167.55,-59.868c-22.286,-58.203 -55.306,-73.162 -55.306,-73.162c-45.388,-30.766 3.306,-30.766 3.306,-30.766c50.347,3.327 76.765,51.551 76.765,51.551c44.561,76.49 116.367,54.877 145.255,41.571c4.122,-32.428 17.336,-54.877 31.367,-67.346c-110.602,-11.643 -226.969,-54.878 -226.969,-247.785c0,-54.877 19.796,-99.775 51.163,-134.693c-4.949,-12.47 -22.285,-64.031 4.96,-133.041c-0,0 42.091,-13.306 136.999,51.551c40.633,-10.993 82.538,-16.585 124.632,-16.632c42.092,-0 85,5.826 124.622,16.632c94.918,-64.857 137.01,-51.551 137.01,-51.551c27.244,69.01 9.898,120.571 4.949,133.041c32.193,34.918 51.173,79.816 51.173,134.693c-0,192.907 -116.367,235.305 -227.795,247.785c18.163,15.796 33.837,45.724 33.837,93.122c-0,67.346 -0.817,121.397 -0.817,138.02c0,13.306 9.082,29.112 33.837,24.122c198.081,-66.53 340.866,-254.438 340.866,-476.437c0.816,-277.723 -222.846,-502.212 -497.682,-502.212Z" style="fill:#24292f;"/></svg>