<?xml version="1.0" encoding="UTF-8" standalone="no"?><!DOCTYPE svg PUBLIC "-//W3C//DTD SVG 1.1//EN" "http://www.w3.org/Graphics/SVG/1.1/DTD/svg11.dtd"><svg id="mask" width="100%" height="100%" viewBox="0 0 267 267" version="1.1" xmlns="http://www.w3.org/2000/svg" xmlns:xlink="http://www.w3.org/1999/xlink" xml:space="preserve" xmlns:serif="http://www.serif.com/" style="fill-rule:evenodd;clip-rule:evenodd;stroke-linejoin:round;stroke-miterlimit:2;"><path d="M37.13,240.016l-21.384,-240.016l235.092,0l-21.384,239.886l-96.356,26.697l-95.968,-26.567l-0,0Zm96.032,-102.058l0,0.064l36.288,0l-3.435,38.232l-32.788,8.795l-32.853,-8.795l-2.074,-23.522l-29.548,-0l4.147,46.202l60.393,16.847l-0,-0.165l60.133,-16.682l8.1,-90.33l-107.113,-0l-2.721,-30.132l112.491,0l2.721,-29.419l-147.482,0l8.035,88.905l65.706,-0Z" style="fill:#e44d26;"/><path d="M133.292,49.053l0,-29.354l96.097,-0l-18.338,204.765l-77.759,21.707l0,-30.556l60.134,-16.682l8.1,-90.33l-68.234,-0l0,-30.132l70.89,0l2.722,-29.418l-73.612,-0l0,-0Zm0,135.979l0,-47.01l36.158,0l-3.434,38.232l-32.724,8.778Z" style="fill:#f16529;"/></svg>