<?xml version="1.0" encoding="UTF-8" standalone="no"?><!DOCTYPE svg PUBLIC "-//W3C//DTD SVG 1.1//EN" "http://www.w3.org/Graphics/SVG/1.1/DTD/svg11.dtd"><svg id="mask" width="100%" height="100%" viewBox="0 0 267 267" version="1.1" xmlns="http://www.w3.org/2000/svg" xmlns:xlink="http://www.w3.org/1999/xlink" xml:space="preserve" xmlns:serif="http://www.serif.com/" style="fill-rule:evenodd;clip-rule:evenodd;stroke-linejoin:round;stroke-miterlimit:2;"><g><g><path d="M236.306,97.366l-86.04,0c0.297,-1.574 0.453,-3.179 0.453,-4.815l-0,-52.855c-0,-14.287 -11.623,-25.91 -25.91,-25.91l-98.904,-0c-14.285,-0 -25.905,11.623 -25.905,25.91l-0,52.855c-0,14.284 11.62,25.904 25.905,25.904l15.219,0l-0.821,19.135c-0.074,1.726 0.821,3.35 2.321,4.207c0.712,0.408 1.503,0.61 2.294,0.61c0.875,0 1.748,-0.248 2.51,-0.741l35.862,-23.211l4.544,-0c-0.938,2.922 -1.451,6.034 -1.451,9.263l0,63.894c0,16.736 13.616,30.353 30.353,30.353l13.114,-0l28.913,29.529c0.884,0.903 2.08,1.387 3.301,1.387c0.513,0 1.03,-0.085 1.531,-0.262c1.693,-0.595 2.887,-2.116 3.065,-3.902l2.654,-26.752l66.992,-0c16.741,-0 30.361,-13.617 30.361,-30.353l-0,-63.893c-0.001,-16.737 -13.621,-30.353 -30.361,-30.353Zm-143.608,11.851l-10.773,-0c-0.89,-0 -1.762,0.257 -2.51,0.741l-29.499,19.093l0.645,-15.017c0.054,-1.258 -0.408,-2.483 -1.279,-3.393c-0.872,-0.91 -2.076,-1.424 -3.336,-1.424l-20.041,-0c-9.19,-0 -16.667,-7.476 -16.667,-16.666l0,-52.855c0,-9.193 7.477,-16.672 16.667,-16.672l98.905,0c9.193,0 16.671,7.479 16.671,16.672l0,52.855c0,1.655 -0.239,3.266 -0.708,4.815l-24.037,0c-9.777,0 -18.483,4.651 -24.038,11.851Zm164.731,82.395c-0,11.643 -9.476,21.115 -21.123,21.115l-71.176,-0c-2.375,-0 -4.363,1.8 -4.597,4.163l-2.09,21.073l-23.351,-23.848c-0.868,-0.888 -2.058,-1.388 -3.3,-1.388l-15.055,0c-11.643,0 -21.115,-9.472 -21.115,-21.115l-0,-63.893c-0,-11.643 9.472,-21.115 21.115,-21.115l119.57,0l-0,-0c11.647,-0 21.122,9.472 21.122,21.114l0,63.894l-0,-0Z" style="fill:#404040;fill-rule:nonzero;"/></g><g><path d="M95.474,48.831c-0.628,-10.111 -8.727,-18.209 -18.838,-18.837c-5.628,-0.347 -10.982,1.578 -15.077,5.427c-4.039,3.795 -6.354,9.148 -6.354,14.687c-0,2.553 2.067,4.62 4.619,4.62c2.552,0 4.619,-2.068 4.619,-4.619c0,-3.045 1.222,-5.87 3.442,-7.957c2.218,-2.084 5.123,-3.127 8.178,-2.938c5.38,0.334 9.856,4.81 10.19,10.189c0.252,4.063 -1.743,7.904 -5.207,10.025c-6.453,3.951 -10.307,10.778 -10.307,18.263c0,2.551 2.068,4.62 4.62,4.62c2.551,-0 4.619,-2.069 4.619,-4.62c-0,-4.244 2.203,-8.125 5.892,-10.384c6.388,-3.909 10.068,-10.99 9.604,-18.476Z" style="fill:#810036;fill-rule:nonzero;"/></g><g><path d="M176.523,125.208c-2.551,0 -4.619,2.069 -4.619,4.62l-0,39.095c-0,2.551 2.068,4.619 4.619,4.619c2.552,0 4.619,-2.068 4.619,-4.619l0,-39.095c-0,-2.551 -2.067,-4.62 -4.619,-4.62Z" style="fill:#810036;fill-rule:nonzero;"/></g><g><circle cx="176.518" cy="189.619" r="4.619" style="fill:#810036;"/></g><g><circle cx="75.353" cy="94.816" r="4.619" style="fill:#810036;"/></g></g></svg>