<?xml version="1.0" encoding="UTF-8" standalone="no"?><!DOCTYPE svg PUBLIC "-//W3C//DTD SVG 1.1//EN" "http://www.w3.org/Graphics/SVG/1.1/DTD/svg11.dtd"><svg width="100%" height="100%" viewBox="0 0 1000 1000" version="1.1" xmlns="http://www.w3.org/2000/svg" xmlns:xlink="http://www.w3.org/1999/xlink" xml:space="preserve" xmlns:serif="http://www.serif.com/" style="fill-rule:evenodd;clip-rule:evenodd;stroke-linejoin:round;stroke-miterlimit:2;"><rect id="Artboard1" x="0" y="0" width="1000" height="1000" style="fill:none;"/><clipPath id="_clip1"><rect x="0" y="0" width="1000" height="1000"/></clipPath><g clip-path="url(#_clip1)"><g><path d="M111.111,1000l777.778,0c61.365,0 111.111,-49.746 111.111,-111.111l0,-777.778c0,-61.365 -49.746,-111.111 -111.111,-111.111l-777.778,0c-61.365,0 -111.111,49.746 -111.111,111.111l0,777.778c0,61.365 49.746,111.111 111.111,111.111Z" style="fill:#007ebb;"/><path d="M861.111,861.111l-148.394,0l0,-252.748c0,-69.297 -26.331,-108.022 -81.179,-108.022c-59.668,-0 -90.842,40.299 -90.842,108.022l-0,252.748l-143.011,0l0,-481.481l143.011,-0l-0,64.855c-0,0 42.999,-79.565 145.173,-79.565c102.127,-0 175.242,62.364 175.242,191.347l0,304.844Zm-634.037,-544.527c-48.712,-0 -88.185,-39.783 -88.185,-88.848c-0,-49.064 39.473,-88.847 88.185,-88.847c48.713,-0 88.162,39.783 88.162,88.847c0,49.065 -39.449,88.848 -88.162,88.848Zm-73.844,544.527l149.123,0l-0,-481.481l-149.123,-0l-0,481.481Z" style="fill:#fff;"/></g></g></svg>