<?xml version="1.0" encoding="UTF-8" standalone="no"?><!DOCTYPE svg PUBLIC "-//W3C//DTD SVG 1.1//EN" "http://www.w3.org/Graphics/SVG/1.1/DTD/svg11.dtd"><svg width="100%" height="100%" viewBox="0 0 1000 975" version="1.1" xmlns="http://www.w3.org/2000/svg" xmlns:xlink="http://www.w3.org/1999/xlink" xml:space="preserve" xmlns:serif="http://www.serif.com/" style="fill-rule:evenodd;clip-rule:evenodd;stroke-linejoin:round;stroke-miterlimit:2;"><g id="Layer_2_1_"><g id="Surfaces"><g id="Photo_Surface"><g id="Outline_no_shadow"><path d="M177.083,0l645.834,0c97.916,0 177.083,79.167 177.083,177.083l0,620.834c0,97.916 -79.167,177.083 -177.083,177.083l-645.834,0c-97.916,0 -177.083,-79.167 -177.083,-177.083l0,-620.834c0,-97.916 79.167,-177.083 177.083,-177.083Z" style="fill:#001e36;fill-rule:nonzero;"/></g></g></g><g id="Outlined_Mnemonics_Logos"><g id="Ps"><path d="M225,683.75l0,-428.75c0,-2.917 1.25,-4.583 4.167,-4.583c7.083,-0 13.75,-0 23.333,-0.417c10,-0.417 20.417,-0.417 31.667,-0.833c11.25,-0.417 23.333,-0.417 36.25,-0.834c12.916,-0.416 25.416,-0.416 37.916,-0.416c34.167,-0 62.5,4.166 85.834,12.916c20.833,7.084 40,18.75 55.833,34.167c13.333,13.333 23.75,29.583 30.417,47.5c6.25,17.5 9.583,35.417 9.583,54.167c0,35.833 -8.333,65.416 -25,88.75c-16.667,23.333 -40,40.833 -67.083,50.833c-28.334,10.417 -59.584,14.167 -93.75,14.167c-10,-0 -16.667,-0 -20.834,-0.417c-4.166,-0.417 -10,-0.417 -17.916,-0.417l-0,133.75c0.416,2.917 -1.667,5.417 -4.584,5.834l-80.833,-0c-3.333,-0 -5,-1.667 -5,-5.417Zm90.833,-352.917l0,140c5.834,0.417 11.25,0.834 16.25,0.834l22.084,-0c16.25,-0 32.5,-2.5 47.916,-7.5c13.334,-3.75 25,-11.667 34.167,-22.084c8.75,-10.416 12.917,-24.583 12.917,-42.916c0.416,-12.917 -2.917,-25.834 -9.584,-37.084c-7.083,-10.833 -17.083,-19.166 -29.166,-23.75c-15.417,-6.25 -32.084,-8.75 -49.167,-8.333c-10.833,0 -20.417,0 -28.333,0.417c-8.334,-0.417 -14.167,-0 -17.084,0.416Z" style="fill:#31a8ff;fill-rule:nonzero;"/><path d="M800,445.417c-12.5,-6.667 -25.833,-11.25 -40,-14.167c-15.417,-3.333 -30.833,-5.417 -46.667,-5.417c-8.333,-0.416 -17.083,0.834 -25,2.917c-5.416,1.25 -10,4.167 -12.916,8.333c-2.084,3.334 -3.334,7.5 -3.334,11.25c0,3.75 1.667,7.5 4.167,10.834c3.75,4.583 8.75,8.333 14.167,11.25c9.583,5 19.583,9.583 29.583,13.75c22.5,7.5 44.167,17.916 64.167,30.416c13.75,8.75 25,20.417 32.916,34.584c6.667,13.333 10,27.916 9.584,42.916c0.416,19.584 -5.417,39.167 -16.25,55.417c-11.667,16.667 -27.917,29.583 -46.667,37.083c-20.417,8.75 -45.417,13.334 -75.417,13.334c-19.166,-0 -37.916,-1.667 -56.666,-5.417c-14.584,-2.5 -29.167,-7.083 -42.5,-13.333c-2.917,-1.667 -5,-4.584 -4.584,-7.917l0,-72.5c0,-1.25 0.417,-2.917 1.667,-3.75c1.25,-0.833 2.5,-0.417 3.75,0.417c16.25,9.583 33.333,16.25 51.667,20.416c15.833,4.167 32.5,6.25 49.166,6.25c15.834,0 27.084,-2.083 34.584,-5.833c6.666,-2.917 11.25,-10 11.25,-17.5c-0,-5.833 -3.334,-11.25 -10,-16.667c-6.667,-5.416 -20.417,-11.666 -40.834,-19.583c-21.25,-7.5 -40.833,-17.5 -59.166,-30c-12.917,-9.167 -23.75,-21.25 -31.667,-35.417c-6.667,-13.333 -10,-27.916 -9.583,-42.5c-0,-17.916 5,-35 14.166,-50.416c10.417,-16.667 25.834,-30 43.75,-38.334c19.584,-10 44.167,-14.583 73.75,-14.583c17.084,-0 34.584,1.25 51.667,3.75c12.5,1.667 24.583,5 35.833,9.583c1.667,0.417 3.334,2.084 4.167,3.75c0.417,1.667 0.833,3.334 0.833,5l0,67.917c0,1.667 -0.833,3.333 -2.083,4.167c-3.75,0.833 -5.833,0.833 -7.5,-0Z" style="fill:#31a8ff;fill-rule:nonzero;"/></g></g></g></svg>