<?xml version="1.0" encoding="UTF-8" standalone="no"?><!DOCTYPE svg PUBLIC "-//W3C//DTD SVG 1.1//EN" "http://www.w3.org/Graphics/SVG/1.1/DTD/svg11.dtd"><svg width="100%" height="100%" viewBox="0 0 267 267" version="1.1" xmlns="http://www.w3.org/2000/svg" xmlns:xlink="http://www.w3.org/1999/xlink" xml:space="preserve" xmlns:serif="http://www.serif.com/" style="fill-rule:evenodd;clip-rule:evenodd;stroke-linejoin:round;stroke-miterlimit:2;"><g><g><path d="M265.998,35.466l-0,-35.466l-265.998,0l-0,35.466l8.867,0l-0,177.332l-4.434,0c-2.451,0 -4.433,1.982 -4.433,4.434c-0,2.451 1.982,4.433 4.433,4.433l124.133,-0l-0,8.867c-0,0.208 0.093,0.39 0.119,0.594c-7.691,1.937 -13.419,8.853 -13.419,17.139c-0,9.78 7.953,17.733 17.733,17.733c9.78,-0 17.733,-7.953 17.733,-17.733c0,-8.286 -5.728,-15.202 -13.419,-17.139c0.026,-0.204 0.119,-0.386 0.119,-0.594l0,-8.867l124.133,-0c2.451,-0 4.433,-1.982 4.433,-4.433c-0,-2.452 -1.982,-4.434 -4.433,-4.434l-4.434,0l0,-177.332l8.867,0Zm-124.132,212.799c-0,4.89 -3.977,8.866 -8.867,8.866c-4.89,0 -8.867,-3.976 -8.867,-8.866c0,-4.89 3.977,-8.867 8.867,-8.867c4.89,0 8.867,3.977 8.867,8.867Zm106.399,-35.467l-230.532,0l0,-177.332l230.532,0l-0,177.332Z" style="fill:#404040;fill-rule:nonzero;"/></g><g><path d="M132.999,195.065c39.111,0 70.933,-31.822 70.933,-70.933c-0,-39.11 -31.822,-70.932 -70.933,-70.932c-39.111,-0 -70.933,31.822 -70.933,70.932c0,39.111 31.822,70.933 70.933,70.933Zm-22.167,-101.966c0,-1.618 0.883,-3.107 2.301,-3.888c1.419,-0.776 3.144,-0.713 4.518,0.147l48.766,31.033c1.273,0.815 2.048,2.225 2.048,3.741c0,1.517 -0.775,2.926 -2.052,3.742l-48.767,31.033c-0.727,0.457 -1.551,0.692 -2.38,0.692c-0.732,-0 -1.468,-0.182 -2.133,-0.546c-1.418,-0.78 -2.301,-2.269 -2.301,-3.888l0,-62.066Z" style="fill:#810036;fill-rule:nonzero;"/></g></g></svg>