<?xml version="1.0" encoding="UTF-8" standalone="no"?><!DOCTYPE svg PUBLIC "-//W3C//DTD SVG 1.1//EN" "http://www.w3.org/Graphics/SVG/1.1/DTD/svg11.dtd"><svg width="100%" height="100%" viewBox="0 0 267 267" version="1.1" xmlns="http://www.w3.org/2000/svg" xmlns:xlink="http://www.w3.org/1999/xlink" xml:space="preserve" xmlns:serif="http://www.serif.com/" style="fill-rule:evenodd;clip-rule:evenodd;stroke-linejoin:round;stroke-miterlimit:2;"><g><g><path d="M261.748,0l-257.504,0c-2.344,0 -4.244,1.9 -4.244,4.244l0,257.504c0,2.344 1.9,4.244 4.244,4.244l257.504,0c2.344,0 4.244,-1.9 4.244,-4.244l0,-257.504c0,-2.344 -1.9,-4.244 -4.244,-4.244Zm-4.245,257.503l-249.014,0l-0,-249.014l249.014,-0l0,249.014Z" style="fill:#404040;fill-rule:nonzero;"/></g><g><path d="M244.823,17.61l-222.98,-0c-2.338,-0 -4.233,1.895 -4.233,4.233l-0,16.936c-0,2.338 1.895,4.233 4.233,4.233l222.98,0c2.339,0 4.234,-1.895 4.234,-4.233l-0,-16.936c-0,-2.338 -1.895,-4.233 -4.234,-4.233Zm-4.233,16.935l-214.513,-0l0,-8.467l214.512,-0l0,8.467l0.001,-0Z" style="fill:#810036;fill-rule:nonzero;"/></g><g><path d="M244.823,182.258l-222.98,-0c-2.338,-0 -4.233,1.895 -4.233,4.233l-0,58.332c-0,2.339 1.895,4.234 4.233,4.234l222.98,-0c2.339,-0 4.234,-1.895 4.234,-4.234l-0,-58.332c-0,-2.338 -1.895,-4.233 -4.234,-4.233Zm-4.233,58.332l-214.513,-0l0,-49.865l214.512,-0l0,49.865l0.001,-0Z" style="fill:#810036;fill-rule:nonzero;"/></g><g><path d="M164.851,51.48l-63.036,0c-2.338,0 -4.233,1.895 -4.233,4.234l-0,63.037c-0,2.338 1.895,4.233 4.233,4.233l63.037,0c2.338,0 4.233,-1.895 4.233,-4.233l0,-63.037c0,-2.339 -1.895,-4.234 -4.234,-4.234Zm-10.222,8.468l-21.296,21.296l-21.296,-21.296l42.592,-0Zm-48.58,5.987l21.297,21.297l-21.297,21.296l0,-42.593Zm5.988,48.582l21.296,-21.297l21.297,21.297l-42.593,-0Zm48.581,-5.989l-21.297,-21.296l21.297,-21.297l-0,42.593Z" style="fill:#810036;fill-rule:nonzero;"/></g><g><path d="M244.823,51.48l-63.037,0c-2.338,0 -4.233,1.895 -4.233,4.234l-0,63.037c-0,2.338 1.895,4.233 4.233,4.233l63.037,0c2.339,0 4.234,-1.895 4.234,-4.233l-0,-63.037c-0,-2.339 -1.895,-4.234 -4.234,-4.234Zm-10.222,8.468l-21.296,21.296l-21.297,-21.296l42.593,-0Zm-48.581,5.987l21.297,21.297l-21.297,21.296l0,-42.593Zm5.988,48.582l21.297,-21.297l21.296,21.297l-42.593,-0Zm48.582,-5.989l-21.297,-21.296l21.297,-21.297l-0,42.593Z" style="fill:#810036;fill-rule:nonzero;"/></g><g><path d="M164.851,131.452l-63.036,-0c-2.338,-0 -4.233,1.895 -4.233,4.233c-0,2.339 1.895,4.234 4.233,4.234l63.037,0c2.338,0 4.233,-1.895 4.233,-4.234c0,-2.338 -1.895,-4.233 -4.234,-4.233Z" style="fill:#810036;fill-rule:nonzero;"/></g><g><path d="M244.823,131.452l-63.037,-0c-2.338,-0 -4.233,1.895 -4.233,4.233c-0,2.339 1.895,4.234 4.233,4.234l63.037,0c2.339,0 4.234,-1.895 4.234,-4.234c-0,-2.338 -1.895,-4.233 -4.234,-4.233Z" style="fill:#810036;fill-rule:nonzero;"/></g><g><path d="M84.88,131.452l-63.037,-0c-2.338,-0 -4.233,1.895 -4.233,4.233c-0,2.339 1.895,4.234 4.233,4.234l63.037,0c2.339,0 4.234,-1.895 4.234,-4.234c-0,-2.338 -1.895,-4.233 -4.234,-4.233Z" style="fill:#810036;fill-rule:nonzero;"/></g><g><path d="M164.851,148.387l-63.036,0c-2.338,0 -4.233,1.895 -4.233,4.234c-0,2.338 1.895,4.233 4.233,4.233l63.037,0c2.338,0 4.233,-1.895 4.233,-4.233c0,-2.339 -1.895,-4.234 -4.234,-4.234Z" style="fill:#810036;fill-rule:nonzero;"/></g><g><path d="M244.823,148.387l-63.037,0c-2.338,0 -4.233,1.895 -4.233,4.234c-0,2.338 1.895,4.233 4.233,4.233l63.037,0c2.339,0 4.234,-1.895 4.234,-4.233c-0,-2.339 -1.895,-4.234 -4.234,-4.234Z" style="fill:#810036;fill-rule:nonzero;"/></g><g><path d="M84.88,148.387l-63.037,0c-2.338,0 -4.233,1.895 -4.233,4.234c-0,2.338 1.895,4.233 4.233,4.233l63.037,0c2.339,0 4.234,-1.895 4.234,-4.233c-0,-2.339 -1.895,-4.234 -4.234,-4.234Z" style="fill:#810036;fill-rule:nonzero;"/></g><g><path d="M133.428,165.322l-31.613,0c-2.338,0 -4.233,1.895 -4.233,4.234c-0,2.339 1.895,4.234 4.233,4.234l31.613,-0c2.338,-0 4.233,-1.895 4.233,-4.234c0,-2.339 -1.895,-4.234 -4.233,-4.234Z" style="fill:#810036;fill-rule:nonzero;"/></g><g><path d="M213.399,165.322l-31.613,0c-2.338,0 -4.233,1.895 -4.233,4.234c-0,2.339 1.895,4.234 4.233,4.234l31.613,-0c2.338,-0 4.233,-1.895 4.233,-4.234c0,-2.339 -1.894,-4.234 -4.233,-4.234Z" style="fill:#810036;fill-rule:nonzero;"/></g><g><path d="M53.456,165.322l-31.613,0c-2.338,0 -4.233,1.895 -4.233,4.234c-0,2.339 1.895,4.234 4.233,4.234l31.613,-0c2.338,-0 4.233,-1.895 4.233,-4.234c0,-2.339 -1.894,-4.234 -4.233,-4.234Z" style="fill:#810036;fill-rule:nonzero;"/></g><g><path d="M84.88,51.48l-63.037,0c-2.338,0 -4.233,1.895 -4.233,4.234l-0,63.037c-0,2.338 1.895,4.233 4.233,4.233l63.037,0c2.339,0 4.234,-1.895 4.234,-4.233l-0,-63.037c-0,-2.339 -1.895,-4.234 -4.234,-4.234Zm-10.222,8.468l-21.296,21.296l-21.297,-21.296l42.593,-0Zm-48.581,5.988l21.297,21.296l-21.297,21.297l0,-42.593Zm5.988,48.581l21.296,-21.297l21.297,21.297l-42.593,-0Zm48.582,-5.989l-21.297,-21.296l21.297,-21.297l-0,42.593Z" style="fill:#810036;fill-rule:nonzero;"/></g></g></svg>