<?xml version="1.0" encoding="UTF-8" standalone="no"?><!DOCTYPE svg PUBLIC "-//W3C//DTD SVG 1.1//EN" "http://www.w3.org/Graphics/SVG/1.1/DTD/svg11.dtd"><svg width="100%" height="100%" viewBox="0 0 267 267" version="1.1" xmlns="http://www.w3.org/2000/svg" xmlns:xlink="http://www.w3.org/1999/xlink" xml:space="preserve" xmlns:serif="http://www.serif.com/" style="fill-rule:evenodd;clip-rule:evenodd;stroke-linejoin:round;stroke-miterlimit:2;"><path d="M133.332,0c-73.64,0 -133.333,59.703 -133.333,133.331c-0,73.629 59.693,133.336 133.333,133.336c73.639,-0 133.335,-59.696 133.335,-133.335c-0,-73.639 -59.696,-133.332 -133.335,-133.332m0,244.447c-61.367,0 -111.114,-49.746 -111.114,-111.115c0,-61.366 49.747,-111.113 111.114,-111.113c61.367,0 111.111,49.778 111.111,111.113c0.002,61.334 -49.778,111.112 -111.111,111.112" style="fill:#35a7c1;fill-rule:nonzero;"/><path d="M165.735,133.333c-0,-31.441 -12.338,-59.979 -32.402,-81.106c-20.066,21.107 -32.445,49.699 -32.445,81.106c-0,14.371 2.667,28.148 7.408,40.916c-6.869,10.018 -11.94,24.051 -14.165,40.19c7.086,-8.385 15.793,-14.531 25.45,-17.562c4.042,6.222 8.593,12.148 13.778,17.563c5.132,-5.409 9.743,-11.289 13.773,-17.563c9.658,2.963 18.369,9.185 25.481,17.63c-2.228,-16.14 -7.297,-30.174 -14.165,-40.191c4.675,-12.834 7.329,-26.612 7.329,-40.983m-32.444,0.297c-8.079,-0 -14.629,-6.55 -14.629,-14.628c0,-8.078 6.55,-14.626 14.629,-14.626c8.079,-0 14.668,6.519 14.668,14.667c-0.041,7.92 -6.521,14.587 -14.669,14.587" style="fill:#35a7c1;fill-rule:nonzero;"/></svg>