<?xml version="1.0" encoding="UTF-8" standalone="no"?><!DOCTYPE svg PUBLIC "-//W3C//DTD SVG 1.1//EN" "http://www.w3.org/Graphics/SVG/1.1/DTD/svg11.dtd"><svg id="mask" width="100%" height="100%" viewBox="0 0 267 267" version="1.1" xmlns="http://www.w3.org/2000/svg" xmlns:xlink="http://www.w3.org/1999/xlink" xml:space="preserve" xmlns:serif="http://www.serif.com/" style="fill-rule:evenodd;clip-rule:evenodd;"><circle cx="133.333" cy="133.333" r="24.848" style="fill:#61dafb;"/><ellipse cx="133.333" cy="133.333" rx="133.333" ry="50.909" style="fill:none;stroke:#61dafb;stroke-width:12.12px;"/><path d="M177.422,107.879c36.794,63.729 46.911,126.876 22.578,140.924c-24.333,14.049 -73.961,-26.285 -110.755,-90.015c-36.795,-63.73 -46.911,-126.876 -22.578,-140.925c24.333,-14.048 73.961,26.286 110.755,90.016Z" style="fill:none;stroke:#61dafb;stroke-width:12.12px;"/><path d="M177.422,158.788c-36.794,63.73 -86.422,104.064 -110.755,90.015c-24.333,-14.048 -14.217,-77.195 22.578,-140.924c36.794,-63.73 86.422,-104.064 110.755,-90.016c24.333,14.049 14.216,77.195 -22.578,140.925Z" style="fill:none;stroke:#61dafb;stroke-width:12.12px;"/></svg>