<?xml version="1.0" encoding="UTF-8" standalone="no"?><!DOCTYPE svg PUBLIC "-//W3C//DTD SVG 1.1//EN" "http://www.w3.org/Graphics/SVG/1.1/DTD/svg11.dtd"><svg width="100%" height="100%" viewBox="0 0 267 267" version="1.1" xmlns="http://www.w3.org/2000/svg" xmlns:xlink="http://www.w3.org/1999/xlink" xml:space="preserve" xmlns:serif="http://www.serif.com/" style="fill-rule:evenodd;clip-rule:evenodd;stroke-linejoin:round;stroke-miterlimit:2;"><g><g><path d="M151.283,126.207c0.784,1.535 2.346,2.421 3.96,2.421c0.674,0 1.366,-0.155 2.01,-0.483c0.261,-0.133 26.368,-13.395 39.244,-17.462c2.333,-0.741 3.628,-3.234 2.887,-5.567c-0.736,-2.333 -3.211,-3.632 -5.566,-2.896c-13.563,4.289 -39.493,17.462 -40.593,18.021c-2.182,1.109 -3.051,3.779 -1.942,5.966Z" style="fill:#810036;fill-rule:nonzero;"/></g><g><path d="M155.243,75.404c0.674,0 1.366,-0.155 2.01,-0.483c0.261,-0.133 26.368,-13.395 39.244,-17.463c2.333,-0.74 3.628,-3.233 2.887,-5.566c-0.736,-2.333 -3.211,-3.633 -5.566,-2.896c-13.563,4.289 -39.493,17.462 -40.593,18.021c-2.182,1.109 -3.051,3.779 -1.942,5.965c0.784,1.535 2.346,2.422 3.96,2.422Z" style="fill:#810036;fill-rule:nonzero;"/></g><g><path d="M261.689,66.533c-2.453,0 -4.436,1.987 -4.436,4.435l0,172.981c0,7.336 -5.97,13.306 -13.306,13.306l-106.449,-0l-0,-10.206c6.467,-2.262 23.312,-7.535 39.918,-7.535c38.637,-0 64.873,8.556 65.134,8.644c1.335,0.443 2.826,0.222 3.992,-0.612c1.157,-0.834 1.84,-2.174 1.84,-3.598l0,-195.156c0,-2.08 -1.441,-3.881 -3.473,-4.33c0,0 -3.477,-0.776 -9.421,-1.867c-2.399,-0.443 -4.719,1.153 -5.163,3.557c-0.443,2.413 1.149,4.724 3.558,5.167c2.267,0.417 4.165,0.785 5.628,1.078l0,185.657c-10.05,-2.635 -32.369,-7.411 -62.095,-7.411c-19.325,-0 -38.309,6.347 -44.182,8.498c-5.22,-2.306 -21.001,-8.498 -40.091,-8.498c-30.551,-0 -55.718,5.038 -66.531,7.598l-0,-186.017c8.857,-2.178 35.017,-7.868 66.531,-7.868c16.172,-0 30.041,5.034 35.483,7.309l0,174.542c0,1.597 0.86,3.074 2.249,3.859c1.388,0.79 3.1,0.767 4.471,-0.058c0.439,-0.261 44.385,-26.51 83.39,-39.51c1.814,-0.608 3.034,-2.297 3.034,-4.209l-0,-181.852c-0,-1.455 -0.715,-2.816 -1.912,-3.645c-1.189,-0.83 -2.714,-1.021 -4.085,-0.51c-35.488,13.31 -71.396,35.656 -71.756,35.878c-2.076,1.299 -2.71,4.036 -1.41,6.112c1.295,2.076 4.031,2.71 6.112,1.41c0.327,-0.208 31.566,-19.644 64.18,-32.759l-0,172.19c-30.277,10.521 -61.888,27.7 -75.402,35.39l-0,-169.711c-0,-1.681 -0.949,-3.216 -2.453,-3.97c-0.763,-0.377 -18.939,-9.337 -41.901,-9.337c-40.078,0 -70.891,8.672 -72.186,9.044c-1.903,0.541 -3.216,2.284 -3.216,4.263l-0,195.157c-0,1.389 0.656,2.702 1.761,3.54c0.781,0.59 1.721,0.896 2.675,0.896c0.408,0 0.816,-0.058 1.215,-0.173c0.306,-0.084 30.977,-8.698 69.751,-8.698c16.216,0 30.072,5.048 35.483,7.314l0,10.427l-106.449,0c-7.336,0 -13.307,-5.97 -13.307,-13.306l0,-172.98c0,-2.448 -1.987,-4.435 -4.435,-4.435c-2.448,-0 -4.435,1.987 -4.435,4.435l0,172.98c0,12.228 9.948,22.177 22.177,22.177l221.77,0c12.228,0 22.177,-9.948 22.177,-22.177l0,-172.98c-0,-2.449 -1.983,-4.436 -4.435,-4.436Z" style="fill:#404040;fill-rule:nonzero;"/></g><g><path d="M151.283,99.594c0.784,1.535 2.346,2.422 3.96,2.422c0.674,-0 1.366,-0.156 2.01,-0.483c0.261,-0.134 26.368,-13.396 39.244,-17.463c2.333,-0.74 3.628,-3.233 2.887,-5.566c-0.736,-2.333 -3.211,-3.633 -5.566,-2.896c-13.563,4.289 -39.493,17.462 -40.593,18.021c-2.182,1.109 -3.051,3.779 -1.942,5.965Z" style="fill:#810036;fill-rule:nonzero;"/></g><g><path d="M151.283,152.819c0.784,1.535 2.346,2.422 3.96,2.422c0.674,-0 1.366,-0.156 2.01,-0.484c0.261,-0.133 26.368,-13.395 39.244,-17.462c2.333,-0.741 3.628,-3.234 2.887,-5.566c-0.736,-2.334 -3.211,-3.633 -5.566,-2.896c-13.563,4.289 -39.493,17.462 -40.593,18.021c-2.182,1.108 -3.051,3.779 -1.942,5.965Z" style="fill:#810036;fill-rule:nonzero;"/></g><g><path d="M107.461,82.314c-27.388,-6.427 -58.512,1.761 -59.82,2.112c-2.364,0.634 -3.77,3.064 -3.136,5.433c0.532,1.982 2.324,3.286 4.28,3.286c0.382,0 0.768,-0.048 1.154,-0.15c0.297,-0.084 30.263,-7.966 55.5,-2.045c2.373,0.555 4.773,-0.923 5.331,-3.309c0.559,-2.382 -0.923,-4.768 -3.309,-5.327Z" style="fill:#810036;fill-rule:nonzero;"/></g><g><path d="M107.461,108.927c-27.388,-6.423 -58.512,1.761 -59.82,2.111c-2.364,0.634 -3.77,3.065 -3.136,5.433c0.532,1.983 2.324,3.287 4.28,3.287c0.382,-0 0.768,-0.049 1.154,-0.151c0.297,-0.084 30.263,-7.966 55.5,-2.045c2.373,0.555 4.773,-0.922 5.331,-3.309c0.559,-2.381 -0.923,-4.767 -3.309,-5.326Z" style="fill:#810036;fill-rule:nonzero;"/></g><g><path d="M151.283,179.431c0.784,1.535 2.346,2.422 3.96,2.422c0.674,0 1.366,-0.155 2.01,-0.483c0.261,-0.133 26.368,-13.395 39.244,-17.463c2.333,-0.74 3.628,-3.233 2.887,-5.566c-0.736,-2.333 -3.211,-3.633 -5.566,-2.896c-13.563,4.289 -39.493,17.462 -40.593,18.021c-2.182,1.109 -3.051,3.779 -1.942,5.965Z" style="fill:#810036;fill-rule:nonzero;"/></g><g><path d="M107.461,135.539c-27.388,-6.422 -58.512,1.756 -59.82,2.112c-2.364,0.634 -3.77,3.065 -3.136,5.433c0.532,1.982 2.324,3.291 4.28,3.291c0.382,-0 0.768,-0.053 1.154,-0.156c0.297,-0.084 30.263,-7.966 55.5,-2.044c2.373,0.554 4.773,-0.923 5.331,-3.309c0.559,-2.382 -0.923,-4.768 -3.309,-5.327Z" style="fill:#810036;fill-rule:nonzero;"/></g><g><path d="M107.461,188.764c-27.388,-6.427 -58.512,1.761 -59.82,2.111c-2.364,0.634 -3.77,3.065 -3.136,5.433c0.532,1.983 2.324,3.292 4.28,3.292c0.382,-0 0.768,-0.053 1.154,-0.156c0.297,-0.084 30.263,-7.966 55.5,-2.045c2.373,0.55 4.773,-0.922 5.331,-3.308c0.559,-2.382 -0.923,-4.768 -3.309,-5.327Z" style="fill:#810036;fill-rule:nonzero;"/></g><g><path d="M107.461,162.152c-27.388,-6.427 -58.512,1.756 -59.82,2.111c-2.364,0.634 -3.77,3.065 -3.136,5.433c0.532,1.982 2.324,3.291 4.28,3.291c0.382,0 0.768,-0.053 1.154,-0.155c0.297,-0.084 30.263,-7.966 55.5,-2.045c2.373,0.555 4.773,-0.923 5.331,-3.309c0.559,-2.381 -0.923,-4.768 -3.309,-5.326Z" style="fill:#810036;fill-rule:nonzero;"/></g></g></svg>