<?xml version="1.0" encoding="UTF-8" standalone="no"?><!DOCTYPE svg PUBLIC "-//W3C//DTD SVG 1.1//EN" "http://www.w3.org/Graphics/SVG/1.1/DTD/svg11.dtd"><svg width="100%" height="100%" viewBox="0 0 267 267" version="1.1" xmlns="http://www.w3.org/2000/svg" xmlns:xlink="http://www.w3.org/1999/xlink" xml:space="preserve" xmlns:serif="http://www.serif.com/" style="fill-rule:evenodd;clip-rule:evenodd;stroke-linejoin:round;stroke-miterlimit:2;"><path d="M266.667,46.296l-0,174.074c-0,25.552 -20.745,46.297 -46.297,46.297l-174.074,-0c-25.551,-0 -46.296,-20.745 -46.296,-46.297l0,-174.074c0,-25.551 20.745,-46.296 46.296,-46.296l174.074,-0c25.552,-0 46.297,20.745 46.297,46.296Zm-145.427,101.663l33.447,0l0,-21.396l-93.229,-0l0,21.396l33.285,0l-0,95.27l26.497,0l-0,-95.27Zm43.832,64.241l0,26.073c4.239,2.173 9.252,3.803 15.039,4.889c5.788,1.086 11.887,1.63 18.3,1.63c6.249,-0 12.186,-0.598 17.81,-1.793c5.625,-1.195 10.557,-3.164 14.795,-5.907c4.239,-2.743 7.594,-6.328 10.067,-10.756c2.472,-4.427 3.709,-9.899 3.709,-16.417c-0,-4.726 -0.707,-8.868 -2.12,-12.426c-1.413,-3.558 -3.45,-6.722 -6.113,-9.492c-2.663,-2.77 -5.855,-5.256 -9.578,-7.456c-3.722,-2.2 -7.92,-4.277 -12.594,-6.232c-3.423,-1.413 -6.493,-2.784 -9.21,-4.115c-2.718,-1.331 -5.027,-2.689 -6.929,-4.074c-1.902,-1.385 -3.369,-2.852 -4.402,-4.4c-1.032,-1.548 -1.549,-3.3 -1.549,-5.256c0,-1.792 0.462,-3.408 1.386,-4.848c0.924,-1.439 2.228,-2.675 3.913,-3.707c1.685,-1.032 3.749,-1.833 6.195,-2.404c2.445,-0.57 5.162,-0.855 8.151,-0.855c2.174,0 4.469,0.163 6.888,0.489c2.418,0.326 4.85,0.828 7.296,1.507c2.445,0.679 4.822,1.535 7.132,2.567c2.309,1.032 4.442,2.227 6.398,3.585l0,-24.362c-3.966,-1.521 -8.3,-2.648 -13.001,-3.382c-4.7,-0.733 -10.094,-1.1 -16.18,-1.1c-6.195,0 -12.064,0.666 -17.607,1.997c-5.542,1.33 -10.42,3.408 -14.632,6.233c-4.211,2.825 -7.539,6.423 -9.984,10.796c-2.446,4.372 -3.669,9.6 -3.669,15.684c0,7.768 2.242,14.395 6.725,19.881c4.483,5.486 11.289,10.131 20.419,13.933c3.587,1.467 6.929,2.906 10.026,4.319c3.098,1.412 5.774,2.879 8.029,4.4c2.255,1.52 4.035,3.177 5.339,4.97c1.305,1.792 1.957,3.829 1.957,6.111c-0,1.684 -0.408,3.245 -1.223,4.685c-0.815,1.439 -2.052,2.688 -3.709,3.748c-1.657,1.059 -3.723,1.887 -6.195,2.484c-2.473,0.598 -5.366,0.897 -8.681,0.897c-5.652,-0 -11.249,-0.991 -16.792,-2.974c-5.543,-1.982 -10.678,-4.956 -15.406,-8.922Z" style="fill:#3178c6;"/></svg>