<?xml version="1.0" encoding="UTF-8" standalone="no"?><!DOCTYPE svg PUBLIC "-//W3C//DTD SVG 1.1//EN" "http://www.w3.org/Graphics/SVG/1.1/DTD/svg11.dtd"><svg width="100%" height="100%" viewBox="0 0 267 267" version="1.1" xmlns="http://www.w3.org/2000/svg" xmlns:xlink="http://www.w3.org/1999/xlink" xml:space="preserve" xmlns:serif="http://www.serif.com/" style="fill-rule:evenodd;clip-rule:evenodd;stroke-linejoin:round;stroke-miterlimit:2;"><path d="M133.492,0c73.032,-0 132.22,59.665 132.06,133.333c0,73.668 -59.188,133.334 -132.218,133.334c-73.031,-0 -132.22,-59.666 -132.22,-133.334c-0,-73.668 59.189,-133.333 132.378,-133.333Zm0,5.886c-33.89,0 -65.553,13.206 -89.419,37.392c-23.867,24.184 -37.073,56.165 -37.073,90.214c0,34.05 13.206,66.19 37.073,90.215c23.866,24.184 55.688,37.39 89.419,37.39c33.732,0 65.554,-13.364 89.419,-37.39c23.867,-24.184 37.073,-56.165 37.073,-90.215c0,-34.049 -13.206,-66.189 -37.073,-90.214c-23.865,-24.186 -55.687,-37.392 -89.419,-37.392Zm57.916,167.065c5.41,0 14.479,-3.5 28.958,-18.934c0,0 -15.434,35.164 -47.256,54.098l-17.502,-14.798l-0.477,-0.318l-19.092,20.365c-0,0 -43.278,-3.818 -61.417,-30.07c-0,0 2.865,1.113 5.888,1.113c3.658,0.159 7.636,-1.273 7.636,-7.319l0,-61.894c0,-3.181 -2.226,-6.681 -7.001,-6.681c-4.295,0.158 -10.501,3.023 -18.934,11.614c-17.661,18.298 -24.821,35.8 -24.821,35.8c0,0 -5.091,-25.14 21.481,-55.689c26.57,-30.548 46.618,-41.686 68.098,-47.414c0,0 -17.024,10.024 -17.024,24.98c0,4.455 0.635,7.32 1.59,9.388c1.273,2.545 3.183,3.5 4.933,3.5c1.432,0 2.863,-0.636 3.978,-1.432l0,81.305c0,-0 0.477,1.273 1.59,2.863c1.75,2.228 4.773,4.933 9.865,4.933c8.433,0 19.412,-9.706 19.412,-9.706l0,-65.87c0,-6.683 -4.933,-14.798 -10.024,-17.503c-0,0 10.819,-0.636 16.07,3.5c0,0 17.82,-21.479 50.596,-28.002c0,0 -17.502,20.843 -23.07,31.185c-0.955,0.159 -1.114,19.571 -0.955,39.14c0.16,18.776 0.478,37.71 0.795,38.983c-0,0 1.91,2.863 6.683,2.863Z" style="fill:#2e2e2c;"/></svg>