<?xml version="1.0" encoding="UTF-8" standalone="no"?><!DOCTYPE svg PUBLIC "-//W3C//DTD SVG 1.1//EN" "http://www.w3.org/Graphics/SVG/1.1/DTD/svg11.dtd"><svg width="100%" height="100%" viewBox="0 0 267 267" version="1.1" xmlns="http://www.w3.org/2000/svg" xmlns:xlink="http://www.w3.org/1999/xlink" xml:space="preserve" xmlns:serif="http://www.serif.com/" style="fill-rule:evenodd;clip-rule:evenodd;stroke-linejoin:round;stroke-miterlimit:2;"><g><g><path d="M265.021,256.318l-26.89,-28.129c7.865,-8.645 12.704,-20.083 12.704,-32.661c-0,-26.818 -21.818,-48.635 -48.636,-48.635c-26.817,0 -48.635,21.813 -48.635,48.631c0,26.818 21.818,48.635 48.635,48.635c10.997,-0 21.12,-3.712 29.278,-9.893l27.034,28.277c0.883,0.924 2.068,1.392 3.257,1.392c1.122,0 2.239,-0.414 3.113,-1.247c1.793,-1.721 1.86,-4.573 0.14,-6.37Zm-102.447,-60.794c0,-21.849 17.777,-39.626 39.625,-39.626c21.849,0 39.626,17.777 39.626,39.626c-0,21.849 -17.777,39.625 -39.626,39.625c-21.848,0 -39.625,-17.776 -39.625,-39.625Z" style="fill:#404040;fill-rule:nonzero;"/></g><g><path d="M47.586,212.048c1.689,3.131 7.469,6.163 7.267,6.009c0.144,-0.081 0.288,-0.162 0.432,-0.243l35.62,-19.43c6.127,-3.342 9.934,-9.753 9.934,-16.731l-0.005,-16.227l-1.036,-1.252c-0.099,-0.113 -9.839,-11.961 -13.519,-28.003l-0.41,-1.784l-1.536,-0.995c-2.167,-1.401 -3.465,-3.744 -3.465,-6.271l0,-15.97c0,-2.095 0.888,-4.045 2.51,-5.509l1.486,-1.343l0,-25.092l-0.04,-0.59c-0.014,-0.109 -1.343,-10.943 6.289,-19.642c6.514,-7.428 17.677,-11.199 33.169,-11.199c15.434,-0 26.561,3.739 33.094,11.109c7.622,8.609 6.374,19.646 6.365,19.736l-0.041,25.683l1.487,1.342c1.617,1.46 2.509,3.415 2.509,5.51l0,15.97c0,3.212 -2.185,6.126 -5.32,7.095c-2.374,0.73 -3.708,3.257 -2.973,5.631c0.73,2.374 3.248,3.698 5.631,2.973c6.982,-2.153 11.672,-8.465 11.672,-15.699l0,-15.97c0,-3.906 -1.432,-7.695 -3.996,-10.673l0,-21.024c0.235,-2.343 1.063,-15.533 -8.483,-26.417c-8.302,-9.474 -21.74,-14.271 -39.945,-14.271c-18.204,-0 -31.642,4.797 -39.945,14.271c-9.546,10.884 -8.717,24.083 -8.482,26.417l-0,21.024c-2.559,2.978 -3.996,6.767 -3.996,10.673l-0,15.97c-0,4.959 2.225,9.586 6.036,12.708c3.649,14.294 11.159,25.115 13.934,28.782l-0,13.037c-0,3.676 -2.005,7.055 -5.235,8.821l-35.62,19.429c-1.135,0.618 -2.262,1.338 -3.388,2.145Z" style="fill:#810036;fill-rule:nonzero;"/></g><g><path d="M124.282,241.492c-2.856,-0 -5.703,-0.14 -8.536,-0.351c-0.491,-0.036 -0.983,-0.068 -1.469,-0.113c-2.856,-0.252 -5.699,-0.59 -8.514,-1.05c-0.126,-0.022 -0.253,-0.045 -0.379,-0.067c-5.955,-0.996 -11.816,-2.46 -17.524,-4.375c-0.176,-0.058 -0.356,-0.117 -0.531,-0.18c-2.834,-0.964 -5.636,-2.027 -8.389,-3.212c-0.018,-0.009 -0.04,-0.018 -0.058,-0.027c-2.604,-1.122 -5.158,-2.365 -7.681,-3.676c-0.329,-0.171 -0.662,-0.333 -0.987,-0.509c-2.302,-1.23 -4.554,-2.559 -6.775,-3.946c-0.658,-0.415 -1.311,-0.834 -1.96,-1.257c-2.045,-1.338 -4.063,-2.73 -6.027,-4.203c-0.203,-0.153 -0.397,-0.315 -0.599,-0.469c0.144,-0.081 -5.825,-4.712 -7.267,-6.009c-23.421,-21.047 -38.179,-51.541 -38.179,-85.432c-0,-63.343 51.532,-114.875 114.875,-114.875c63.344,0 114.876,51.536 114.876,114.875c-0,2.492 2.014,4.505 4.505,4.505c2.491,0 4.505,-2.013 4.505,-4.505c-0,-68.308 -55.578,-123.885 -123.886,-123.885c-68.308,0 -123.885,55.577 -123.885,123.885c0,36.08 15.515,68.601 40.211,91.261l-0.122,0.108l4.019,3.388c0.261,0.221 0.545,0.401 0.802,0.617c2.135,1.771 4.347,3.451 6.599,5.077c0.73,0.527 1.46,1.059 2.203,1.568c2.406,1.658 4.875,3.23 7.397,4.721c0.55,0.324 1.104,0.64 1.658,0.955c2.762,1.572 5.582,3.054 8.469,4.415c0.212,0.099 0.424,0.189 0.64,0.288c9.411,4.374 19.457,7.587 29.962,9.483c0.275,0.05 0.55,0.099 0.829,0.149c3.262,0.563 6.559,1.013 9.898,1.315c0.405,0.036 0.815,0.059 1.22,0.095c3.338,0.27 6.699,0.446 10.105,0.446c2.491,-0 4.505,-2.014 4.505,-4.505c-0,-2.491 -2.018,-4.505 -4.51,-4.505Z" style="fill:#404040;fill-rule:nonzero;"/></g></g></svg>